<svg width="200" height="200" viewBox="0 0 200 200" fill="none" xmlns="http://www.w3.org/2000/svg">
<circle cx="100" cy="100" r="100" fill="#6D1731"/>
<path d="M101.968 30.2655L103.314 15L112.887 15.8441L112.653 18.5046L105.74 17.8951L105.467 20.9918L110.951 21.4754L110.717 24.136L105.232 23.6524L104.863 27.8395L111.776 28.449L111.541 31.1096L101.968 30.2655Z" fill="white"/>
<path d="M125.648 27.5484L123.852 34.2293L121.273 33.5361L122.887 27.5317C122.998 27.1159 122.998 26.7114 122.884 26.3182C122.773 25.918 122.571 25.5728 122.278 25.2826C121.995 24.9874 121.645 24.7838 121.23 24.6721C120.814 24.5603 120.406 24.5602 120.006 24.6718C119.614 24.7782 119.27 24.9766 118.973 25.267C118.685 25.5522 118.485 25.9027 118.373 26.3185L116.759 32.3229L114.18 31.6297L117.01 21.0558L119.59 21.749L119.347 22.6927C119.809 22.4087 120.319 22.2247 120.879 22.1407C121.439 22.0497 122.009 22.0819 122.587 22.2372C123.355 22.4436 124.005 22.8224 124.537 23.3734C125.071 23.9174 125.439 24.5567 125.642 25.2914C125.854 26.0209 125.856 26.7732 125.648 27.5484Z" fill="white"/>
<path d="M130.269 37.4767C129.315 37.0186 128.556 36.3665 127.991 35.5203C127.432 34.6773 127.109 33.749 127.021 32.7353C126.933 31.7216 127.12 30.7345 127.581 29.7741C127.925 29.0571 128.382 28.4509 128.952 27.9555C129.522 27.4601 130.158 27.0894 130.859 26.8432C131.57 26.5936 132.302 26.4841 133.057 26.5145C133.811 26.5449 134.547 26.7323 135.264 27.0767C135.895 27.38 136.38 27.7868 136.718 28.2971C137.059 28.8009 137.28 29.3523 137.381 29.9512L137.982 28.6981L140.39 29.8544L133.281 44.6552L130.874 43.4989L133.836 37.3319C133.305 37.6275 132.735 37.8031 132.126 37.8585C131.519 37.9073 130.9 37.78 130.269 37.4767ZM134.18 29.4097C133.673 29.1664 133.146 29.0753 132.599 29.1362C132.061 29.1937 131.563 29.3795 131.105 29.6936C130.653 30.0109 130.301 30.4326 130.048 30.9589C129.792 31.4917 129.68 32.0369 129.712 32.5946C129.753 33.1488 129.919 33.6537 130.211 34.1093C130.508 34.568 130.91 34.919 131.417 35.1623C131.93 35.4087 132.442 35.4969 132.954 35.4267C133.475 35.3531 133.951 35.153 134.383 34.8263C134.819 34.4929 135.163 34.0632 135.416 33.5369C135.668 33.0107 135.787 32.4767 135.772 31.9352C135.757 31.3936 135.614 30.8998 135.342 30.4536C135.074 30.001 134.686 29.653 134.18 29.4097Z" fill="white"/>
<path d="M139.926 37.6809L143.99 32.1094L146.148 33.6833L142.497 38.6888C142.243 39.0367 142.096 39.4174 142.056 39.831C142.021 40.2387 142.082 40.6313 142.241 41.0087C142.409 41.3845 142.664 41.6971 143.006 41.9465C143.36 42.2045 143.739 42.3542 144.142 42.3955C144.55 42.431 144.942 42.3695 145.32 42.2112C145.701 42.0471 146.019 41.791 146.273 41.4432L149.924 36.4377L152.082 38.0116L145.64 46.8617L143.482 45.2878L144.06 44.4766C143.522 44.5713 142.974 44.5604 142.418 44.4437C141.866 44.3212 141.351 44.0857 140.874 43.7374C140.231 43.2687 139.758 42.6845 139.456 41.985C139.157 41.2796 139.04 40.5485 139.105 39.7915C139.179 39.033 139.453 38.3294 139.926 37.6809Z" fill="white"/>
<path d="M154.509 40.3419L156.471 42.1534L149.047 50.197L147.084 48.3854L154.509 40.3419ZM156.464 40.2249C156.174 39.9576 156.017 39.6386 155.992 39.2677C155.972 38.8916 156.095 38.5587 156.362 38.2691C156.625 37.9849 156.944 37.8379 157.321 37.8279C157.697 37.818 158.028 37.9442 158.312 38.2066C158.596 38.4689 158.746 38.7857 158.761 39.1569C158.781 39.5331 158.66 39.8633 158.397 40.1475C158.13 40.437 157.811 40.5893 157.44 40.6041C157.073 40.6136 156.748 40.4872 156.464 40.2249Z" fill="white"/>
<path d="M150.279 51.4145L158.342 44.0117L160.147 45.981L159.436 46.6472C159.978 46.6554 160.507 46.7741 161.024 47.0033C161.546 47.2276 162.009 47.5603 162.414 48.0015C162.685 48.2974 162.913 48.6328 163.098 49.0076L160.403 50.0519C160.296 49.7735 160.149 49.5321 159.962 49.3276C159.671 49.0102 159.327 48.7911 158.929 48.6704C158.542 48.5502 158.145 48.5328 157.738 48.6184C157.342 48.7043 156.985 48.8927 156.668 49.1836L152.083 53.3838L150.279 51.4145Z" fill="white"/>
<path d="M157.839 61.1676C157.272 60.3349 156.97 59.4288 156.93 58.4496C156.895 57.4763 157.1 56.5383 157.545 55.6356C157.994 54.7389 158.656 53.993 159.531 53.398C160.189 52.9507 160.885 52.6499 161.618 52.4954C162.357 52.3368 163.084 52.315 163.797 52.4299C164.521 52.5467 165.193 52.7956 165.814 53.1765C166.435 53.5574 166.957 54.0586 167.379 54.6802C167.859 55.3862 168.148 56.1345 168.244 56.925C168.35 57.7175 168.284 58.4953 168.044 59.2586C167.804 60.0218 167.415 60.7226 166.879 61.3611C166.342 61.9995 165.677 62.5137 164.883 62.9035L160.384 56.2866C160.103 56.6009 159.893 56.9469 159.753 57.3247C159.618 57.6983 159.57 58.0884 159.609 58.4949C159.653 58.8972 159.799 59.2876 160.047 59.6658C160.304 60.0561 160.632 60.3446 161.033 60.5312C161.443 60.7197 161.883 60.8087 162.353 60.7984L163.361 63.4093C162.308 63.5869 161.277 63.485 160.267 63.1036C159.264 62.7181 158.454 62.0728 157.839 61.1676ZM161.991 55.0878L165.019 59.5413C165.336 59.2287 165.566 58.8653 165.708 58.4511C165.86 58.0388 165.916 57.6163 165.878 57.1835C165.84 56.7507 165.697 56.3533 165.451 55.9912C165.205 55.6292 164.89 55.3537 164.506 55.165C164.127 54.9721 163.716 54.8676 163.273 54.8514C162.84 54.8372 162.412 54.916 161.991 55.0878Z" fill="white"/>
<path d="M164.763 72.7823L179.3 67.9336L180.215 70.6749L172.303 80.1332L182.261 76.8118L183.107 79.3455L168.569 84.1942L167.658 81.4633L175.566 71.9946L165.608 75.316L164.763 72.7823Z" fill="white"/>
<path d="M169.276 91.4219C169.146 90.4233 169.284 89.4781 169.69 88.5862C170.097 87.7015 170.699 86.9571 171.496 86.3528C172.302 85.7548 173.229 85.3875 174.278 85.2507C175.074 85.147 175.834 85.1915 176.558 85.3841C177.29 85.5758 177.948 85.8837 178.533 86.3079C179.127 86.7384 179.615 87.2635 179.997 87.8834C180.38 88.5032 180.619 89.1858 180.716 89.9311C180.847 90.9297 180.708 91.8714 180.301 92.756C179.895 93.6479 179.289 94.3929 178.484 94.9908C177.679 95.5961 176.749 95.9675 175.693 96.1052C174.904 96.208 174.147 96.163 173.423 95.9704C172.699 95.7778 172.04 95.4662 171.447 95.0357C170.862 94.6116 170.378 94.0896 169.995 93.4697C169.614 92.8571 169.374 92.1745 169.276 91.4219ZM171.924 91.0768C171.993 91.6051 172.196 92.0607 172.533 92.4436C172.87 92.8265 173.285 93.1072 173.78 93.2857C174.275 93.4713 174.797 93.5284 175.347 93.4567C175.912 93.3831 176.409 93.1896 176.839 92.8759C177.278 92.5686 177.606 92.1836 177.826 91.7208C178.053 91.2643 178.134 90.7828 178.068 90.2763C178 89.7552 177.798 89.3033 177.461 88.9203C177.124 88.5374 176.704 88.2536 176.202 88.0688C175.699 87.8841 175.173 87.8275 174.623 87.8992C174.052 87.9737 173.551 88.1678 173.121 88.4814C172.69 88.795 172.365 89.1796 172.145 89.6351C171.933 90.097 171.859 90.5775 171.924 91.0768Z" fill="white"/>
<path d="M169.993 104.708L170.234 102.07L181.468 99.4258L181.23 102.031L173.961 103.752L180.798 106.751L180.558 109.378L173.29 111.088L180.127 114.098L179.889 116.704L169.321 112.066L169.562 109.428L176.863 107.711L169.993 104.708Z" fill="white"/>
<path d="M174.558 127.095L176.099 126.087L177.119 127.656L178.266 126.206L179.72 127.343L178.545 128.806L180.275 129.461L179.623 131.181L177.893 130.525L177.811 132.379L175.961 132.286L176.071 130.42L174.267 130.918L173.782 129.142L175.588 128.668L174.558 127.095Z" fill="white"/>
<path d="M160.957 135.082L173.709 143.58L168.38 151.578L166.157 150.096L170.006 144.321L167.419 142.597L164.365 147.179L162.143 145.698L165.196 141.116L161.699 138.785L157.85 144.56L155.627 143.079L160.957 135.082Z" fill="white"/>
<path d="M151.984 157.187L146.977 152.413L148.82 150.48L153.32 154.771C153.631 155.068 153.987 155.261 154.386 155.349C154.791 155.443 155.191 155.431 155.586 155.313C155.98 155.205 156.326 154.996 156.624 154.684C156.921 154.373 157.116 154.014 157.21 153.61C157.304 153.215 157.294 152.818 157.181 152.418C157.069 152.028 156.857 151.685 156.545 151.388L152.046 147.097L153.889 145.164L161.818 152.71L159.975 154.643L159.262 153.979C159.291 154.52 159.208 155.056 159.014 155.588C158.826 156.124 158.525 156.608 158.112 157.041C157.563 157.617 156.919 158.006 156.181 158.21C155.448 158.418 154.71 158.436 153.968 158.262C153.226 158.099 152.564 157.741 151.984 157.187Z" fill="white"/>
<path d="M141.06 156.509C141.917 155.889 142.852 155.533 143.866 155.439C144.873 155.35 145.843 155.509 146.776 155.915C147.709 156.321 148.488 156.955 149.112 157.819C149.578 158.463 149.893 159.154 150.057 159.891C150.221 160.628 150.244 161.364 150.126 162.097C150.006 162.841 149.753 163.537 149.367 164.186C148.98 164.835 148.465 165.392 147.82 165.858C147.253 166.269 146.664 166.501 146.054 166.554C145.449 166.614 144.859 166.545 144.284 166.348L145.099 167.475L142.935 169.04L133.313 155.735L135.478 154.17L139.486 159.714C139.479 159.106 139.597 158.522 139.839 157.959C140.085 157.403 140.492 156.92 141.06 156.509ZM146.286 163.793C146.742 163.464 147.073 163.044 147.28 162.534C147.486 162.034 147.56 161.507 147.503 160.955C147.439 160.406 147.237 159.895 146.894 159.422C146.548 158.943 146.122 158.585 145.617 158.347C145.11 158.119 144.587 158.025 144.048 158.063C143.502 158.106 143.002 158.293 142.547 158.622C142.086 158.955 141.764 159.364 141.582 159.846C141.398 160.34 141.347 160.854 141.428 161.39C141.513 161.931 141.727 162.439 142.069 162.912C142.411 163.385 142.824 163.744 143.307 163.989C143.79 164.233 144.293 164.343 144.814 164.317C145.34 164.297 145.831 164.122 146.286 163.793Z" fill="white"/>
<path d="M136.276 164.902L139.236 171.131L136.823 172.277L134.164 166.681C133.979 166.292 133.715 165.982 133.37 165.75C133.028 165.524 132.654 165.391 132.247 165.35C131.836 165.319 131.44 165.395 131.058 165.576C130.662 165.764 130.35 166.026 130.121 166.36C129.896 166.702 129.763 167.076 129.722 167.483C129.684 167.897 129.758 168.299 129.942 168.687L132.602 174.283L130.189 175.43L125.481 165.548L127.894 164.401L128.331 165.296C128.505 164.778 128.775 164.301 129.143 163.868C129.514 163.441 129.966 163.101 130.5 162.848C131.219 162.506 131.957 162.369 132.717 162.437C133.479 162.511 134.177 162.756 134.812 163.174C135.443 163.601 135.931 164.177 136.276 164.902Z" fill="white"/>
<path d="M126.987 176.447L124.458 177.306L120.938 166.941L123.467 166.082L126.987 176.447ZM126.156 178.221C126.529 178.094 126.884 178.108 127.222 178.263C127.562 178.425 127.796 178.693 127.922 179.066C128.047 179.432 128.023 179.783 127.852 180.118C127.681 180.454 127.412 180.684 127.046 180.808C126.68 180.933 126.33 180.913 125.997 180.748C125.657 180.586 125.424 180.322 125.3 179.956C125.173 179.583 125.192 179.23 125.356 178.897C125.523 178.57 125.789 178.345 126.156 178.221Z" fill="white"/>
<path d="M119.26 167.446L121.896 178.07L119.303 178.71L119.059 177.767C118.792 178.239 118.434 178.647 117.986 178.991C117.539 179.342 117.025 179.589 116.444 179.733C116.054 179.829 115.651 179.869 115.233 179.851L115.607 176.985C115.903 177.025 116.185 177.012 116.454 176.945C116.872 176.842 117.229 176.645 117.526 176.353C117.817 176.071 118.022 175.731 118.142 175.333C118.256 174.944 118.262 174.54 118.158 174.122L116.667 168.086L119.26 167.446Z" fill="white"/>
<path d="M107.117 169.4C108.119 169.303 109.059 169.471 109.938 169.906C110.809 170.342 111.534 170.971 112.113 171.794C112.684 172.618 113.022 173.557 113.124 174.61C113.202 175.402 113.132 176.156 112.916 176.874C112.701 177.599 112.372 178.247 111.929 178.818C111.48 179.397 110.939 179.868 110.307 180.23C109.675 180.592 108.985 180.81 108.237 180.883C107.388 180.966 106.593 180.86 105.853 180.566C105.106 180.279 104.456 179.848 103.901 179.272C103.346 178.695 102.917 178.018 102.614 177.242C102.311 176.465 102.178 175.634 102.217 174.751L110.181 173.974C110.039 173.577 109.836 173.226 109.572 172.922C109.309 172.625 108.989 172.396 108.614 172.235C108.24 172.081 107.827 172.022 107.376 172.059C106.911 172.097 106.5 172.247 106.144 172.509C105.782 172.779 105.493 173.122 105.277 173.539L102.503 173.172C102.851 172.163 103.435 171.307 104.254 170.604C105.073 169.908 106.027 169.507 107.117 169.4ZM110.462 175.959L105.102 176.482C105.225 176.91 105.434 177.285 105.729 177.608C106.018 177.94 106.362 178.192 106.76 178.366C107.158 178.539 107.575 178.605 108.011 178.563C108.447 178.52 108.839 178.375 109.189 178.129C109.54 177.889 109.829 177.579 110.055 177.197C110.275 176.824 110.411 176.411 110.462 175.959Z" fill="white"/>
<path d="M93.4798 169.913L90.7886 185L87.9437 184.493L83.4185 173.022L81.575 183.356L78.9456 182.887L81.6368 167.801L84.4709 168.306L89.0069 179.779L90.8504 169.444L93.4798 169.913Z" fill="white"/>
<path d="M74.9358 164.96C75.875 165.324 76.6389 165.897 77.2277 166.681C77.8096 167.462 78.1752 168.347 78.3244 169.336C78.4642 170.329 78.3431 171.319 77.9611 172.306C77.6713 173.054 77.2686 173.7 76.7529 174.244C76.2345 174.795 75.6491 175.225 74.9967 175.536C74.3348 175.851 73.6402 176.028 72.9129 176.068C72.1856 176.107 71.4715 175.991 70.7705 175.719C69.8314 175.356 69.0709 174.784 68.4889 174.003C67.9002 173.219 67.5359 172.331 67.3961 171.338C67.2495 170.342 67.3685 169.347 67.7532 168.354C68.0403 167.612 68.4418 166.969 68.9575 166.425C69.4732 165.882 70.0619 165.452 70.7238 165.137C71.3763 164.826 72.0662 164.651 72.7935 164.612C73.514 164.57 74.2281 164.686 74.9358 164.96ZM73.9716 167.451C73.4748 167.259 72.9777 167.219 72.4802 167.331C71.9828 167.444 71.5374 167.675 71.1442 168.023C70.7442 168.369 70.4441 168.801 70.2439 169.318C70.0384 169.849 69.9704 170.378 70.04 170.906C70.1001 171.438 70.2809 171.911 70.5823 172.325C70.8743 172.743 71.2584 173.044 71.7348 173.229C72.2248 173.418 72.7185 173.457 73.216 173.344C73.7134 173.232 74.1635 172.999 74.5661 172.646C74.9687 172.293 75.2701 171.858 75.4704 171.341C75.6785 170.804 75.7478 170.271 75.6782 169.743C75.6086 169.215 75.4266 168.746 75.132 168.334C74.8279 167.927 74.4411 167.633 73.9716 167.451Z" fill="white"/>
<path d="M63.0517 159.292L65.2513 160.768L62.1877 171.895L60.0154 170.437L61.9893 163.232L56.0797 167.796L53.8891 166.326L55.8722 159.127L49.9534 163.685L47.7811 162.227L56.9163 155.175L59.116 156.651L57.1237 163.883L63.0517 159.292Z" fill="white"/>
<path d="M41.2006 152.572L41.3504 154.407L39.4843 154.555L40.2109 156.254L38.5182 156.989L37.7939 155.259L36.3918 156.465L35.1922 155.072L36.5942 153.865L35.0048 152.908L35.9692 151.326L37.5563 152.315L37.9799 150.491L39.7724 150.913L39.3262 152.726L41.2006 152.572Z" fill="white"/>
<path d="M40.669 136.811L27.1206 143.973L22.6293 135.476L24.9906 134.228L28.2337 140.363L30.9821 138.91L28.4091 134.043L30.7704 132.795L33.3434 137.662L37.0596 135.698L33.8164 129.562L36.1777 128.314L40.669 136.811Z" fill="white"/>
<path d="M25.527 118.384L32.1134 116.267L32.9305 118.81L27.0111 120.712C26.6012 120.844 26.2619 121.064 25.9931 121.373C25.7174 121.684 25.537 122.041 25.4519 122.444C25.3575 122.842 25.3762 123.246 25.5079 123.656C25.6397 124.066 25.8609 124.408 26.1718 124.684C26.4735 124.955 26.8269 125.137 27.2321 125.229C27.6281 125.316 28.0311 125.294 28.441 125.162L34.3603 123.26L35.1774 125.803L24.7593 129.162L23.9423 126.619L24.8664 126.311C24.3774 126.077 23.9459 125.748 23.5721 125.324C23.1912 124.902 22.9093 124.406 22.7262 123.837C22.4829 123.079 22.4483 122.328 22.6226 121.582C22.7899 120.838 23.127 120.182 23.634 119.613C24.1318 119.039 24.7628 118.629 25.527 118.384Z" fill="white"/>
<path d="M31.3595 109.121C31.4925 110.17 31.3571 111.162 30.9532 112.096C30.5484 113.023 29.9442 113.798 29.1406 114.422C28.337 115.046 27.4067 115.425 26.3497 115.559C25.5606 115.659 24.8034 115.604 24.078 115.395C23.3526 115.185 22.6963 114.853 22.1089 114.398C21.5135 113.936 21.0237 113.38 20.6397 112.73C20.2558 112.08 20.0138 111.36 19.9137 110.571C19.8257 109.876 19.9042 109.248 20.1495 108.688C20.3875 108.128 20.7306 107.643 21.1788 107.233L19.7997 107.408L19.4639 104.758L35.7529 102.694L36.0887 105.343L29.3016 106.204C29.838 106.489 30.2948 106.872 30.6722 107.354C31.0423 107.837 31.2714 108.426 31.3595 109.121ZM22.4616 110.215C22.5322 110.773 22.7417 111.265 23.09 111.691C23.4301 112.112 23.8566 112.429 24.3692 112.644C24.881 112.851 25.4265 112.918 26.0056 112.844C26.592 112.77 27.1108 112.568 27.5619 112.239C28.0048 111.903 28.3386 111.489 28.5631 110.998C28.7867 110.498 28.8632 109.97 28.7926 109.413C28.721 108.848 28.517 108.37 28.1805 107.979C27.8358 107.581 27.409 107.289 26.9 107.104C26.3838 106.919 25.8361 106.864 25.2569 106.937C24.6777 107.01 24.1648 107.2 23.7182 107.507C23.2716 107.814 22.9347 108.202 22.7074 108.672C22.4728 109.143 22.3909 109.658 22.4616 110.215Z" fill="white"/>
<path d="M26.2864 100.777L19.4011 100.391L19.5506 97.7239L25.7365 98.0707C26.1663 98.0948 26.5657 98.0112 26.9346 97.8199C27.2962 97.6283 27.5924 97.3635 27.8233 97.0256C28.0473 96.68 28.1712 96.2959 28.1949 95.8733C28.2194 95.4362 28.1394 95.037 27.955 94.6758C27.7633 94.3143 27.4985 94.018 27.1607 93.7871C26.8155 93.5558 26.428 93.4281 25.9981 93.404L19.8122 93.0572L19.9617 90.3905L30.8914 90.9923L30.7419 93.659L29.7468 93.6142C30.119 94.0151 30.4071 94.4808 30.6113 95.0111C30.8082 95.5411 30.8901 96.1012 30.857 96.6913C30.8124 97.4855 30.5787 98.1997 30.1558 98.8338C29.7256 99.4674 29.1752 99.9628 28.5047 100.32C27.8273 100.669 27.0879 100.822 26.2864 100.777Z" fill="white"/>
<path d="M20.5954 87.107L21.0504 84.4751L31.8367 86.3399L31.3816 88.9717L20.5954 87.107ZM19.4352 85.5289C19.3681 85.9172 19.1857 86.2226 18.888 86.4452C18.5832 86.6665 18.2366 86.7436 17.8483 86.6765C17.4672 86.6106 17.1702 86.4222 16.9573 86.1114C16.7444 85.8006 16.6709 85.4546 16.7368 85.0735C16.8027 84.6924 16.9875 84.3948 17.2911 84.1807C17.596 83.9594 17.939 83.8817 18.3201 83.9475C18.7084 84.0147 19.0096 84.2001 19.2237 84.5037C19.4306 84.8061 19.5011 85.1478 19.4352 85.5289Z" fill="white"/>
<path d="M32.193 84.6336L21.6007 81.8725L22.277 79.2887L23.2222 79.5248C22.9352 79.065 22.7479 78.5558 22.6603 77.9973C22.5656 77.4369 22.594 76.8673 22.7455 76.2884C22.8471 75.9001 23.0052 75.5266 23.2198 75.1679L25.5587 76.8663C25.3826 77.1069 25.2595 77.3613 25.1892 77.6295C25.0802 78.0461 25.0828 78.4541 25.197 78.8536C25.306 79.2442 25.5066 79.5871 25.799 79.8824C26.0861 80.1688 26.4379 80.3665 26.8544 80.4755L32.8693 82.0498L32.193 84.6336Z" fill="white"/>
<path d="M36.2852 73.0235C35.8914 73.9503 35.2934 74.6953 34.4912 75.2583C33.6919 75.8146 32.7922 76.1499 31.7922 76.2642C30.795 76.3717 29.8095 76.2186 28.8356 75.8048C28.1035 75.4937 27.4741 75.0716 26.9474 74.5386C26.4139 74.0027 26.0024 73.4036 25.7129 72.7415C25.4195 72.0697 25.265 71.3697 25.2493 70.6415C25.2336 69.9134 25.3728 69.2034 25.6667 68.5116C26.0006 67.7258 26.4739 67.0785 27.0865 66.5697C27.6953 66.0513 28.3855 65.6865 29.1572 65.4752C29.9288 65.2639 30.7283 65.2112 31.5556 65.3169C32.3828 65.4226 33.1752 65.7038 33.9326 66.1604L30.8034 73.5248C31.2195 73.5906 31.6243 73.5803 32.0179 73.4938C32.4047 73.4044 32.7587 73.2337 33.0799 72.9817C33.3943 72.7268 33.6434 72.3925 33.8271 71.979C34.0164 71.552 34.0812 71.1196 34.0214 70.6819C33.9577 70.2346 33.7945 69.8164 33.5317 69.4272L35.1819 67.1669C35.9011 67.9562 36.3735 68.8785 36.5991 69.9337C36.8179 70.9861 36.7133 72.016 36.2852 73.0235ZM28.9255 72.8221L31.0317 67.8654C30.5973 67.7681 30.1675 67.7718 29.7424 67.8766C29.3134 67.9718 28.9274 68.1527 28.5842 68.4192C28.241 68.6857 27.9838 69.0204 27.8126 69.4234C27.6414 69.8264 27.5804 70.2405 27.6296 70.6658C27.6721 71.0882 27.8065 71.4903 28.0329 71.8719C28.2554 72.2439 28.553 72.5607 28.9255 72.8221Z" fill="white"/>
<path d="M42.3326 60.8864L30.3853 51.2891L32.195 49.0361L44.4304 50.5668L36.2465 43.9927L37.9192 41.9104L49.8665 51.5078L48.0635 53.7521L35.8213 52.23L44.0052 58.8042L42.3326 60.8864Z" fill="white"/>
<path d="M55.5533 46.9855C54.7855 47.6371 53.9168 48.0345 52.9473 48.1778C51.9833 48.3164 51.0312 48.2151 50.091 47.8741C49.1515 47.5228 48.3395 46.9438 47.6548 46.137C47.1354 45.525 46.7599 44.8626 46.5283 44.1499C46.292 43.4316 46.193 42.7116 46.2314 41.99C46.2706 41.258 46.4465 40.5631 46.7592 39.9053C47.072 39.2475 47.5149 38.6754 48.0879 38.189C48.8557 37.5374 49.7216 37.1423 50.6856 37.0037C51.6551 36.8605 52.6096 36.9645 53.549 37.3158C54.494 37.6624 55.3112 38.2418 56.0006 39.0541C56.5153 39.6606 56.8884 40.3202 57.12 41.0329C57.3516 41.7456 57.4478 42.468 57.4086 43.1999C57.3703 43.9216 57.1947 44.6114 56.882 45.2692C56.5749 45.9223 56.132 46.4944 55.5533 46.9855ZM53.8251 44.9491C54.2313 44.6044 54.5036 44.1866 54.6422 43.6957C54.7807 43.2049 54.7907 42.7035 54.6721 42.1916C54.559 41.675 54.3231 41.2052 53.9642 40.7824C53.5959 40.3484 53.1633 40.036 52.6664 39.8452C52.1703 39.6441 51.6684 39.5771 51.1607 39.6443C50.6538 39.7011 50.2056 39.8948 49.8162 40.2254C49.4156 40.5654 49.146 40.9808 49.0074 41.4716C48.8689 41.9625 48.8585 42.469 48.9763 42.9912C49.094 43.5134 49.3323 43.986 49.6912 44.4088C50.0642 44.8484 50.4992 45.1635 50.9961 45.3544C51.4931 45.5452 51.9926 45.6094 52.4948 45.5469C52.9977 45.4742 53.4412 45.2749 53.8251 44.9491Z" fill="white"/>
<path d="M66.2025 39.2419L63.8566 40.4723L55.5347 32.4766L57.8515 31.2614L63.2445 36.4301L62.0489 29.06L64.3852 27.8347L69.7685 33.0085L68.5826 25.6333L70.8994 24.4181L72.7459 35.8101L70.4 37.0405L64.9917 31.8427L66.2025 39.2419Z" fill="white"/>
<path d="M82.59 23.2403L80.9077 22.4917L81.6732 20.7834L79.8331 20.6058L80 18.768L81.8661 18.9624L81.4795 17.1534L83.2779 16.7691L83.6645 18.5781L85.2667 17.6425L86.1916 19.247L84.5634 20.1658L85.9603 21.4119L84.7309 22.7828L83.3532 21.5213L82.59 23.2403Z" fill="white"/>
<circle cx="100" cy="100" r="25" fill="#D5B471"/>
<path d="M105.357 90.3571L101.071 94.6426L110.714 104.285L115 99.9997L105.357 90.3571Z" fill="white"/>
<path fill-rule="evenodd" clip-rule="evenodd" d="M94.6427 98.9284L90.3569 94.643L94.6427 90.3574L98.9287 94.643L94.6427 98.9284Z" fill="white"/>
<path fill-rule="evenodd" clip-rule="evenodd" d="M100 104.286L95.7144 100.001L100 95.7148L104.285 100.001L100 104.286Z" fill="white"/>
<path d="M105.357 101.072L101.071 105.357L105.357 109.643L109.643 105.357L105.357 101.072Z" fill="white"/>
<path fill-rule="evenodd" clip-rule="evenodd" d="M104.285 110.714L100 106.428L95.7144 110.714L100 115L104.285 110.714Z" fill="white"/>
<path fill-rule="evenodd" clip-rule="evenodd" d="M98.9288 105.357L94.6428 109.643L85 100.001L89.2856 95.7148L98.9288 105.357Z" fill="white"/>
<path fill-rule="evenodd" clip-rule="evenodd" d="M104.285 89.2858L100 85L95.7144 89.2858L100 93.5714L104.285 89.2858Z" fill="white"/>
</svg>
