<svg width="24" height="24" viewBox="0 0 24 24" fill="none" xmlns="http://www.w3.org/2000/svg">
<g clip-path="url(#clip0_535_16)">
<path d="M15.018 22.286C16.0737 22.9671 17.3317 23.2639 18.5805 23.1265C19.8293 22.9892 20.9927 22.426 21.8751 21.5318L22.6465 20.7775C22.9847 20.4315 23.1741 19.967 23.1741 19.4832C23.1741 18.9994 22.9847 18.5348 22.6465 18.1889L19.3722 14.9489C19.0292 14.6118 18.5675 14.4229 18.0865 14.4229C17.6056 14.4229 17.1439 14.6118 16.8008 14.9489V14.9489C16.4549 15.2871 15.9903 15.4765 15.5065 15.4765C15.0227 15.4765 14.5582 15.2871 14.2122 14.9489L9.06939 9.80604C8.89783 9.63697 8.76159 9.43548 8.6686 9.21328C8.57561 8.99109 8.52772 8.75262 8.52772 8.51175C8.52772 8.27088 8.57561 8.03242 8.6686 7.81022C8.76159 7.58803 8.89783 7.38653 9.06939 7.21747V7.21747C9.40651 6.87443 9.59541 6.41271 9.59541 5.93175C9.59541 5.45079 9.40651 4.98907 9.06939 4.64604L5.81224 1.38889C5.46631 1.05069 5.00174 0.861328 4.51796 0.861328C4.03417 0.861328 3.5696 1.05069 3.22367 1.38889L2.46939 2.16032C1.57512 3.04274 1.01196 4.20615 0.874593 5.45495C0.737226 6.70375 1.03403 7.96176 1.7151 9.01747C5.26375 14.2473 9.779 18.7509 15.018 22.286V22.286Z" stroke="white" stroke-width="1.5" stroke-linecap="round" stroke-linejoin="round"/>
</g>
<defs>
<clipPath id="clip0_535_16">
<rect width="24" height="24" fill="white"/>
</clipPath>
</defs>
</svg>
