<svg width="30" height="30" viewBox="0 0 30 30" fill="none" xmlns="http://www.w3.org/2000/svg">
<g clip-path="url(#clip0_588_386)">
<path d="M10.7143 1.07129H2.14284C1.55111 1.07129 1.07141 1.55098 1.07141 2.14272V10.7141C1.07141 11.3059 1.55111 11.7856 2.14284 11.7856H10.7143C11.306 11.7856 11.7857 11.3059 11.7857 10.7141V2.14272C11.7857 1.55098 11.306 1.07129 10.7143 1.07129Z" stroke="#6D1731" stroke-width="1.5" stroke-linecap="round" stroke-linejoin="round"/>
<path d="M27.8572 1.07129H19.2857C18.694 1.07129 18.2143 1.55098 18.2143 2.14272V10.7141C18.2143 11.3059 18.694 11.7856 19.2857 11.7856H27.8572C28.4489 11.7856 28.9286 11.3059 28.9286 10.7141V2.14272C28.9286 1.55098 28.4489 1.07129 27.8572 1.07129Z" stroke="#6D1731" stroke-width="1.5" stroke-linecap="round" stroke-linejoin="round"/>
<path d="M10.7143 18.2144H2.14284C1.55111 18.2144 1.07141 18.6941 1.07141 19.2858V27.8572C1.07141 28.4489 1.55111 28.9286 2.14284 28.9286H10.7143C11.306 28.9286 11.7857 28.4489 11.7857 27.8572V19.2858C11.7857 18.6941 11.306 18.2144 10.7143 18.2144Z" stroke="#6D1731" stroke-width="1.5" stroke-linecap="round" stroke-linejoin="round"/>
<path d="M27.8572 18.2144H19.2857C18.694 18.2144 18.2143 18.6941 18.2143 19.2858V27.8572C18.2143 28.4489 18.694 28.9286 19.2857 28.9286H27.8572C28.4489 28.9286 28.9286 28.4489 28.9286 27.8572V19.2858C28.9286 18.6941 28.4489 18.2144 27.8572 18.2144Z" stroke="#6D1731" stroke-width="1.5" stroke-linecap="round" stroke-linejoin="round"/>
</g>
<defs>
<clipPath id="clip0_588_386">
<rect width="30" height="30" fill="white"/>
</clipPath>
</defs>
</svg>
