<svg width="30" height="30" viewBox="0 0 30 30" fill="none" xmlns="http://www.w3.org/2000/svg">
<g clip-path="url(#clip0_611_166)">
<path d="M10.7143 1.07153H2.14284C1.55111 1.07153 1.07141 1.55123 1.07141 2.14296V10.7144C1.07141 11.3061 1.55111 11.7858 2.14284 11.7858H10.7143C11.306 11.7858 11.7857 11.3061 11.7857 10.7144V2.14296C11.7857 1.55123 11.306 1.07153 10.7143 1.07153Z" stroke="#D5B471" stroke-width="1.5" stroke-linecap="round" stroke-linejoin="round"/>
<path d="M27.8571 1.07153H19.2857C18.6939 1.07153 18.2142 1.55123 18.2142 2.14296V10.7144C18.2142 11.3061 18.6939 11.7858 19.2857 11.7858H27.8571C28.4488 11.7858 28.9285 11.3061 28.9285 10.7144V2.14296C28.9285 1.55123 28.4488 1.07153 27.8571 1.07153Z" stroke="#D5B471" stroke-width="1.5" stroke-linecap="round" stroke-linejoin="round"/>
<path d="M10.7143 18.2144H2.14284C1.55111 18.2144 1.07141 18.6941 1.07141 19.2858V27.8572C1.07141 28.4489 1.55111 28.9286 2.14284 28.9286H10.7143C11.306 28.9286 11.7857 28.4489 11.7857 27.8572V19.2858C11.7857 18.6941 11.306 18.2144 10.7143 18.2144Z" stroke="#D5B471" stroke-width="1.5" stroke-linecap="round" stroke-linejoin="round"/>
<path d="M27.8571 18.2144H19.2857C18.6939 18.2144 18.2142 18.6941 18.2142 19.2858V27.8572C18.2142 28.4489 18.6939 28.9286 19.2857 28.9286H27.8571C28.4488 28.9286 28.9285 28.4489 28.9285 27.8572V19.2858C28.9285 18.6941 28.4488 18.2144 27.8571 18.2144Z" stroke="#D5B471" stroke-width="1.5" stroke-linecap="round" stroke-linejoin="round"/>
</g>
<defs>
<clipPath id="clip0_611_166">
<rect width="30" height="30" fill="white"/>
</clipPath>
</defs>
</svg>
