<svg width="24" height="24" viewBox="0 0 24 24" fill="none" xmlns="http://www.w3.org/2000/svg">
<path d="M16.2868 2.57129H18.8583C19.3129 2.57129 19.7489 2.7519 20.0704 3.07339C20.3919 3.39488 20.5725 3.83092 20.5725 4.28557V21.4284C20.5725 21.8831 20.3919 22.3191 20.0704 22.6406C19.7489 22.9621 19.3129 23.1427 18.8583 23.1427H5.14397C4.68932 23.1427 4.25328 22.9621 3.93179 22.6406C3.6103 22.3191 3.42969 21.8831 3.42969 21.4284V4.28557C3.42969 3.83092 3.6103 3.39488 3.93179 3.07339C4.25328 2.7519 4.68932 2.57129 5.14397 2.57129H7.7154" stroke="white" stroke-width="1.5" stroke-linecap="round" stroke-linejoin="round"/>
<path d="M14.572 0.857422H9.42913C8.48236 0.857422 7.71484 1.62493 7.71484 2.57171V3.42885C7.71484 4.37562 8.48236 5.14314 9.42913 5.14314H14.572C15.5188 5.14314 16.2863 4.37562 16.2863 3.42885V2.57171C16.2863 1.62493 15.5188 0.857422 14.572 0.857422Z" stroke="white" stroke-width="1.5" stroke-linecap="round" stroke-linejoin="round"/>
<path d="M7.71484 9.42871H16.2863" stroke="white" stroke-width="1.5" stroke-linecap="round" stroke-linejoin="round"/>
<path d="M7.71484 13.7148H16.2863" stroke="white" stroke-width="1.5" stroke-linecap="round" stroke-linejoin="round"/>
<path d="M7.71484 18H16.2863" stroke="white" stroke-width="1.5" stroke-linecap="round" stroke-linejoin="round"/>
</svg>
