<svg width="50" height="50" viewBox="0 0 50 50" fill="none" xmlns="http://www.w3.org/2000/svg">
<g opacity="0.1">
<path d="M25 16.072V10.7148" stroke="#1D1D1D" stroke-width="1.5" stroke-linecap="round" stroke-linejoin="round"/>
<path d="M19.6436 30.358C19.6436 33.0366 22.0364 33.9294 25.0007 33.9294C27.965 33.9294 30.3578 33.9294 30.3578 30.358C30.3578 25.0008 19.6436 25.0008 19.6436 19.6437C19.6436 16.0723 22.0364 16.0723 25.0007 16.0723C27.965 16.0723 30.3578 17.4294 30.3578 19.6437" stroke="#1D1D1D" stroke-width="1.5" stroke-linecap="round" stroke-linejoin="round"/>
<path d="M25.001 33.9297V39.2868" stroke="#1D1D1D" stroke-width="1.5" stroke-linecap="round" stroke-linejoin="round"/>
<path d="M25.0004 48.2147C37.8213 48.2147 48.2147 37.8213 48.2147 25.0004C48.2147 12.1795 37.8213 1.78613 25.0004 1.78613C12.1795 1.78613 1.78613 12.1795 1.78613 25.0004C1.78613 37.8213 12.1795 48.2147 25.0004 48.2147Z" stroke="#1D1D1D" stroke-width="1.5" stroke-linecap="round" stroke-linejoin="round"/>
</g>
</svg>
