<svg width="60" height="60" viewBox="0 0 60 60" fill="none" xmlns="http://www.w3.org/2000/svg">
<path d="M59 3.71875C58.9992 2.99793 58.7125 2.30687 58.2028 1.79717C57.6931 1.28748 57.0021 1.00079 56.2812 1L3.71875 1C2.99793 1.00079 2.30687 1.28748 1.79717 1.79717C1.28748 2.30687 1.00079 2.99793 1 3.71875L1 56.2812C1.00079 57.0021 1.28748 57.6931 1.79717 58.2028C2.30687 58.7125 2.99793 58.9992 3.71875 59H56.2812C57.0021 58.9992 57.6931 58.7125 58.2028 58.2028C58.7125 57.6931 58.9992 57.0021 59 56.2812V3.71875ZM43.0203 57.1875H26.779C28.3993 55.8849 30.1293 54.725 31.9497 53.7209C36.5938 51.0721 40.7113 49.414 44.5376 48.6525L46.2802 48.3082C49.8684 47.6021 53.5713 46.8696 57.1875 45.8042V50.3572C54.4657 50.3646 51.7802 50.982 49.3285 52.164C46.8768 53.346 44.7212 55.0626 43.0203 57.1875ZM18.6596 57.1875C19.9344 55.646 22.5836 52.9541 27.4069 50.0065C27.5085 49.9445 27.5968 49.863 27.6669 49.7668C27.737 49.6706 27.7875 49.5615 27.8154 49.4458C27.8434 49.3301 27.8483 49.21 27.8298 49.0924C27.8113 48.9748 27.7699 48.862 27.7078 48.7604C27.6458 48.6589 27.5643 48.5705 27.4681 48.5004C27.3719 48.4303 27.2628 48.3798 27.1471 48.3519C27.0314 48.324 26.9113 48.3191 26.7937 48.3376C26.6761 48.356 26.5633 48.3975 26.4617 48.4595C20.017 52.3984 17.2298 55.9483 16.3852 57.1875H10.734C18.967 46.6723 33.9355 40.4872 34.629 40.2055C36.6774 39.5267 38.0598 38.116 38.3297 36.4269C38.4764 35.5657 38.3108 34.6804 37.8629 33.9304C37.4149 33.1803 36.714 32.6148 35.8862 32.3355C34.7977 32.0144 33.6604 31.8913 32.5285 31.9722C31.8578 32.0015 31.1859 31.9738 30.5199 31.8895C26.24 31.1974 20.7304 33.1152 20.1206 33.3343C14.3707 34.7382 8.32803 34.3393 2.8125 32.1918V20.8571C3.80801 20.9695 4.80908 21.0254 5.81091 21.0247C10.5046 20.9484 15.1374 19.9499 19.4458 18.086C19.8374 17.9227 20.2345 17.7559 20.637 17.5855C24.6081 15.9084 29.1079 14.0074 33.313 14.7163C34.7967 15.0367 36.2372 15.5316 37.6044 16.1908C40.1674 17.2948 42.8176 18.4383 45.8103 17.6789C49.9061 16.6421 53.2616 13.3596 56.2224 10.4639C56.5508 10.1427 56.8707 9.83099 57.1875 9.52475V13.5065C56.8219 14.0248 55.5486 15.6177 52.6368 17.3966C52.4317 17.522 52.2849 17.7237 52.2285 17.9573C52.172 18.191 52.2107 18.4375 52.3358 18.6426C52.4643 18.8442 52.6659 18.9881 52.8982 19.0443C53.1306 19.1004 53.3756 19.0643 53.5819 18.9436C54.8774 18.1676 56.0861 17.2552 57.1875 16.2221V22.7266C55.0692 24.1863 52.9645 25.6232 50.926 27.0003C50.3397 27.3963 49.5861 27.8295 48.7878 28.2884C45.8784 29.9597 42.2574 32.0404 41.8339 35.0786C41.7227 35.7829 41.7707 36.5031 41.9744 37.1864C42.1781 37.8697 42.5323 38.4987 43.011 39.0271C44.2867 40.4573 46.5174 41.3281 48.8759 41.3281C48.9529 41.3281 49.0308 41.3272 49.1087 41.325C51.9493 41.2489 54.726 40.4655 57.1875 39.0458V43.9161C53.4814 44.976 49.7242 45.8483 45.9302 46.5298L44.1836 46.8745C40.163 47.6754 35.8676 49.3999 31.0514 52.1465C28.5221 53.5139 26.1843 55.2088 24.0982 57.1875H18.6596ZM2.8125 42.5301C8.74724 43.4761 17.0995 40.7869 20.5693 39.5236C20.6416 39.5108 20.7161 39.5211 20.7821 39.5531C20.8482 39.585 20.9026 39.6369 20.9375 39.7015C20.9661 39.7667 20.9711 39.8399 20.9516 39.9085C20.9322 39.977 20.8895 40.0367 20.8309 40.0772C19.8594 40.5227 9.2921 45.4396 2.8125 51.0972V42.5301ZM57.1875 32.196C56.2861 32.5048 55.3351 32.8645 54.4139 33.2139C54.0413 33.3551 53.6736 33.4945 53.3262 33.625C53.2844 33.6207 53.2444 33.6058 53.2099 33.5818C53.1754 33.5578 53.1475 33.5255 53.1288 33.4878C53.0638 33.3639 53.1921 33.1825 53.2744 33.0856C54.0296 32.195 55.4027 31.2335 57.1875 30.335V32.196ZM57.1875 28.3223C55.4697 29.1187 53.2001 30.3712 51.892 31.9129C51.554 32.2583 51.3462 32.7102 51.3039 33.1917C51.2616 33.6731 51.3875 34.1543 51.6602 34.5534C51.848 34.8224 52.0972 35.0428 52.3871 35.1964C52.6771 35.35 52.9994 35.4323 53.3275 35.4366C53.9301 35.3629 54.5151 35.1842 55.056 34.9087C55.7659 34.6395 56.4859 34.3715 57.1875 34.121V36.8692C54.7947 38.522 51.9717 39.4409 49.0644 39.5134C47.1329 39.5493 45.3372 38.9116 44.3637 37.8204C44.0605 37.4878 43.8368 37.0907 43.7095 36.6591C43.5822 36.2275 43.5546 35.7725 43.6287 35.3287C43.9296 33.1697 47.1241 31.3346 49.6906 29.8597C50.5185 29.3845 51.3 28.9354 51.9412 28.5021C53.6536 27.3453 55.4129 26.146 57.1875 24.9269L57.1875 28.3223ZM57.1875 3.71875V7.03823C56.4532 7.70989 55.7228 8.41682 54.9551 9.16819C52.0213 12.0374 48.9879 15.0048 45.3655 15.9221C42.9689 16.5284 40.7117 15.5558 38.3213 14.526C36.8214 13.8079 35.2411 13.2717 33.6139 12.9286C28.8898 12.1339 24.1311 14.1424 19.9321 15.9155C19.533 16.0841 19.1387 16.2498 18.7493 16.4124C13.1763 18.7304 7.68644 19.6272 2.8125 19.0299V13.0856C12.0943 12.0384 18.2632 4.62116 19.639 2.8125H22.3027C22.014 3.6313 21.8597 4.49145 21.846 5.35956C21.792 7.55217 22.7894 8.67657 23.635 9.23368C25.0054 10.1364 27.0312 10.1966 28.7959 9.38591C30.6832 8.51993 33.3374 8.86729 35.4388 9.26643C36.3646 9.44211 37.3115 9.68371 38.2275 9.91735C39.8876 10.3939 41.5881 10.7163 43.3075 10.8802C43.9208 10.921 44.6336 10.9683 45.3779 10.9683C46.9652 10.9683 48.6958 10.7528 49.9034 9.79743C50.2502 9.55505 50.5194 9.21753 50.6786 8.82558C50.8379 8.43363 50.8803 8.00398 50.8008 7.58845C50.5035 6.10251 48.7817 4.98873 47.6546 4.6719C47.6167 4.66137 47.5781 4.65325 47.5391 4.64756C45.4495 4.3353 43.4173 3.71698 41.5079 2.8125H56.2812C56.5215 2.81281 56.7518 2.90839 56.9217 3.07828C57.0916 3.24817 57.1872 3.47849 57.1875 3.71875ZM38.5039 2.8125C40.7831 5.36932 46.2984 6.29407 47.2148 6.43175C48.0038 6.67424 48.922 7.43756 49.0237 7.94423C49.0379 8.01635 49.0649 8.14999 48.779 8.37611C47.5529 9.34609 45.0691 9.18147 43.4092 9.07041C41.8068 8.91281 40.2221 8.60842 38.6753 8.16106C37.7328 7.92033 36.7579 7.67209 35.7769 7.4858C33.263 7.00833 30.3792 6.66539 28.0397 7.73891C26.8494 8.28496 25.4789 8.27788 24.632 7.71988C23.9589 7.27648 23.631 6.49724 23.6576 5.4038C23.6647 4.50261 23.8815 3.61544 24.2908 2.8125H38.5039ZM3.71875 2.8125H17.2846C15.0835 5.32847 9.86799 10.374 2.8125 11.2622V3.71875C2.81281 3.47849 2.90839 3.24817 3.07828 3.07828C3.24817 2.90839 3.47849 2.81281 3.71875 2.8125ZM2.8125 56.2812V53.5632C8.98814 47.5085 21.5092 41.7596 21.6367 41.7016C21.6637 41.6892 21.6898 41.6755 21.7154 41.6609C22.1927 41.3858 22.544 40.9356 22.6948 40.4058C22.8456 39.876 22.7839 39.3082 22.523 38.8231C22.2814 38.379 21.8904 38.0348 21.4192 37.8514C20.9481 37.6679 20.4273 37.6571 19.949 37.8208C16.5537 39.0569 8.29588 41.724 2.8125 40.6897V34.1461C8.5176 36.2243 14.7136 36.5501 20.6052 35.0817C20.6363 35.0738 20.667 35.0644 20.6972 35.0534C20.7525 35.0331 26.2608 33.0352 30.2305 33.679C31.0002 33.7821 31.7774 33.8174 32.5533 33.7843C33.4725 33.714 34.3969 33.8023 35.2862 34.0454C35.7104 34.1882 36.0698 34.4776 36.2997 34.8617C36.5295 35.2458 36.6148 35.6993 36.5402 36.1406C36.3004 37.6421 34.5627 38.3204 34.0361 38.4926C34.018 38.4988 34.0003 38.5049 33.9826 38.512C33.2831 38.7904 16.9388 45.3967 8.46865 57.1875H3.71875C3.47849 57.1872 3.24817 57.0916 3.07828 56.9217C2.90839 56.7518 2.81281 56.5215 2.8125 56.2812ZM56.2812 57.1875H45.41C46.9373 55.6054 48.7668 54.3461 50.7898 53.484C52.8129 52.622 54.9884 52.1749 57.1875 52.1691V56.2812C57.1872 56.5215 57.0916 56.7518 56.9217 56.9217C56.7518 57.0916 56.5215 57.1872 56.2812 57.1875Z" fill="#D5B471"/>
<path d="M31.198 20.0741C28.741 18.1958 25.1013 17.9786 22.5126 18.4008C19.4133 18.9074 16.9395 19.8422 15.1608 21.1791C12.7819 22.9666 7.28072 24.5443 7.26814 24.5482C5.58235 24.9568 3.75229 26.0224 3.71923 27.3971C3.70349 28.0601 4.06552 28.9596 5.88037 29.4814C7.24025 29.8479 8.65118 30.0219 10.0662 29.9978C10.5369 29.9978 11.0278 29.9831 11.539 29.9537C13.2922 29.8087 15.0289 29.5239 16.7301 29.1023C17.6646 28.8963 18.6305 28.684 19.5744 28.529C21.7135 28.1788 24.4135 27.8723 26.3212 28.6295C28.2473 29.3926 30.422 29.294 31.8591 28.3789C32.4557 27.9902 32.9317 27.4609 33.2389 26.8447C33.5461 26.2286 33.6736 25.5475 33.6084 24.8704C33.6108 23.9542 33.3958 23.0488 32.979 22.2194C32.5623 21.3901 31.954 20.6574 31.198 20.0741ZM30.6487 26.7188C29.8265 27.2431 28.391 27.2681 27.1601 26.7801C24.7471 25.8238 21.7833 26.1279 19.2029 26.5506C18.1982 26.7154 17.2013 26.9346 16.2369 27.147C14.6545 27.5419 13.0389 27.8102 11.4078 27.9488C9.76442 28.089 8.10745 27.958 6.51259 27.5619C6.32897 27.5123 6.1511 27.4458 5.98162 27.3632C6.52097 26.935 7.16156 26.6327 7.85051 26.4815C8.09239 26.4128 13.8045 24.7758 16.5071 22.7445C17.9788 21.6386 20.1835 20.8205 22.883 20.3791C24.9046 20.0491 27.9398 20.1781 29.8375 21.6287C30.3544 22.0296 30.7684 22.5336 31.0493 23.1038C31.3301 23.674 31.4706 24.2958 31.4603 24.9234C31.5077 25.2631 31.4574 25.6084 31.3148 25.9239C31.1721 26.2394 30.9422 26.5138 30.6487 26.7188Z" fill="#D5B471"/>
<path d="M42.433 28.1826C44.0339 28.244 45.5997 27.729 46.8145 26.7414C47.0934 26.5894 47.3825 26.4551 47.6802 26.3393C49.4657 25.5815 52.7902 24.1713 52.6521 20.6266C52.644 20.4 52.5867 20.1774 52.4836 19.9727C52.3806 19.7679 52.2341 19.5854 52.0532 19.4366C50.7868 18.3851 48.7892 18.9236 47.278 18.9416C45.3626 18.9321 43.4542 18.721 41.5883 18.3122C41.05 18.1717 40.4791 18.19 39.9521 18.3645C39.4251 18.539 38.967 18.8615 38.639 19.2888C38.3323 19.702 38.1642 20.1927 38.1565 20.6974C38.1488 21.2021 38.3018 21.6972 38.5957 22.1186C38.9835 22.6783 39.0335 22.9173 38.8506 23.3351C38.183 24.8601 38.5316 25.9382 38.9423 26.5743C39.681 27.7185 41.0783 28.1717 42.433 28.1826ZM40.7643 25.5233C40.661 25.2983 40.6125 25.0541 40.6226 24.809C40.6327 24.5638 40.7011 24.324 40.8227 24.1072C41.0483 23.6011 41.1263 23.0471 41.0487 22.5028C40.9711 21.9586 40.7406 21.4439 40.3812 21.0124C40.3239 20.9249 40.2954 20.8234 40.2992 20.7206C40.3031 20.6178 40.3391 20.5184 40.4028 20.435C40.5891 20.1905 40.8664 20.2272 41.1437 20.2861C43.4907 20.8089 45.9028 21.0233 48.3117 20.9232C48.4365 20.9155 50.5243 20.7518 50.52 20.9119C50.47 22.7852 48.7366 23.679 46.8062 24.498C46.2826 24.6796 45.7933 24.9394 45.3568 25.2676C44.413 25.9553 43.224 26.2704 42.0396 26.1466C41.791 26.1408 41.547 26.0817 41.3261 25.9737C41.1052 25.8658 40.9131 25.7117 40.7643 25.5233Z" fill="#D5B471"/>
<path d="M34.1269 50.8437C34.799 50.7715 35.4524 50.5842 36.0565 50.2906C38.1958 49.506 40.6205 48.6172 42.0191 48.4651C42.4763 48.4059 42.9119 48.2407 43.2888 47.9836C43.6657 47.7265 43.9726 47.3852 44.1835 46.9887C44.3944 46.5922 44.503 46.1523 44.4999 45.7065C44.4969 45.2607 44.3824 44.8222 44.1661 44.4284C43.0209 42.4587 40.0842 42.3899 38.4915 43.0971C36.5752 43.9466 33.9797 45.3142 32.497 47.0056C32.1715 47.3188 31.9493 47.7181 31.8584 48.1533C31.7676 48.5884 31.8122 49.0397 31.9865 49.4504C32.1609 49.861 32.4573 50.2125 32.8382 50.4605C33.2192 50.7085 33.6676 50.8419 34.1269 50.8437ZM34.1103 48.3264C35.0708 47.2301 36.9401 46.0325 39.3736 44.9536C39.7467 44.8002 40.149 44.7241 40.5544 44.7301C41.3022 44.7301 42.0522 44.9631 42.3237 45.4301C42.369 45.5296 42.3905 45.6377 42.3868 45.7463C42.3831 45.8549 42.3542 45.9614 42.3023 46.0578C42.2504 46.1542 42.1768 46.2382 42.0869 46.3034C41.9969 46.3687 41.893 46.4137 41.7827 46.435C40.1199 46.6156 37.6725 47.5129 35.3061 48.3808C34.8948 48.5314 34.4892 48.6805 34.1221 48.8167C34.0271 48.8517 33.9413 48.6883 33.9427 48.6192C33.9437 48.5727 34.0514 48.3264 34.1103 48.3264Z" fill="#D5B471"/>
<path d="M16.1531 5.62969C15.7199 5.50577 15.2642 5.49873 14.8277 5.60923C14.3913 5.71973 13.988 5.94424 13.6548 6.2622C12.6794 7.2093 10.5262 8.42345 8.62652 9.49498C8.25798 9.70342 7.89363 9.90854 7.5413 10.1098C7.12278 10.3712 6.79575 10.7692 6.6093 11.2439C6.42286 11.7187 6.38707 12.2446 6.5073 12.7427C6.63451 13.287 6.93543 13.7682 7.35925 14.1051C7.78307 14.4419 8.30381 14.6137 8.83353 14.5915C8.89103 14.5932 8.94959 14.5937 9.00814 14.5937C11.142 14.5937 13.6768 13.6079 15.4495 12.7681C17.2148 11.9305 18.7208 9.55138 18.0601 7.47582C17.9135 7.02403 17.6621 6.61832 17.3289 6.29581C16.9958 5.9733 16.5915 5.74428 16.1531 5.62969ZM14.5733 10.7014C12.2852 11.7856 10.2622 12.3584 8.88634 12.3279C8.71488 12.323 8.61713 12.2804 8.59883 12.2428C8.5794 12.1906 8.57902 12.1327 8.59776 12.0802C8.93441 11.8878 9.28204 11.6921 9.63437 11.4931C11.7447 10.3027 13.9272 9.07196 15.1028 7.93079C15.1772 7.87221 15.2631 7.83229 15.3542 7.81405C15.4452 7.79581 15.539 7.79973 15.6284 7.82552C15.7178 7.85131 15.8005 7.89828 15.8702 7.96289C15.9399 8.02749 15.9948 8.10802 16.0307 8.19839C16.289 9.00896 15.4285 10.2961 14.5733 10.7014Z" fill="#D5B471"/>
</svg>
