<svg width="24" height="24" viewBox="0 0 24 24" fill="none" xmlns="http://www.w3.org/2000/svg">
<g clip-path="url(#clip0_583_336)">
<path d="M12 23.1431C18.1541 23.1431 23.1429 18.1543 23.1429 12.0003C23.1429 5.84625 18.1541 0.857422 12 0.857422C5.846 0.857422 0.857178 5.84625 0.857178 12.0003C0.857178 18.1543 5.846 23.1431 12 23.1431Z" stroke="white" stroke-width="1.5" stroke-linecap="round" stroke-linejoin="round"/>
<path d="M12.0001 0.857422C12.0001 0.857422 5.02298 7.01171 12.0001 12.0003C18.0001 16.286 12.0001 23.1431 12.0001 23.1431" stroke="white" stroke-width="1.5" stroke-linecap="round" stroke-linejoin="round"/>
<path d="M15.4286 9.42857C16.3754 9.42857 17.1429 8.66106 17.1429 7.71429C17.1429 6.76751 16.3754 6 15.4286 6C14.4819 6 13.7144 6.76751 13.7144 7.71429C13.7144 8.66106 14.4819 9.42857 15.4286 9.42857Z" stroke="white" stroke-width="1.5" stroke-linecap="round" stroke-linejoin="round"/>
<path d="M8.57146 17.9999C9.51824 17.9999 10.2857 17.2323 10.2857 16.2856C10.2857 15.3388 9.51824 14.5713 8.57146 14.5713C7.62469 14.5713 6.85718 15.3388 6.85718 16.2856C6.85718 17.2323 7.62469 17.9999 8.57146 17.9999Z" stroke="white" stroke-width="1.5" stroke-linecap="round" stroke-linejoin="round"/>
</g>
<defs>
<clipPath id="clip0_583_336">
<rect width="24" height="24" fill="white"/>
</clipPath>
</defs>
</svg>
