<svg width="24" height="24" viewBox="0 0 24 24" fill="none" xmlns="http://www.w3.org/2000/svg">
<g clip-path="url(#clip0_407_2169)">
<path d="M18 18.8577H21.4285C21.8832 18.8577 22.3192 18.6771 22.6407 18.3556C22.9622 18.0341 23.1428 17.5981 23.1428 17.1434V9.42913C23.1428 8.97447 22.9622 8.53844 22.6407 8.21695C22.3192 7.89546 21.8832 7.71484 21.4285 7.71484H2.5714C2.11675 7.71484 1.68071 7.89546 1.35922 8.21695C1.03773 8.53844 0.857117 8.97447 0.857117 9.42913V17.1434C0.857117 17.5981 1.03773 18.0341 1.35922 18.3556C1.68071 18.6771 2.11675 18.8577 2.5714 18.8577H5.99997" stroke="white" stroke-width="1.5" stroke-linecap="round" stroke-linejoin="round"/>
<path d="M6 16.2852V22.2852C6 22.5125 6.09031 22.7305 6.25105 22.8912C6.4118 23.052 6.62981 23.1423 6.85714 23.1423H17.1429C17.3702 23.1423 17.5882 23.052 17.7489 22.8912C17.9097 22.7305 18 22.5125 18 22.2852V16.2852H6Z" stroke="white" stroke-width="1.5" stroke-linecap="round" stroke-linejoin="round"/>
<path d="M18 7.71456V1.71456C18 1.48724 17.9097 1.26922 17.7489 1.10847C17.5882 0.947728 17.3702 0.857422 17.1429 0.857422H6.85714C6.62981 0.857422 6.4118 0.947728 6.25105 1.10847C6.09031 1.26922 6 1.48724 6 1.71456V7.71456" stroke="white" stroke-width="1.5" stroke-linecap="round" stroke-linejoin="round"/>
<path d="M18.8571 12H17.1428" stroke="white" stroke-width="1.5" stroke-linecap="round" stroke-linejoin="round"/>
</g>
<defs>
<clipPath id="clip0_407_2169">
<rect width="24" height="24" fill="white"/>
</clipPath>
</defs>
</svg>
