<svg width="60" height="60" viewBox="0 0 60 60" fill="none" xmlns="http://www.w3.org/2000/svg">
<path d="M37.0551 10.8981C36.63 10.5714 36.1031 10.3697 35.5258 10.3697H24.5167C23.9384 10.3697 23.4115 10.5724 22.9864 10.9C22.5603 10.5724 22.0344 10.3697 21.4561 10.3697H10.447C9.05805 10.3697 7.9271 11.4953 7.9271 12.8777V23.8348C7.9271 24.4103 8.13075 24.9348 8.45995 25.3579C8.13075 25.7819 7.9271 26.3064 7.9271 26.882V37.839C7.9271 38.4136 8.12976 38.938 8.45798 39.3611C8.12779 39.7862 7.92413 40.3116 7.92413 40.8882V44.9813L5.73439 48.9613L1.51407 51.2608C1.19673 51.4329 1 51.7645 1 52.1237C1 52.4828 1.19673 52.8144 1.51407 52.9866L5.73439 55.286L8.04573 59.4884C8.21874 59.8032 8.55189 60 8.91273 60C9.27357 60 9.60673 59.8042 9.77973 59.4884L12.0901 55.287L13.8063 54.3542H21.4531C22.0324 54.3542 22.5603 54.1505 22.9874 53.8229C23.4125 54.1496 23.9394 54.3513 24.5167 54.3513H35.5258C36.1041 54.3513 36.631 54.1486 37.0571 53.8209C37.4832 54.1486 38.0101 54.3513 38.5884 54.3513H49.5975C50.9864 54.3513 52.1164 53.2257 52.1164 51.8432V40.8862C52.1164 40.3106 51.9128 39.7862 51.5835 39.3631C51.9128 38.939 52.1164 38.4146 52.1164 37.839V26.882C52.1164 26.3074 51.9137 25.7829 51.5855 25.3598C51.9157 24.9358 52.1194 24.4094 52.1194 23.8328V15.9033L54.2646 12.0001L58.4859 9.70063C58.8033 9.52844 59 9.19686 59 8.83772C59 8.47859 58.8033 8.14701 58.4859 7.97482L54.2646 5.67538L51.9543 1.47302C51.6073 0.842326 50.5673 0.842326 50.2203 1.47302L47.9099 5.67538L43.6896 7.97482C43.3723 8.14701 43.1755 8.47859 43.1755 8.83772C43.1755 9.19686 43.3723 9.52844 43.6896 9.70063L44.9135 10.3677H38.5904C38.0111 10.3677 37.4832 10.5714 37.0561 10.8991L37.0551 10.8981ZM38.5894 12.3346H48.0948L49.463 14.823L50.1422 16.0578V23.8318C50.1422 24.128 49.9019 24.368 49.6054 24.3739C49.6024 24.3739 49.5994 24.3739 49.5965 24.3739H38.5875C38.5875 24.3739 38.5815 24.3739 38.5786 24.3739C38.2849 24.368 38.0487 24.1329 38.0437 23.8407C38.0437 23.8387 38.0437 23.8367 38.0437 23.8338V12.8767C38.0437 12.8767 38.0437 12.8718 38.0437 12.8699C38.0487 12.5737 38.2909 12.3346 38.5894 12.3346ZM50.1392 26.881V37.838C50.1392 38.1361 49.896 38.3782 49.5975 38.3782H38.5884C38.2889 38.3782 38.0457 38.1361 38.0457 37.838V26.881C38.0457 26.5868 38.284 26.3477 38.5795 26.3428C38.5835 26.3428 38.5865 26.3438 38.5904 26.3438H49.5965C49.5965 26.3438 49.6034 26.3428 49.6073 26.3428C49.9019 26.3477 50.1392 26.5858 50.1392 26.881ZM21.4541 38.3752H10.448C10.448 38.3752 10.4411 38.3762 10.4381 38.3762C10.1435 38.3713 9.90528 38.1332 9.90528 37.838V26.881C9.90528 26.5829 10.1485 26.3408 10.448 26.3408H21.457C21.7556 26.3408 21.9988 26.5829 21.9988 26.881V37.838C21.9988 38.1332 21.7605 38.3713 21.4659 38.3762C21.462 38.3762 21.458 38.3752 21.4541 38.3752ZM23.975 37.838V26.881C23.975 26.5829 24.2182 26.3408 24.5167 26.3408H35.5258C35.8243 26.3408 36.0675 26.5829 36.0675 26.881V37.838C36.0675 38.1361 35.8243 38.3782 35.5258 38.3782H24.5167C24.2182 38.3782 23.975 38.1361 23.975 37.838ZM24.5167 12.3376H35.5258C35.8214 12.3376 36.0616 12.5757 36.0665 12.8699V12.8787V23.8328C36.0665 23.8328 36.0665 23.8387 36.0665 23.8416C36.0626 24.1348 35.8223 24.373 35.5258 24.373H24.5167C24.2182 24.373 23.975 24.1309 23.975 23.8338V12.8767C23.975 12.5786 24.2182 12.3366 24.5167 12.3366V12.3376ZM9.90429 12.8777C9.90429 12.5796 10.1475 12.3376 10.447 12.3376H21.4561C21.7546 12.3376 21.9978 12.5796 21.9978 12.8777V23.8348C21.9978 24.1319 21.7546 24.3739 21.4561 24.3739H10.447C10.1475 24.3739 9.90429 24.1319 9.90429 23.8348V12.8777ZM10.8879 53.697C10.7229 53.7875 10.5854 53.9223 10.4955 54.0866L8.91372 56.9636L7.33098 54.0866C7.24101 53.9223 7.10459 53.7865 6.9385 53.697L4.04883 52.1217L6.9385 50.5464C7.1036 50.4559 7.24002 50.3211 7.33098 50.1568L8.91372 47.2798L10.4965 50.1568C10.5874 50.3221 10.7238 50.4579 10.8889 50.5474L13.7845 52.1207L13.0787 52.5044C13.0787 52.5044 13.0767 52.5064 13.0747 52.5074L10.8879 53.697ZM21.4541 52.3844H16.8007C16.8235 52.2998 16.8363 52.2122 16.8363 52.1217C16.8363 51.7626 16.6386 51.431 16.3213 51.2578L12.0901 48.9584L9.90133 44.9794V40.8862C9.90133 40.5901 10.1416 40.35 10.4381 40.3441H10.447H21.4561C21.4561 40.3441 21.461 40.3441 21.464 40.3441C21.7576 40.35 21.9938 40.5851 21.9988 40.8774V40.8843V51.8413C21.9988 51.8413 21.9988 51.8462 21.9988 51.8482C21.9938 52.1443 21.7526 52.3844 21.4541 52.3844ZM35.5258 52.3814H24.5167C24.2212 52.3814 23.9809 52.1433 23.976 51.8491C23.976 51.8462 23.976 51.8432 23.976 51.8403V40.8862C23.976 40.8862 23.976 40.8803 23.976 40.8774C23.9799 40.5842 24.2202 40.346 24.5167 40.346H35.5258C35.8243 40.346 36.0675 40.5881 36.0675 40.8852V51.8423C36.0675 52.1404 35.8243 52.3824 35.5258 52.3824V52.3814ZM50.1382 51.8413C50.1382 52.1394 49.895 52.3814 49.5965 52.3814H38.5875C38.2879 52.3814 38.0447 52.1394 38.0447 51.8413V40.8843C38.0447 40.5871 38.2879 40.3451 38.5875 40.3451H49.5965C49.895 40.3451 50.1382 40.5871 50.1382 40.8843V51.8413ZM49.1111 7.26147C49.2772 7.17095 49.4136 7.03615 49.5035 6.87184L51.0863 3.99483L52.669 6.87184C52.759 7.03615 52.8954 7.17193 53.0615 7.26147L55.9522 8.83674L53.0615 10.412C52.8954 10.5025 52.759 10.6373 52.669 10.8026L51.0873 13.6777L49.548 10.8784C49.5451 10.8725 49.4986 10.7918 49.4966 10.7869C49.4057 10.6285 49.2722 10.4986 49.1121 10.411L46.2224 8.83576L49.1121 7.26049L49.1111 7.26147Z" fill="#D5B471"/>
</svg>
