<svg width="80" height="80" viewBox="0 0 80 80" fill="none" xmlns="http://www.w3.org/2000/svg">
<path d="M27.2759 8.8106L14.3659 0.362005C13.6838 -0.0842449 12.815 -0.120339 12.0986 0.267161C11.3823 0.654661 10.9375 1.40091 10.9375 2.21497V66.2187C10.9855 67.7683 13.2333 67.767 13.2808 66.2187V2.45279L25.9347 10.7337V69.2661L13.2808 77.547V71.7558C13.2328 70.2062 10.985 70.2075 10.9375 71.7558V77.7848C10.9375 78.5989 11.3823 79.3453 12.0986 79.7326C12.4289 79.9112 12.7913 80 13.1528 79.9998C13.5761 79.9998 13.9983 79.8784 14.3659 79.6378L27.2758 71.1892C27.9033 70.7786 28.278 70.0859 28.278 69.3362V10.6636C28.278 9.91388 27.9033 9.22107 27.2759 8.8106Z" fill="#D5B471"/>
<path d="M17.4945 20.965C18.1417 20.965 18.6662 20.4404 18.6662 19.7932V18.5386C18.6182 16.9891 16.3704 16.9904 16.3229 18.5386V19.7932C16.3228 20.4404 16.8473 20.965 17.4945 20.965Z" fill="#D5B471"/>
<path d="M16.3125 30.2111C16.3605 31.7607 18.6083 31.7594 18.6558 30.2111V28.9566C18.6078 27.4071 16.36 27.4083 16.3125 28.9566V30.2111Z" fill="#D5B471"/>
<path d="M16.3125 40.6271C16.3605 42.1767 18.6083 42.1754 18.6558 40.6271V39.3726C18.6078 37.8231 16.36 37.8243 16.3125 39.3726V40.6271Z" fill="#D5B471"/>
<path d="M16.3125 51.0432C16.3605 52.5927 18.6083 52.5914 18.6558 51.0432V49.7886C18.6078 48.2391 16.36 48.2404 16.3125 49.7886V51.0432Z" fill="#D5B471"/>
<path d="M16.3125 61.4611C16.3605 63.0107 18.6083 63.0094 18.6558 61.4611V60.2066C18.6078 58.6571 16.36 58.6583 16.3125 60.2066V61.4611Z" fill="#D5B471"/>
<path d="M22.7341 16.348C23.3813 16.348 23.9058 15.8233 23.9058 15.1761V13.7808C23.8578 12.2313 21.61 12.2325 21.5625 13.7808V15.1761C21.5623 15.8233 22.0869 16.348 22.7341 16.348Z" fill="#D5B471"/>
<path d="M21.5625 25.3851C21.6105 26.9346 23.8583 26.9334 23.9058 25.3851V23.9898C23.8578 22.4403 21.61 22.4415 21.5625 23.9898V25.3851Z" fill="#D5B471"/>
<path d="M21.5625 35.5941C21.6105 37.1436 23.8583 37.1424 23.9058 35.5941V34.1988C23.8578 32.6493 21.61 32.6505 21.5625 34.1988V35.5941Z" fill="#D5B471"/>
<path d="M21.5625 45.8011C21.6105 47.3507 23.8583 47.3494 23.9058 45.8011V44.4058C23.8578 42.8563 21.61 42.8575 21.5625 44.4058V45.8011Z" fill="#D5B471"/>
<path d="M21.5625 56.0101C21.6105 57.5596 23.8583 57.5584 23.9058 56.0101V54.6148C23.8578 53.0653 21.61 53.0665 21.5625 54.6148V56.0101Z" fill="#D5B471"/>
<path d="M21.5625 66.2191C21.6105 67.7686 23.8583 67.7674 23.9058 66.2191V64.8238C23.8578 63.2743 21.61 63.2755 21.5625 64.8238V66.2191Z" fill="#D5B471"/>
<path d="M67.6311 55.108L62.6304 50.1063C62.1728 49.6487 61.431 49.6487 60.9734 50.1063C60.5159 50.564 60.5159 51.306 60.9734 51.7637L65.9742 56.7654C66.9054 57.6969 66.9598 59.2102 66.096 60.138C65.6489 60.6174 65.0431 60.8877 64.3903 60.8991C63.7421 60.9151 63.1231 60.6624 62.6614 60.2005C62.2732 59.8124 62.0362 59.318 61.9759 58.7749C61.8435 57.5407 61.2579 56.3484 60.3271 55.4174L55.6379 50.7271C54.854 49.943 53.865 49.4144 52.7773 49.1984L52.0107 49.0462C51.3798 48.9209 50.8059 48.6141 50.3509 48.1593L49.7412 47.5496L53.2507 44.0393L57.122 47.9115C57.5795 48.3691 58.3212 48.3693 58.779 47.9115C59.2365 47.4538 59.2365 46.7118 58.779 46.2541L54.0793 41.5532C54.0773 41.5512 54.075 41.5494 54.0729 41.5474L36.5659 24.0365C36.0848 23.5555 35.3864 23.3924 34.7418 23.6112C34.0978 23.8298 33.6425 24.3846 33.5537 25.0591L33.0489 28.8944C32.6646 31.8127 33.6778 34.7974 35.7584 36.8785L47.2553 48.378C47.2568 48.3796 47.2586 48.3809 47.2601 48.3824L48.6937 49.8165C49.4778 50.6007 50.4668 51.1293 51.5543 51.3451L52.3207 51.4973C52.9518 51.6226 53.5257 51.9293 53.9806 52.3843L58.6698 57.0746C59.2235 57.6285 59.5703 58.3212 59.6462 59.029C59.869 61.3684 61.9934 63.2888 64.3457 63.2432C64.374 63.2432 64.4023 63.243 64.4307 63.2426C65.7248 63.2201 66.9246 62.6854 67.8101 61.736C69.5534 59.8634 69.4746 56.9521 67.6311 55.108ZM35.877 25.3651C35.877 25.3657 35.8768 25.3662 35.8768 25.3668L35.877 25.3651ZM35.3721 29.2005L35.7261 26.5113L51.5932 42.3821L48.0839 45.8923L37.4154 35.2215C35.8465 33.6518 35.0826 31.4012 35.3721 29.2005Z" fill="#D5B471"/>
<path d="M45.5093 26.5755C45.1181 27.0909 45.2187 27.8261 45.734 28.2175C46.2448 28.6066 46.9823 28.5111 47.3757 27.9927C50.9018 23.3472 55.0531 19.5995 59.7142 16.8537C60.2718 16.5253 60.4576 15.807 60.1293 15.2492C59.8009 14.6914 59.0823 14.5058 58.5251 14.8342C53.5999 17.7356 49.2207 21.6859 45.5093 26.5755Z" fill="#D5B471"/>
<path d="M42.9425 24.0143C43.4533 24.4034 44.1908 24.3079 44.5842 23.7895C48.1103 19.144 52.2615 15.3963 56.9226 12.6506C57.4803 12.3221 57.6661 11.6038 57.3378 11.046C57.0094 10.4882 56.2908 10.3027 55.7336 10.631C50.8084 13.5323 46.4292 17.4826 42.7176 22.3721C42.3264 22.8877 42.4272 23.6229 42.9425 24.0143Z" fill="#D5B471"/>
<path d="M41.5172 45.4436C41.5431 44.7969 41.0399 44.2516 40.3933 44.2256C39.7477 44.1986 39.2017 44.7031 39.1758 45.3497C38.7811 55.2097 40.4263 62.5374 40.4964 62.8444C40.638 63.4797 41.2852 63.8708 41.8994 63.7253C42.53 63.5813 42.9247 62.953 42.781 62.3222C42.7644 62.2499 41.1356 54.9731 41.5172 45.4436Z" fill="#D5B471"/>
<path d="M36.5275 45.1504C36.5534 44.5037 36.0501 43.9584 35.4036 43.9324C34.7623 43.9091 34.212 44.4099 34.1861 45.0565C33.7914 54.9165 35.4365 62.244 35.5067 62.5512C35.6482 63.1866 36.2957 63.5779 36.9101 63.4323C37.5409 63.288 37.9353 62.6596 37.7912 62.0285C37.7745 61.9565 36.1451 54.7013 36.5275 45.1504Z" fill="#D5B471"/>
</svg>
