<svg width="24" height="24" viewBox="0 0 24 24" fill="none" xmlns="http://www.w3.org/2000/svg">
<g clip-path="url(#clip0_583_343)">
<path d="M2.57146 23.1431C2.11681 23.1431 1.68077 22.9625 1.35928 22.641C1.03779 22.3195 0.857178 21.8835 0.857178 21.4289V2.57171C0.857178 2.11705 1.03779 1.68102 1.35928 1.35952C1.68077 1.03803 2.11681 0.857422 2.57146 0.857422H21.4286C21.8833 0.857422 22.3193 1.03803 22.6408 1.35952C22.9623 1.68102 23.1429 2.11705 23.1429 2.57171V21.4289C23.1429 21.8835 22.9623 22.3195 22.6408 22.641C22.3193 22.9625 21.8833 23.1431 21.4286 23.1431" stroke="white" stroke-width="1.5" stroke-linecap="round" stroke-linejoin="round"/>
<path d="M0.857178 6H23.1429" stroke="white" stroke-width="1.5" stroke-linecap="round" stroke-linejoin="round"/>
<path d="M11.0573 12.6346C11.131 12.4445 11.2606 12.2812 11.4288 12.166C11.5971 12.0509 11.7962 11.9893 12.0001 11.9893C12.204 11.9893 12.4031 12.0509 12.5714 12.166C12.7396 12.2812 12.8692 12.4445 12.943 12.6346L14.0401 15.4289H16.9715C17.1632 15.4435 17.347 15.5116 17.5019 15.6253C17.6569 15.7391 17.7769 15.894 17.8483 16.0725C17.9197 16.251 17.9396 16.4459 17.9059 16.6352C17.8721 16.8244 17.786 17.0004 17.6573 17.1432L15.0687 19.4746L16.1658 21.6689C16.2651 21.8615 16.2988 22.0814 16.2617 22.2949C16.2245 22.5084 16.1186 22.704 15.9601 22.8518C15.8027 23.0014 15.6025 23.0984 15.3875 23.1291C15.1724 23.1598 14.9532 23.1228 14.7601 23.0232L12.0001 21.5146L9.24011 23.0232C9.04706 23.1228 8.82778 23.1598 8.61274 23.1291C8.39769 23.0984 8.19755 23.0014 8.04011 22.8518C7.88159 22.704 7.7757 22.5084 7.73856 22.2949C7.70143 22.0814 7.73508 21.8615 7.8344 21.6689L8.93154 19.4746L6.34297 17.1432C6.21425 17.0004 6.12812 16.8244 6.09436 16.6352C6.06059 16.4459 6.08054 16.251 6.15194 16.0725C6.22333 15.894 6.34332 15.7391 6.49829 15.6253C6.65325 15.5116 6.837 15.4435 7.02868 15.4289H9.96011L11.0573 12.6346Z" stroke="white" stroke-width="1.5" stroke-linecap="round" stroke-linejoin="round"/>
</g>
<defs>
<clipPath id="clip0_583_343">
<rect width="24" height="24" fill="white"/>
</clipPath>
</defs>
</svg>
