<svg width="170" height="170" viewBox="0 0 170 170" fill="none" xmlns="http://www.w3.org/2000/svg">
<circle cx="85" cy="85" r="85" fill="#6D1731"/>
<path d="M93.541 23.7458L85.9611 23.239L86.6457 13L88.938 13.1533L88.3913 21.3292L93.6789 21.6827L93.541 23.7458Z" fill="white"/>
<path d="M97.6123 24.7646C95.017 24.2305 94.1437 22.4713 94.6347 20.0861C95.1318 17.6708 96.8869 16.4371 99.2422 16.9218C101.507 17.3881 102.565 19.0131 102.16 20.9783C102.074 21.3983 101.924 21.821 101.827 22.0668L96.6511 21.0015C96.48 22.0609 96.8136 22.5674 98.0437 22.8206C98.9438 23.0059 99.374 22.8911 99.4697 22.4261L99.4883 22.3361L101.709 22.793L101.678 22.9431C101.347 24.5482 99.7725 25.2093 97.6123 24.7646ZM98.7874 18.7516C97.7073 18.5293 97.2008 18.8629 96.9471 19.6394L100.052 20.2786C100.258 19.5078 99.8375 18.9677 98.7874 18.7516Z" fill="white"/>
<path d="M104.576 26.6408C103.292 26.1823 102.539 25.1488 103.008 23.8363C103.41 22.7113 104.465 22.3074 106.047 22.6125L108.662 23.1237L108.745 22.8929C109.049 22.0419 108.644 21.7184 107.793 21.4144C106.913 21.1001 106.479 21.2216 106.216 21.9572L106.16 22.1159L104.097 21.3791L104.154 21.2205C104.772 19.4896 106.521 18.8293 108.569 19.561C110.703 20.3235 111.411 21.8937 110.721 23.8264L109.185 28.1247L107.181 27.4085L107.531 26.4277L107.444 26.3968C106.864 26.7913 105.917 27.12 104.576 26.6408ZM105.133 24.4C104.993 24.7894 105.25 25.0274 105.885 25.2541C106.764 25.5684 107.756 25.6622 108.157 24.5372L105.967 24.1126C105.494 24.025 105.241 24.0971 105.133 24.4Z" fill="white"/>
<path d="M112.514 29.781L110.481 28.7448L113.979 21.8806L115.876 22.8472L115.312 23.9526L115.394 23.9943C116.09 23.4722 116.982 23.2392 117.951 23.733C119.384 24.4631 119.374 25.7988 118.672 27.1771L118.352 27.8048L116.318 26.7687L116.506 26.4002C116.882 25.6633 116.768 25.3131 116.126 24.9863C115.499 24.6664 115.087 24.7317 114.705 25.4823L112.514 29.781Z" fill="white"/>
<path d="M118.877 33.4343L116.999 32.1377L121.376 25.7979L123.128 27.0075L122.363 28.1166L122.438 28.1689C123.274 27.6854 124.312 27.6385 125.421 28.4043C127.072 29.5442 127.021 31.1281 126.09 32.4767L123.314 36.4974L121.423 35.1921L123.938 31.5496C124.547 30.6673 124.475 30.152 123.517 29.4907C122.61 28.8641 122.019 28.8843 121.357 29.8422L118.877 33.4343Z" fill="white"/>
<path d="M128.451 41.1018L126.909 39.3987L134.517 32.5117L136.685 34.9075L134.334 39.4534L132.936 41.8345L133.039 41.9481L135.537 40.7819L140.242 38.8363L142.411 41.2321L134.803 48.119L133.261 46.4158L136.861 43.1574L138.408 41.9222L138.295 41.7973L136.406 42.701L132.314 44.3193L130.443 42.2527L132.459 38.3409L133.536 36.5401L133.433 36.4266L132.05 37.8434L128.451 41.1018Z" fill="white"/>
<path d="M137.382 52.7289C136.074 50.6204 136.626 48.5474 138.696 47.2637C140.778 45.9719 142.881 46.3979 144.189 48.5064C145.489 50.6019 144.92 52.6489 142.838 53.9407C140.768 55.2244 138.682 54.8244 137.382 52.7289ZM139.1 51.6632C139.754 52.7175 140.396 52.8235 141.659 52.0404C142.934 51.2492 143.125 50.6264 142.471 49.5721C141.809 48.5049 141.166 48.3988 139.891 49.19C138.628 49.9731 138.438 50.5959 139.1 51.6632Z" fill="white"/>
<path d="M141.043 59.2292L140.106 57.1484L147.13 53.9848L148.005 55.9259L146.873 56.4354L146.911 56.5192C147.781 56.5475 148.622 56.9244 149.069 57.9159C149.729 59.3823 148.885 60.4175 147.475 61.0527L146.832 61.3421L145.895 59.2612L146.272 59.0914C147.026 58.7518 147.157 58.4075 146.861 57.7511C146.572 57.1087 146.21 56.9021 145.442 57.248L141.043 59.2292Z" fill="white"/>
<path d="M143.947 67.363C143.182 64.8261 144.314 63.2211 146.646 62.5182C149.007 61.8064 150.927 62.7632 151.621 65.0655C152.288 67.2798 151.362 68.9828 149.441 69.562C149.031 69.6858 148.588 69.7553 148.325 69.7865L146.8 64.7273C145.787 65.0807 145.5 65.6151 145.862 66.8176C146.128 67.6975 146.433 68.0213 146.888 67.8842L146.976 67.8577L147.63 70.028L147.483 70.0722C145.914 70.5452 144.584 69.4746 143.947 67.363ZM149.795 65.536C149.477 64.4802 148.942 64.1933 148.139 64.3397L149.054 67.3752C149.83 67.1893 150.105 66.5625 149.795 65.536Z" fill="white"/>
<path d="M152.651 76.8993L151.245 76.2345L152.045 74.7968L153.349 75.6434L153.481 75.5814L153.683 74.0456L155.294 74.3619L154.86 75.8946L154.979 75.9883L156.503 75.6981L156.697 77.3254L155.149 77.4026L155.055 77.5218L155.821 78.8956L154.328 79.5678L153.785 78.1211L153.642 78.0919L152.574 79.2223L151.443 78.0156L152.669 77.0514L152.651 76.8993Z" fill="white"/>
<path d="M146.364 92.5317L146.746 84.9445L156.995 85.4608L156.88 87.7553L148.696 87.343L148.429 92.6357L146.364 92.5317Z" fill="white"/>
<path d="M145.41 96.6399C145.901 94.0362 147.646 93.1344 150.039 93.5863C152.462 94.044 153.724 95.7788 153.278 98.1417C152.849 100.414 151.241 101.498 149.27 101.125C148.848 101.046 148.423 100.903 148.176 100.81L149.156 95.6174C148.094 95.4636 147.593 95.8054 147.36 97.0395C147.19 97.9425 147.312 98.3708 147.778 98.4589L147.868 98.476L147.448 100.703L147.297 100.675C145.687 100.371 145 98.8071 145.41 96.6399ZM151.441 97.7167C151.646 96.6331 151.304 96.1321 150.523 95.8912L149.935 99.0065C150.709 99.1995 151.242 98.7703 151.441 97.7167Z" fill="white"/>
<path d="M143.651 103.623C144.088 102.332 145.109 101.562 146.429 102.009C147.561 102.392 147.982 103.44 147.703 105.028L147.235 107.65L147.467 107.729C148.323 108.019 148.64 107.609 148.93 106.753C149.229 105.868 149.101 105.436 148.361 105.186L148.201 105.132L148.904 103.057L149.063 103.111C150.804 103.701 151.493 105.438 150.796 107.498C150.069 109.645 148.51 110.379 146.566 109.72L142.243 108.256L142.926 106.24L143.913 106.574L143.942 106.487C143.538 105.913 143.194 104.972 143.651 103.623ZM145.901 104.142C145.509 104.01 145.275 104.27 145.059 104.908C144.759 105.793 144.682 106.786 145.813 107.169L146.202 104.972C146.281 104.498 146.205 104.245 145.901 104.142Z" fill="white"/>
<path d="M140.643 111.609L141.646 109.559L148.567 112.942L147.632 114.855L146.517 114.31L146.477 114.393C147.01 115.08 147.258 115.968 146.78 116.945C146.074 118.39 144.738 118.402 143.349 117.722L142.716 117.413L143.718 115.363L144.09 115.544C144.833 115.907 145.181 115.788 145.497 115.141C145.807 114.508 145.734 114.098 144.978 113.728L140.643 111.609Z" fill="white"/>
<path d="M137.095 118.034L138.361 116.135L144.771 120.407L143.591 122.179L142.469 121.431L142.418 121.508C142.915 122.336 142.979 123.373 142.232 124.494C141.119 126.164 139.535 126.139 138.171 125.23L134.105 122.52L135.379 120.608L139.063 123.063C139.955 123.658 140.469 123.577 141.114 122.608C141.726 121.691 141.696 121.1 140.727 120.455L137.095 118.034Z" fill="white"/>
<path d="M129.585 127.732L131.263 126.162L138.273 133.656L135.913 135.864L131.33 133.587L128.926 132.228L128.814 132.333L130.021 134.811L132.043 139.484L129.683 141.692L122.673 134.198L124.351 132.629L127.668 136.174L128.928 137.701L129.051 137.586L128.116 135.712L126.431 131.647L128.467 129.742L132.411 131.694L134.23 132.741L134.341 132.637L132.902 131.277L129.585 127.732Z" fill="white"/>
<path d="M118.105 136.854C120.192 135.512 122.274 136.03 123.591 138.078C124.917 140.139 124.526 142.249 122.439 143.591C120.365 144.925 118.309 144.39 116.983 142.329C115.666 140.281 116.031 138.188 118.105 136.854ZM119.199 138.554C118.156 139.225 118.06 139.87 118.864 141.119C119.676 142.381 120.302 142.562 121.345 141.891C122.401 141.211 122.497 140.567 121.685 139.305C120.881 138.055 120.255 137.875 119.199 138.554Z" fill="white"/>
<path d="M111.673 140.616L113.738 139.644L117.018 146.615L115.091 147.522L114.563 146.399L114.48 146.438C114.466 147.308 114.103 148.156 113.119 148.619C111.664 149.304 110.615 148.477 109.957 147.077L109.657 146.44L111.722 145.468L111.898 145.842C112.25 146.591 112.596 146.715 113.248 146.409C113.885 146.109 114.086 145.744 113.727 144.981L111.673 140.616Z" fill="white"/>
<path d="M103.585 143.657C106.109 142.85 107.732 143.955 108.474 146.274C109.225 148.623 108.3 150.559 106.009 151.291C103.806 151.995 102.088 151.097 101.477 149.186C101.347 148.778 101.27 148.336 101.234 148.074L106.267 146.465C105.897 145.458 105.358 145.18 104.162 145.562C103.287 145.842 102.968 146.153 103.112 146.605L103.14 146.693L100.981 147.383L100.935 147.237C100.436 145.676 101.484 144.328 103.585 143.657ZM105.509 149.473C106.559 149.138 106.837 148.599 106.677 147.797L103.657 148.763C103.856 149.535 104.487 149.8 105.509 149.473Z" fill="white"/>
<path d="M94.1401 150.746L94.7818 149.329L96.2324 150.105L95.4072 151.424L95.4713 151.554L97.0103 151.731L96.7204 153.347L95.1808 152.938L95.089 153.059L95.4041 154.577L93.7803 154.799L93.6777 153.251L93.557 153.16L92.1959 153.948L91.4993 152.466L92.937 151.899L92.9639 151.756L91.8161 150.707L93.0041 149.556L93.9883 150.767L94.1401 150.746Z" fill="white"/>
<path d="M78.4689 146.487L86.0614 146.744L85.7135 157L83.4174 156.922L83.6952 148.733L78.3988 148.553L78.4689 146.487Z" fill="white"/>
<path d="M74.3201 145.598C76.9314 146.047 77.8616 147.777 77.4487 150.177C77.0305 152.607 75.3166 153.897 72.9467 153.489C70.6675 153.097 69.5578 151.508 69.898 149.53C69.9708 149.108 70.1064 148.68 70.1959 148.431L75.4034 149.327C75.54 148.263 75.19 147.768 73.9523 147.555C73.0466 147.399 72.6204 147.528 72.5399 147.996L72.5243 148.086L70.2903 147.702L70.3163 147.551C70.5942 145.936 72.1465 145.224 74.3201 145.598ZM73.3417 151.646C74.4284 151.833 74.9238 151.483 75.152 150.698L72.0275 150.161C71.8471 150.938 72.285 151.464 73.3417 151.646Z" fill="white"/>
<path d="M67.3207 143.957C68.6189 144.373 69.4057 145.381 68.9805 146.709C68.6161 147.846 67.575 148.285 65.9833 148.032L63.353 147.608L63.2782 147.841C63.0025 148.702 63.4179 149.012 64.2785 149.287C65.1682 149.572 65.5977 149.437 65.836 148.693L65.8874 148.532L67.9732 149.2L67.9218 149.361C67.3611 151.111 65.6355 151.829 63.5643 151.165C61.4055 150.474 60.6463 148.928 61.2724 146.973L62.6648 142.627L64.6922 143.276L64.3745 144.268L64.462 144.296C65.0287 143.883 65.9642 143.523 67.3207 143.957ZM66.8386 146.215C66.9648 145.822 66.7005 145.592 66.0587 145.387C65.169 145.102 64.1753 145.041 63.8109 146.178L66.0141 146.53C66.4896 146.602 66.7405 146.522 66.8386 146.215Z" fill="white"/>
<path d="M59.2928 141.085L61.3593 142.053L58.0909 149.029L56.163 148.126L56.6893 147.003L56.6061 146.964C55.928 147.509 55.0439 147.771 54.0592 147.31C52.6029 146.627 52.5689 145.292 53.2252 143.891L53.5241 143.253L55.5906 144.221L55.4152 144.596C55.0643 145.345 55.1896 145.691 55.8414 145.996C56.4794 146.295 56.8885 146.216 57.2459 145.454L59.2928 141.085Z" fill="white"/>
<path d="M52.8038 137.637L54.7233 138.872L50.5564 145.352L48.7657 144.2L49.4947 143.067L49.4174 143.017C48.5974 143.527 47.5621 143.608 46.4284 142.879C44.7408 141.794 44.7401 140.209 45.6265 138.831L48.2691 134.721L50.2015 135.964L47.8074 139.687C47.2275 140.589 47.3167 141.101 48.2958 141.731C49.2233 142.328 49.8132 142.288 50.4428 141.309L52.8038 137.637Z" fill="white"/>
<path d="M42.9864 130.29L44.5831 131.942L37.2046 139.074L34.9586 136.751L37.1601 132.13L38.4795 129.705L38.373 129.595L35.9147 130.842L31.2755 132.94L29.0295 130.617L36.408 123.485L38.0047 125.137L34.5137 128.511L33.0079 129.796L33.125 129.917L34.9828 128.952L39.0203 127.201L40.9576 129.205L39.0703 133.181L38.0534 135.016L38.1599 135.126L39.4954 133.665L42.9864 130.29Z" fill="white"/>
<path d="M33.6764 118.958C35.0527 121.023 34.5684 123.113 32.5421 124.464C30.503 125.823 28.3876 125.466 27.0113 123.401C25.6435 121.35 26.1448 119.285 28.1838 117.926C30.2102 116.575 32.3086 116.907 33.6764 118.958ZM31.9942 120.08C31.3061 119.047 30.6604 118.962 29.4242 119.787C28.1753 120.619 28.0053 121.248 28.6935 122.28C29.3901 123.325 30.0358 123.41 31.2847 122.577C32.5209 121.753 32.6908 121.125 31.9942 120.08Z" fill="white"/>
<path d="M29.8106 112.594L30.8163 114.643L23.9007 118.038L22.9625 116.127L24.0761 115.58L24.0356 115.498C23.1657 115.498 22.312 115.149 21.8328 114.173C21.1241 112.73 21.9333 111.667 23.3219 110.985L23.9543 110.675L24.96 112.723L24.5888 112.906C23.8464 113.27 23.7274 113.619 24.0446 114.265C24.3551 114.897 24.7236 115.092 25.4798 114.72L29.8106 112.594Z" fill="white"/>
<path d="M26.6349 104.554C27.4834 107.064 26.4053 108.706 24.0983 109.486C21.7622 110.275 19.8114 109.382 19.0414 107.104C18.3009 104.913 19.1703 103.181 21.071 102.538C21.4773 102.401 21.9177 102.317 22.1791 102.277L23.8711 107.283C24.8721 106.896 25.141 106.352 24.7389 105.163C24.4446 104.292 24.1285 103.978 23.6787 104.13L23.5916 104.16L22.8657 102.012L23.0108 101.963C24.5634 101.439 25.9287 102.465 26.6349 104.554ZM20.8506 106.574C21.2038 107.618 21.7474 107.887 22.5458 107.715L21.5306 104.711C20.7614 104.922 20.5073 105.558 20.8506 106.574Z" fill="white"/>
<path d="M20.1506 95.781L21.5777 96.3994L20.8253 97.8625L19.4939 97.059L19.3646 97.1253L19.213 98.6669L17.5923 98.4035L17.9756 96.8574L17.8534 96.7676L16.3404 97.1075L16.0927 95.4875L17.638 95.3596L17.7278 95.2374L16.9174 93.8894L18.3876 93.1687L18.9779 94.5969L19.1211 94.6215L20.1515 93.4567L21.3219 94.6257L20.1274 95.6296L20.1506 95.781Z" fill="white"/>
<path d="M23.3929 79.5054L23.2603 87.1011L13 86.9219L13.0401 84.6248L21.233 84.7679L21.3256 79.4693L23.3929 79.5054Z" fill="white"/>
<path d="M24.2173 75.3157C23.8106 77.934 22.0963 78.8922 19.6899 78.5185C17.2532 78.1401 15.9351 76.4475 16.3041 74.0713C16.659 71.7859 18.2303 70.6505 20.213 70.9584C20.6368 71.0242 21.0663 71.1529 21.3165 71.2382L20.5056 76.4597C21.5721 76.5789 22.0617 76.2209 22.2544 74.9799C22.3955 74.0718 22.2598 73.6477 21.7906 73.5748L21.6998 73.5607L22.0477 71.3208L22.199 71.3443C23.8185 71.5958 24.5557 73.1363 24.2173 75.3157ZM18.1539 74.4361C17.9847 75.5258 18.3427 76.0154 19.1307 76.2307L19.6172 73.0978C18.8373 72.9302 18.3185 73.3766 18.1539 74.4361Z" fill="white"/>
<path d="M25.7405 68.3011C25.3462 69.6059 24.3515 70.4094 23.0173 70.0063C21.8737 69.6607 21.418 68.6271 21.6441 67.0314L22.0248 64.3944L21.7902 64.3235C20.9252 64.0622 20.6222 64.4826 20.3608 65.3476C20.0906 66.242 20.2335 66.6692 20.9813 66.8951L21.1425 66.9438L20.5091 69.0404L20.3478 68.9917C18.5884 68.4601 17.8421 66.7467 18.4712 64.6647C19.1268 62.4948 20.6599 61.71 22.6245 62.3036L26.9937 63.6237L26.3779 65.6616L25.381 65.3604L25.3544 65.4484C25.7773 66.0082 26.1525 66.9375 25.7405 68.3011ZM23.4748 67.8565C23.8707 67.9761 24.0956 67.7081 24.2906 67.063C24.5608 66.1686 24.6053 65.1741 23.4617 64.8285L23.1463 67.0373C23.0823 67.5139 23.1669 67.7635 23.4748 67.8565Z" fill="white"/>
<path d="M28.4777 60.232L27.5439 62.3144L20.5143 59.1623L21.3853 57.2197L22.5173 57.7273L22.5549 57.6434C21.9989 56.9744 21.7218 56.0949 22.1668 55.1026C22.8248 53.6352 24.1593 53.5789 25.5708 54.2119L26.2137 54.5001L25.2799 56.5825L24.9026 56.4133C24.1479 56.0749 23.8038 56.2059 23.5093 56.8628C23.221 57.5057 23.3067 57.9134 24.0754 58.2581L28.4777 60.232Z" fill="white"/>
<path d="M31.8196 53.6778L30.6169 55.6173L24.0696 51.5572L25.1915 49.7479L26.337 50.4582L26.3854 50.3801C25.8614 49.5685 25.7636 48.5347 26.474 47.3892C27.5314 45.6841 29.1158 45.6574 30.5086 46.5211L34.6609 49.096L33.4501 51.0485L29.6883 48.7157C28.7772 48.1507 28.2661 48.2483 27.6526 49.2375C27.0715 50.1747 27.1206 50.7639 28.1099 51.3774L31.8196 53.6778Z" fill="white"/>
<path d="M39.0045 43.7449L37.3789 45.3684L30.1274 38.1074L32.4141 35.8237L37.0697 37.9495L39.5165 39.229L39.6249 39.1208L38.3376 36.6832L36.1638 32.0789L38.4504 29.7953L45.7019 37.0562L44.0763 38.6797L40.6454 35.2443L39.3359 33.7597L39.2167 33.8787L40.2119 35.7205L42.0288 39.7289L40.0564 41.6987L36.0504 39.8766L34.1991 38.8898L34.0907 38.9981L35.5736 40.3095L39.0045 43.7449Z" fill="white"/>
<path d="M50.1823 34.2498C48.1407 35.6598 46.043 35.2099 44.6591 33.206C43.2666 31.1895 43.5887 29.0685 45.6303 27.6585C47.6594 26.2572 49.7318 26.7246 51.1244 28.741C52.5083 30.7449 52.2114 32.8485 50.1823 34.2498ZM49.0335 32.5862C50.0543 31.8812 50.1286 31.2342 49.2844 30.0118C48.4314 28.7767 47.8 28.6171 46.7792 29.3221C45.7458 30.0358 45.6714 30.6828 46.5244 31.9179C47.3686 33.1403 48 33.2999 49.0335 32.5862Z" fill="white"/>
<path d="M56.4786 30.2816L54.447 31.321L50.9379 24.4625L52.8332 23.4928L53.3983 24.5973L53.4801 24.5554C53.4652 23.6856 53.7997 22.8263 54.7678 22.331C56.1995 21.5985 57.2754 22.3899 57.98 23.7671L58.3009 24.3943L56.2693 25.4338L56.0809 25.0656C55.7042 24.3293 55.3538 24.2161 54.713 24.544C54.0858 24.8649 53.8974 25.2365 54.2811 25.9865L56.4786 30.2816Z" fill="white"/>
<path d="M64.4713 26.9718C61.9755 27.8616 60.3163 26.8109 59.4985 24.517C58.6704 22.1943 59.5307 20.229 61.7957 19.4215C63.9742 18.6448 65.721 19.4855 66.3948 21.3754C66.5388 21.7793 66.6303 22.2183 66.6745 22.479L61.6972 24.2534C62.1005 25.2479 62.6485 25.5078 63.8315 25.0861C64.6971 24.7775 65.0053 24.4562 64.8459 24.009L64.815 23.9224L66.9502 23.1612L67.0016 23.3054C67.552 24.8491 66.5487 26.2312 64.4713 26.9718ZM62.3562 21.2217C61.3175 21.592 61.0576 22.14 61.2436 22.9355L64.2299 21.8708C64.0058 21.1052 63.3661 20.8617 62.3562 21.2217Z" fill="white"/>
<path d="M75.4326 20.1547L74.8376 21.5917L73.3624 20.8633L74.1441 19.5189L74.0757 19.3907L72.5318 19.2643L72.7687 17.6395L74.3209 17.9976L74.4086 17.8739L74.0441 16.3667L75.6599 16.0925L75.813 17.6356L75.9366 17.7234L77.2712 16.891L78.0158 18.3493L76.5974 18.9628L76.5752 19.1064L77.7566 20.1177L76.6069 21.307L75.5836 20.1291L75.4326 20.1547Z" fill="white"/>
<circle cx="84.5" cy="84.5" r="25" fill="#D5B471"/>
<path d="M89.857 74.8571L85.5713 79.1426L95.2143 88.7852L99.5 84.4997L89.857 74.8571Z" fill="white"/>
<path fill-rule="evenodd" clip-rule="evenodd" d="M79.1427 83.4283L74.8569 79.1429L79.1427 74.8573L83.4287 79.1429L79.1427 83.4283Z" fill="white"/>
<path fill-rule="evenodd" clip-rule="evenodd" d="M84.5001 88.7862L80.2144 84.5007L84.5001 80.2148L88.7855 84.5007L84.5001 88.7862Z" fill="white"/>
<path d="M89.857 85.5719L85.5713 89.8574L89.857 94.1429L94.1427 89.8574L89.857 85.5719Z" fill="white"/>
<path fill-rule="evenodd" clip-rule="evenodd" d="M88.7855 95.2144L84.5001 90.9277L80.2144 95.2144L84.5001 99.5L88.7855 95.2144Z" fill="white"/>
<path fill-rule="evenodd" clip-rule="evenodd" d="M83.4288 89.8573L79.1428 94.1429L69.5 84.5007L73.7856 80.2148L83.4288 89.8573Z" fill="white"/>
<path fill-rule="evenodd" clip-rule="evenodd" d="M88.7855 73.7858L84.5001 69.5L80.2144 73.7858L84.5001 78.0714L88.7855 73.7858Z" fill="white"/>
</svg>
