<svg width="126" height="50" viewBox="0 0 126 50" fill="none" xmlns="http://www.w3.org/2000/svg">
<path d="M71.568 33H67.668V19.09H62.052V15.58H77.184V19.09H71.568V33ZM82.0964 18.44H78.2744L78.2224 15.58H82.0964V18.44ZM82.1744 33H78.2744V19.922H82.1744V33ZM88.2204 33H84.3464V15.58H88.2204V33ZM95.4019 33.26C91.9699 33.26 90.5399 30.998 90.5399 28.216V19.922H94.4139V27.436C94.4139 29.256 95.0379 29.906 96.9879 29.906C98.8599 29.906 99.6659 29.308 99.6659 27.332V19.922H103.54V33H99.9259V30.712H99.7959C99.0679 32.22 97.6899 33.26 95.4019 33.26ZM108.745 33H104.377L108.719 26.5V26.266L104.377 19.922H108.875L111.683 24.29H111.917L114.647 19.922H119.015L114.673 26.422V26.682L119.015 33H114.491L111.709 28.658H111.449L108.745 33Z" fill="#1D1D1D"/>
<path d="M125.001 33H120.113V28.398H125.001V33Z" fill="#6D1731"/>
<circle cx="25" cy="25" r="25" fill="#6D1731"/>
<path d="M30.357 15.3571L26.0713 19.6426L35.7143 29.2852L40 24.9997L30.357 15.3571Z" fill="white"/>
<path fill-rule="evenodd" clip-rule="evenodd" d="M19.6427 23.9284L15.3569 19.643L19.6427 15.3574L23.9287 19.643L19.6427 23.9284Z" fill="white"/>
<path fill-rule="evenodd" clip-rule="evenodd" d="M25.0001 29.2862L20.7144 25.0007L25.0001 20.7148L29.2855 25.0007L25.0001 29.2862Z" fill="white"/>
<path d="M30.357 26.0719L26.0713 30.3574L30.357 34.6429L34.6427 30.3574L30.357 26.0719Z" fill="white"/>
<path fill-rule="evenodd" clip-rule="evenodd" d="M29.2855 35.7144L25.0001 31.4277L20.7144 35.7144L25.0001 40L29.2855 35.7144Z" fill="white"/>
<path fill-rule="evenodd" clip-rule="evenodd" d="M23.9288 30.3573L19.6428 34.6429L10 25.0007L14.2856 20.7148L23.9288 30.3573Z" fill="white"/>
<path fill-rule="evenodd" clip-rule="evenodd" d="M29.2855 14.2858L25.0001 10L20.7144 14.2858L25.0001 18.5714L29.2855 14.2858Z" fill="white"/>
</svg>
