<svg width="130" height="130" viewBox="0 0 130 130" fill="none" xmlns="http://www.w3.org/2000/svg">
<circle cx="65" cy="65" r="65" fill="white" fill-opacity="0.08"/>
<circle cx="65" cy="65" r="35" fill="white" fill-opacity="0.08"/>
<path d="M71.428 53.4277L66.2852 58.5703L77.8568 70.1415L82.9996 64.9989L71.428 53.4277Z" fill="white"/>
<path fill-rule="evenodd" clip-rule="evenodd" d="M58.5716 63.7149L53.4287 58.5724L58.5716 53.4297L63.7148 58.5724L58.5716 63.7149Z" fill="white"/>
<path fill-rule="evenodd" clip-rule="evenodd" d="M65.0003 70.1431L59.8574 65.0004L65.0003 59.8574L70.1428 65.0004L65.0003 70.1431Z" fill="white"/>
<path d="M71.428 66.2871L66.2852 71.4297L71.428 76.5723L76.5708 71.4297L71.428 66.2871Z" fill="white"/>
<path fill-rule="evenodd" clip-rule="evenodd" d="M70.1428 77.8569L65.0003 72.7129L59.8574 77.8569L65.0003 82.9996L70.1428 77.8569Z" fill="white"/>
<path fill-rule="evenodd" clip-rule="evenodd" d="M63.7146 71.4284L58.5714 76.571L47 65.0004L52.1428 59.8574L63.7146 71.4284Z" fill="white"/>
<path fill-rule="evenodd" clip-rule="evenodd" d="M70.1426 52.143L65.0001 47L59.8572 52.143L65.0001 57.2857L70.1426 52.143Z" fill="white"/>
<path d="M70.1361 19.3524C69.2036 19.2416 68.3929 18.9311 67.704 18.421C67.0151 17.9108 66.5044 17.229 66.1718 16.3756C65.8392 15.5223 65.7408 14.5277 65.8767 13.3921C66.0136 12.247 66.3444 11.2987 66.869 10.5471C67.3988 9.79143 68.0584 9.24865 68.8478 8.9188C69.6424 8.58483 70.5013 8.47265 71.4244 8.58229C72.0366 8.655 72.5938 8.80922 73.0958 9.04495C73.5983 9.27598 74.0301 9.57952 74.3911 9.95556C74.7574 10.3275 75.0394 10.7655 75.237 11.2697C75.4352 11.7692 75.5334 12.3258 75.5316 12.9396L73.2851 12.6728C73.277 12.3815 73.2231 12.1133 73.1234 11.8682C73.0285 11.6238 72.8893 11.4097 72.7059 11.2261C72.5272 11.043 72.3133 10.8939 72.0644 10.7787C71.8208 10.6593 71.5459 10.5814 71.2398 10.5451C70.7029 10.4813 70.2133 10.5612 69.771 10.7847C69.3339 11.0041 68.9718 11.3561 68.6846 11.8408C68.4026 12.3213 68.2178 12.9276 68.1302 13.6597C68.041 14.4059 68.0788 15.0482 68.2437 15.5865C68.4091 16.1202 68.6789 16.5401 69.053 16.8464C69.4272 17.1526 69.8804 17.3373 70.4126 17.4005C70.7093 17.4357 70.9895 17.4286 71.2534 17.379C71.5173 17.3294 71.7571 17.2413 71.9728 17.1146C72.1886 16.9879 72.3753 16.8245 72.533 16.6243C72.696 16.4199 72.8179 16.1798 72.8986 15.9038L75.1451 16.1706C75.0308 16.6473 74.8316 17.0948 74.5475 17.5132C74.2681 17.9322 73.9119 18.2944 73.4789 18.6C73.0465 18.9008 72.5494 19.1226 71.9878 19.2653C71.4268 19.4033 70.8096 19.4324 70.1361 19.3524Z" fill="white"/>
<path d="M79.7214 21.5652C78.9646 21.3018 78.365 20.9129 77.9223 20.3984C77.4857 19.881 77.2183 19.2823 77.1201 18.6024C77.0279 17.9195 77.1163 17.1943 77.3853 16.4269C77.6574 15.6506 78.0421 15.0261 78.5394 14.5533C79.0427 14.0777 79.626 13.7751 80.2894 13.6456C80.9588 13.5131 81.6719 13.5786 82.4286 13.8419C83.1898 14.1069 83.7887 14.498 84.2253 15.0154C84.6679 15.5299 84.9353 16.1286 85.0275 16.8114C85.1258 17.4914 85.0389 18.2196 84.7667 18.9959C84.4977 19.7633 84.1116 20.3849 83.6082 20.8605C83.111 21.3332 82.5276 21.6358 81.8582 21.7682C81.1949 21.8978 80.4826 21.8301 79.7214 21.5652ZM80.3025 19.9503C80.6473 20.0703 80.9697 20.0748 81.2698 19.964C81.5715 19.8487 81.84 19.6418 82.0752 19.3432C82.315 19.0462 82.5107 18.6813 82.6624 18.2485C82.8157 17.8113 82.8905 17.4043 82.8869 17.0276C82.8878 16.6525 82.8055 16.3284 82.6399 16.0555C82.4743 15.7827 82.2191 15.5862 81.8743 15.4662C81.525 15.3447 81.1981 15.3385 80.8936 15.4478C80.5935 15.5586 80.3243 15.7603 80.0861 16.0528C79.8524 16.3469 79.6589 16.7126 79.5057 17.1499C79.354 17.5827 79.2769 17.9889 79.2744 18.3685C79.2765 18.7496 79.3595 19.0789 79.5235 19.3563C79.6936 19.6307 79.9533 19.8287 80.3025 19.9503Z" fill="white"/>
<path d="M89.2059 20.5723L86.881 24.5226L84.9847 23.4145L89.0083 16.5778L90.874 17.668L90.1578 18.8849L90.2253 18.9243C90.6183 18.6116 91.053 18.4383 91.5293 18.4043C92.0056 18.3704 92.4995 18.5028 93.0109 18.8017C93.4855 19.079 93.8376 19.4244 94.0671 19.8379C94.3006 20.2539 94.4029 20.7108 94.3737 21.2088C94.3446 21.7067 94.1728 22.2228 93.8585 22.7568L91.2996 27.1047L89.4033 25.9965L91.7642 21.985C92.009 21.5692 92.0925 21.1797 92.0148 20.8165C91.9395 20.4493 91.7116 20.1545 91.3311 19.9322C91.0775 19.7839 90.8189 19.7095 90.5553 19.7089C90.2941 19.7042 90.0471 19.7736 89.8143 19.9169C89.5815 20.0603 89.3787 20.2787 89.2059 20.5723Z" fill="white"/>
<path d="M100.849 24.6504L99.7953 25.9343L96.0894 22.9134L97.1435 21.6294L100.849 24.6504ZM99.1843 20.8567L100.886 22.2437L96.2008 27.9501C96.0326 28.155 95.9539 28.3442 95.9645 28.5177C95.9782 28.6877 96.086 28.8549 96.2879 29.0195C96.354 29.0734 96.4319 29.1277 96.5217 29.1826C96.6115 29.2375 96.6917 29.2815 96.7625 29.3148L95.9872 30.8077C95.7549 30.7099 95.5402 30.602 95.3429 30.484C95.1494 30.369 94.9682 30.2426 94.7993 30.1049C94.1862 29.6052 93.8373 29.0674 93.7525 28.4914C93.6707 27.9118 93.8581 27.344 94.3146 26.788L99.1843 20.8567Z" fill="white"/>
<path d="M98.3411 33.4878C98.0044 33.1157 97.7662 32.722 97.6265 32.3066C97.4935 31.8915 97.4811 31.4826 97.5893 31.0799C97.6975 30.6772 97.9453 30.3018 98.3327 29.9537C98.6638 29.6561 98.9926 29.4689 99.3189 29.392C99.6488 29.3119 99.9762 29.3137 100.301 29.3973C100.626 29.481 100.942 29.6227 101.251 29.8227C101.56 30.0226 101.862 30.2573 102.157 30.5268C102.496 30.8387 102.776 31.084 102.995 31.2626C103.214 31.4412 103.398 31.5493 103.547 31.5871C103.703 31.6253 103.843 31.5889 103.966 31.4782L103.993 31.4544C104.236 31.236 104.354 30.9895 104.348 30.7148C104.345 30.4436 104.219 30.1694 103.968 29.8921C103.704 29.6008 103.428 29.426 103.139 29.3676C102.856 29.3096 102.591 29.3411 102.343 29.4622L101.097 27.8421C101.526 27.5965 101.972 27.4688 102.436 27.4592C102.904 27.4465 103.368 27.554 103.83 27.7819C104.299 28.0101 104.746 28.3594 105.171 28.8297C105.467 29.1561 105.711 29.5032 105.903 29.8712C106.096 30.2391 106.216 30.6117 106.263 30.989C106.318 31.3665 106.28 31.7377 106.15 32.1025C106.021 32.4672 105.781 32.8063 105.433 33.1196L101.449 36.6994L100.043 35.1464L100.868 34.4057L100.83 34.3636C100.557 34.4366 100.279 34.4575 99.9951 34.4261C99.7148 34.3916 99.4341 34.3002 99.153 34.1519C98.8754 34.0004 98.6047 33.7791 98.3411 33.4878ZM99.8958 32.9403C100.112 33.1789 100.35 33.3468 100.61 33.4438C100.877 33.5412 101.138 33.568 101.392 33.5242C101.653 33.4807 101.885 33.3672 102.09 33.1836L102.718 32.6186C102.642 32.598 102.549 32.5547 102.438 32.4888C102.33 32.4264 102.217 32.3502 102.097 32.2604C101.977 32.1706 101.86 32.0792 101.744 31.9863C101.631 31.8901 101.528 31.8045 101.434 31.7294C101.232 31.5617 101.033 31.4344 100.84 31.3475C100.65 31.2574 100.465 31.2195 100.286 31.2337C100.114 31.2483 99.9509 31.3252 99.7959 31.4645C99.574 31.6639 99.478 31.8965 99.5079 32.1624C99.5378 32.4283 99.6671 32.6876 99.8958 32.9403Z" fill="white"/>
<path d="M104.368 41.3582C103.944 40.6693 103.728 39.9869 103.718 39.3109C103.712 38.6326 103.888 38.0011 104.246 37.4164C104.608 36.8294 105.133 36.3258 105.82 35.9058C106.515 35.4808 107.208 35.2407 107.897 35.1854C108.589 35.1341 109.235 35.2661 109.835 35.5813C110.435 35.8965 110.946 36.3965 111.367 37.0814C111.729 37.6696 111.938 38.2487 111.994 38.8188C112.053 39.3929 111.967 39.9275 111.738 40.4226C111.508 40.9176 111.138 41.3378 110.627 41.6831L109.541 39.9185C109.748 39.7479 109.904 39.5584 110.009 39.3499C110.115 39.1413 110.16 38.9221 110.147 38.692C110.133 38.4619 110.056 38.2321 109.914 38.0024C109.736 37.7124 109.501 37.5067 109.209 37.3855C108.924 37.2659 108.593 37.2383 108.215 37.3027C107.844 37.3687 107.444 37.5327 107.016 37.7946C106.587 38.0565 106.255 38.3397 106.02 38.6443C105.787 38.953 105.655 39.2635 105.625 39.5758C105.597 39.8922 105.672 40.1954 105.851 40.4855C106.049 40.8078 106.318 41.018 106.656 41.116C106.999 41.2116 107.366 41.1756 107.758 41.0081L108.844 42.7727C108.309 43.0608 107.767 43.201 107.217 43.1933C106.671 43.1832 106.152 43.0265 105.659 42.7233C105.171 42.4175 104.74 41.9625 104.368 41.3582Z" fill="white"/>
<path d="M115.879 46.4395L114.344 47.0818L112.49 42.6831L114.025 42.0407L115.879 46.4395ZM116.191 42.3106L117.042 44.3302L110.221 47.1851C109.976 47.2876 109.817 47.418 109.745 47.5763C109.677 47.7328 109.694 47.9309 109.795 48.1706C109.828 48.249 109.871 48.3334 109.925 48.4238C109.978 48.5141 110.029 48.5905 110.075 48.6529L108.689 49.6101C108.529 49.4153 108.39 49.2197 108.272 49.0234C108.155 48.8314 108.054 48.6352 107.969 48.4347C107.663 47.7071 107.607 47.069 107.803 46.5206C108.003 45.9704 108.436 45.5562 109.1 45.278L116.191 42.3106Z" fill="white"/>
<path d="M121.726 60.2775L122 62.4937L115.173 63.3337C114.405 63.4281 113.71 63.328 113.085 63.0334C112.466 62.7428 111.956 62.2913 111.555 61.6787C111.154 61.0661 110.9 60.3259 110.793 59.4582C110.685 58.5905 110.751 57.8109 110.99 57.1196C111.23 56.4282 111.614 55.8666 112.144 55.4348C112.678 55.0024 113.329 54.739 114.096 54.6447L120.924 53.8047L121.198 56.0139L114.553 56.8313C114.153 56.8805 113.806 57.0136 113.513 57.2307C113.225 57.4471 113.011 57.7258 112.871 58.0668C112.737 58.4072 112.696 58.7908 112.749 59.2176C112.802 59.6491 112.936 60.0136 113.149 60.3112C113.368 60.6081 113.643 60.8242 113.975 60.9596C114.313 61.099 114.681 61.1441 115.082 61.0949L121.726 60.2775Z" fill="white"/>
<path d="M116.557 73.3745L116.605 71.3652C116.86 71.3343 117.086 71.2133 117.285 71.0022C117.488 70.7915 117.606 70.4954 117.638 70.1139C117.666 69.7748 117.619 69.4839 117.497 69.2414C117.374 69.0035 117.194 68.8747 116.958 68.855C116.769 68.8393 116.6 68.8987 116.45 69.0333C116.305 69.173 116.18 69.421 116.074 69.7773L115.67 71.1878C115.45 71.9425 115.149 72.4936 114.767 72.8413C114.386 73.1889 113.909 73.3389 113.338 73.2913C112.813 73.2476 112.367 73.0587 112 72.7246C111.638 72.3909 111.368 71.9511 111.19 71.4051C111.017 70.8595 110.959 70.2452 111.016 69.5623C111.104 68.5168 111.393 67.7015 111.885 67.1164C112.376 66.5361 113.002 66.2254 113.762 66.1844L113.696 68.3344C113.369 68.3782 113.112 68.5181 112.926 68.7539C112.739 68.9898 112.63 69.3031 112.597 69.694C112.565 70.0755 112.615 70.3903 112.746 70.6384C112.877 70.8912 113.059 71.0272 113.29 71.0465C113.683 71.0792 113.976 70.7621 114.17 70.0953L114.568 68.7555C114.788 68.0008 115.103 67.4509 115.513 67.1056C115.922 66.7603 116.423 66.6123 117.014 66.6615C117.524 66.704 117.952 66.8795 118.297 67.1881C118.643 67.4967 118.894 67.9089 119.05 68.4246C119.206 68.9451 119.256 69.5421 119.2 70.2155C119.116 71.214 118.838 71.9804 118.364 72.5148C117.896 73.0544 117.293 73.3409 116.557 73.3745Z" fill="white"/>
<path d="M113.13 82.4613L114.973 83.2637L114.48 81.3172L115.856 81.0639L116.076 83.0557L117.517 81.6581L118.431 82.7307L116.808 83.9201L118.742 84.4689L118.273 85.7699L116.428 84.9742L116.921 86.9207L115.533 87.1625L115.311 85.1774L113.873 86.5684L112.97 85.5072L114.593 84.3178L112.662 83.7623L113.13 82.4613Z" fill="white"/>
<path d="M101.947 93.3996C102.507 92.6485 103.181 92.102 103.967 91.7601C104.754 91.4183 105.602 91.3157 106.51 91.4526C107.419 91.5894 108.333 91.9989 109.255 92.6811C110.184 93.3689 110.845 94.1264 111.238 94.9536C111.633 95.7874 111.778 96.6276 111.672 97.474C111.568 98.327 111.238 99.1253 110.684 99.8688C110.316 100.362 109.905 100.767 109.45 101.084C108.999 101.403 108.52 101.626 108.013 101.751C107.507 101.882 106.985 101.908 106.448 101.829C105.915 101.752 105.381 101.56 104.848 101.253L106.197 99.4434C106.455 99.5813 106.715 99.668 106.978 99.7037C107.238 99.7432 107.494 99.7293 107.745 99.662C107.993 99.5986 108.229 99.4879 108.453 99.33C108.678 99.1787 108.883 98.9798 109.067 98.7332C109.389 98.3008 109.563 97.8378 109.589 97.3443C109.615 96.8573 109.488 96.3692 109.209 95.8799C108.931 95.3972 108.495 94.9359 107.901 94.4962C107.296 94.048 106.718 93.7613 106.167 93.6361C105.62 93.5138 105.12 93.5382 104.668 93.7094C104.215 93.8806 103.829 94.1805 103.509 94.6092C103.331 94.8481 103.198 95.094 103.11 95.3468C103.022 95.5995 102.979 95.8507 102.982 96.1002C102.985 96.3497 103.035 96.5924 103.13 96.8283C103.227 97.0708 103.376 97.2956 103.576 97.5027L102.227 99.3121C101.868 98.9762 101.578 98.5815 101.355 98.1278C101.129 97.6779 100.991 97.1899 100.94 96.6636C100.893 96.1402 100.947 95.6002 101.102 95.0437C101.261 94.4901 101.543 93.942 101.947 93.3996Z" fill="white"/>
<path d="M95.2527 100.597C95.8572 100.073 96.4933 99.7463 97.1611 99.6181C97.8285 99.4965 98.4829 99.5617 99.1243 99.8135C99.7653 100.072 100.354 100.508 100.889 101.121C101.431 101.741 101.785 102.383 101.951 103.048C102.116 103.719 102.091 104.374 101.875 105.012C101.659 105.657 101.249 106.242 100.644 106.767C100.036 107.294 99.3985 107.619 98.7311 107.741C98.0633 107.869 97.409 107.804 96.768 107.545C96.1265 107.293 95.5348 106.857 94.9929 106.237C94.4571 105.624 94.1066 104.982 93.9414 104.311C93.7756 103.646 93.8009 102.991 94.017 102.346C94.2327 101.708 94.6446 101.125 95.2527 100.597ZM96.3726 101.9C96.0972 102.139 95.9334 102.416 95.8814 102.731C95.8324 103.049 95.8798 103.384 96.0235 103.735C96.1637 104.09 96.3848 104.44 96.6869 104.786C96.9922 105.135 97.3099 105.402 97.6401 105.585C97.9667 105.772 98.2899 105.861 98.6099 105.853C98.9298 105.845 99.2275 105.721 99.5029 105.482C99.7819 105.24 99.9492 104.96 100.005 104.643C100.057 104.328 100.014 103.995 99.8774 103.644C99.7368 103.296 99.5139 102.947 99.2086 102.598C98.9065 102.252 98.5906 101.984 98.2609 101.794C97.9276 101.607 97.5994 101.516 97.2764 101.52C96.9529 101.532 96.6516 101.658 96.3726 101.9Z" fill="white"/>
<path d="M91.4291 109.303L89.1316 105.336L91.0356 104.241L95.0117 111.105L93.1386 112.183L92.4308 110.961L92.3631 111C92.4417 111.495 92.3781 111.957 92.1723 112.387C91.9665 112.816 91.6069 113.178 91.0934 113.474C90.6169 113.748 90.1415 113.882 89.6673 113.876C89.189 113.873 88.7399 113.736 88.3198 113.465C87.8998 113.193 87.5344 112.789 87.2238 112.253L84.6952 107.888L86.5991 106.793L88.9322 110.82C89.174 111.238 89.4726 111.503 89.8278 111.615C90.1854 111.731 90.5552 111.68 90.9373 111.46C91.1919 111.313 91.3847 111.126 91.5155 110.898C91.6486 110.674 91.7102 110.426 91.7002 110.153C91.6902 109.881 91.5998 109.597 91.4291 109.303Z" fill="white"/>
<path d="M82.1 117.374L81.5026 115.825L85.9717 114.113L86.5691 115.662L82.1 117.374ZM86.2322 117.811L84.1802 118.597L81.5251 111.716C81.4298 111.468 81.3039 111.307 81.1472 111.23C80.9923 111.158 80.7931 111.168 80.5496 111.261C80.4699 111.292 80.3839 111.332 80.2916 111.383C80.1994 111.434 80.1212 111.481 80.0572 111.526L79.1395 110.115C79.3397 109.963 79.5402 109.83 79.7408 109.718C79.9369 109.607 80.1368 109.513 80.3405 109.435C81.0798 109.152 81.7215 109.116 82.2656 109.328C82.8115 109.544 83.2137 109.988 83.4724 110.658L86.2322 117.811Z" fill="white"/>
<path d="M75.6178 110.826C76.1092 110.72 76.5705 110.71 77.0016 110.796C77.4292 110.887 77.7913 111.08 78.0882 111.374C78.385 111.668 78.5886 112.069 78.6991 112.577C78.7935 113.011 78.7931 113.388 78.6977 113.708C78.6034 114.033 78.4391 114.316 78.2047 114.555C77.9704 114.794 77.6895 114.997 77.3619 115.165C77.0343 115.332 76.6799 115.476 76.2986 115.597C75.858 115.736 75.5054 115.856 75.241 115.956C74.9765 116.057 74.7908 116.162 74.6837 116.272C74.573 116.388 74.5352 116.527 74.5704 116.689L74.5779 116.723C74.6472 117.042 74.8029 117.267 75.045 117.398C75.2825 117.531 75.5843 117.558 75.9505 117.479C76.3353 117.396 76.625 117.244 76.8196 117.023C77.0105 116.807 77.115 116.562 77.1329 116.288L79.1631 116.016C79.1636 116.509 79.0526 116.959 78.8303 117.365C78.609 117.775 78.2843 118.123 77.8563 118.409C77.4246 118.701 76.8983 118.913 76.2771 119.047C75.846 119.14 75.4224 119.179 75.0063 119.162C74.5902 119.146 74.2061 119.064 73.854 118.918C73.4982 118.777 73.1938 118.56 72.9407 118.266C72.6876 117.973 72.5113 117.597 72.4119 117.14L71.276 111.916L73.3271 111.473L73.5622 112.554L73.6178 112.542C73.6897 112.27 73.8099 112.019 73.9783 111.79C74.1477 111.564 74.3669 111.367 74.6358 111.198C74.9058 111.033 75.2331 110.909 75.6178 110.826ZM75.3214 112.443C75.0062 112.511 74.7416 112.633 74.5277 112.81C74.3102 112.992 74.1573 113.204 74.069 113.446C73.9772 113.693 73.9604 113.95 74.0186 114.218L74.1979 115.043C74.2538 114.987 74.3379 114.928 74.4504 114.865C74.5583 114.803 74.681 114.742 74.8187 114.684C74.9564 114.625 75.0945 114.569 75.2332 114.514C75.3729 114.465 75.4987 114.418 75.6105 114.375C75.8575 114.283 76.0669 114.175 76.2389 114.051C76.4118 113.931 76.5366 113.791 76.6131 113.629C76.6859 113.473 76.7002 113.293 76.6561 113.09C76.5928 112.799 76.438 112.601 76.1916 112.494C75.9452 112.388 75.6552 112.371 75.3214 112.443Z" fill="white"/>
<path d="M65.7781 112.12C66.5888 112.096 67.2909 112.248 67.8843 112.575C68.4778 112.908 68.9401 113.374 69.2711 113.974C69.6023 114.579 69.7799 115.283 69.8038 116.086C69.828 116.898 69.6928 117.616 69.3982 118.24C69.0988 118.863 68.6627 119.356 68.0899 119.718C67.517 120.08 66.8276 120.273 66.0217 120.297C65.3295 120.318 64.7213 120.21 64.1971 119.975C63.6681 119.74 63.2452 119.4 62.9283 118.956C62.6114 118.511 62.4295 117.982 62.3828 117.369L64.4593 117.308C64.5051 117.571 64.5926 117.8 64.7218 117.995C64.8509 118.19 65.0191 118.339 65.2262 118.441C65.4333 118.544 65.6719 118.591 65.9422 118.583C66.2835 118.573 66.5794 118.472 66.8299 118.28C67.0759 118.093 67.2647 117.821 67.3963 117.462C67.5234 117.108 67.5795 116.681 67.5646 116.181C67.5497 115.68 67.4681 115.252 67.3199 114.897C67.167 114.542 66.9621 114.274 66.7052 114.092C66.4436 113.911 66.1421 113.825 65.8008 113.836C65.4215 113.847 65.105 113.974 64.8513 114.218C64.5977 114.467 64.4464 114.802 64.3973 115.225L62.3208 115.286C62.3359 114.68 62.4836 114.142 62.7637 113.67C63.044 113.203 63.4387 112.832 63.9477 112.557C64.4569 112.287 65.067 112.141 65.7781 112.12Z" fill="white"/>
<path d="M55.58 119.549L55.7822 117.902L60.5348 118.482L60.3325 120.128L55.58 119.549ZM59.0221 121.868L56.84 121.602L57.7391 114.284C57.7714 114.021 57.7364 113.819 57.6343 113.678C57.5316 113.542 57.3508 113.458 57.0918 113.427C57.0071 113.416 56.9121 113.412 56.8068 113.413C56.7015 113.415 56.61 113.42 56.5324 113.43L56.3869 111.755C56.6357 111.714 56.875 111.691 57.105 111.686C57.3303 111.68 57.5513 111.69 57.7678 111.716C58.554 111.812 59.1374 112.081 59.518 112.523C59.898 112.969 60.0442 113.549 59.9566 114.262L59.0221 121.868Z" fill="white"/>
<path d="M40.6209 117.74L38.5538 116.878L41.2113 110.555C41.5099 109.844 41.9425 109.292 42.5091 108.898C43.0695 108.507 43.716 108.29 44.4487 108.247C45.1814 108.205 45.9524 108.352 46.7618 108.69C47.5711 109.028 48.2175 109.472 48.701 110.022C49.1846 110.572 49.483 111.183 49.5963 111.856C49.7079 112.532 49.6143 113.226 49.3157 113.937L46.6582 120.26L44.5977 119.4L47.1837 113.247C47.3394 112.876 47.3955 112.51 47.352 112.149C47.3067 111.792 47.1701 111.468 46.9422 111.179C46.7125 110.893 46.3986 110.667 46.0005 110.501C45.598 110.333 45.2142 110.268 44.8489 110.305C44.4818 110.347 44.1568 110.477 43.874 110.698C43.585 110.92 43.3627 111.217 43.207 111.587L40.6209 117.74Z" fill="white"/>
<path d="M31.8496 106.8L33.5758 107.84C33.476 108.076 33.4687 108.332 33.5538 108.609C33.6362 108.889 33.8355 109.138 34.1518 109.355C34.4329 109.548 34.7095 109.652 34.9816 109.667C35.2498 109.679 35.4512 109.588 35.5858 109.394C35.6936 109.238 35.7259 109.062 35.683 108.866C35.6334 108.671 35.4799 108.439 35.2223 108.171L34.195 107.12C33.6474 106.554 33.317 106.02 33.2039 105.518C33.0908 105.015 33.1972 104.529 33.523 104.058C33.8219 103.626 34.208 103.334 34.6814 103.183C35.1521 103.036 35.6694 103.021 36.2332 103.139C36.7944 103.26 37.3581 103.516 37.9242 103.905C38.791 104.5 39.3569 105.156 39.6219 105.872C39.883 106.585 39.8424 107.281 39.5001 107.958L37.6609 106.832C37.7854 106.528 37.7914 106.236 37.6787 105.958C37.566 105.679 37.3476 105.429 37.0235 105.206C36.7073 104.989 36.4084 104.875 36.127 104.866C35.8417 104.853 35.6331 104.942 35.5012 105.133C35.2777 105.456 35.408 105.867 35.8922 106.366L36.861 107.376C37.4085 107.942 37.7308 108.488 37.8277 109.014C37.9247 109.54 37.8049 110.046 37.4683 110.532C37.1775 110.952 36.8119 111.235 36.3715 111.38C35.9311 111.525 35.4474 111.537 34.9204 111.416C34.3896 111.293 33.8449 111.039 33.2866 110.655C32.4588 110.086 31.9299 109.465 31.6998 108.79C31.4631 108.116 31.5131 107.453 31.8496 106.8Z" fill="white"/>
<path d="M25.6332 99.3217L24.021 100.519L25.9621 101.057L25.5011 102.373L23.6559 101.577L24.1605 103.517L22.7729 103.776L22.5399 101.782L21.1035 103.184L20.2015 102.134L21.809 100.931L19.8679 100.394L20.3444 99.073L22.1849 99.8641L21.6849 97.9299L23.0571 97.6742L23.2901 99.6682L24.7312 98.2714L25.6332 99.3217Z" fill="white"/>
<path d="M21.6177 84.2172C21.9954 85.074 22.1386 85.9275 22.0473 86.778C21.956 87.6284 21.6259 88.413 21.0569 89.1318C20.4879 89.8505 19.678 90.4399 18.6271 90.8999C17.5676 91.3637 16.5797 91.5613 15.6636 91.4926C14.7412 91.4214 13.937 91.1308 13.251 90.6206C12.5588 90.108 12.0258 89.4277 11.6519 88.5796C11.4039 88.0171 11.2543 87.4606 11.2033 86.9099C11.1478 86.3612 11.191 85.8364 11.3329 85.3356C11.4684 84.8323 11.704 84.3678 12.0396 83.9422C12.3708 83.5185 12.8022 83.1515 13.3338 82.8414L14.2437 84.9054C13.996 85.0603 13.7915 85.2427 13.6302 85.4527C13.467 85.6583 13.3526 85.8865 13.287 86.1372C13.2195 86.3835 13.1991 86.6428 13.2259 86.915C13.2464 87.1848 13.3186 87.4603 13.4426 87.7415C13.6601 88.2348 13.9777 88.6146 14.3956 88.8808C14.8071 89.1445 15.2954 89.2767 15.8603 89.2772C16.4189 89.2752 17.0369 89.126 17.7143 88.8295C18.4048 88.5273 18.9409 88.1687 19.3227 87.7538C19.7001 87.3408 19.9262 86.896 20.0009 86.4194C20.0757 85.9427 20.0053 85.4599 19.7898 84.9709C19.6696 84.6983 19.5211 84.4614 19.3443 84.26C19.1674 84.0587 18.9695 83.8976 18.7504 83.7767C18.5313 83.6558 18.2952 83.5784 18.042 83.5447C17.7826 83.5086 17.5131 83.5259 17.2335 83.5967L16.3235 81.5327C16.7937 81.3889 17.2818 81.3327 17.7878 81.3641C18.2919 81.3912 18.7859 81.5131 19.2699 81.7296C19.7496 81.9481 20.1937 82.2622 20.6023 82.6718C21.0065 83.0833 21.3449 83.5985 21.6177 84.2172Z" fill="white"/>
<path d="M18.6647 74.8414C18.8205 75.6248 18.7882 76.3371 18.5676 76.9781C18.3414 77.6154 17.9592 78.1486 17.4208 78.5778C16.8769 79.0032 16.2048 79.295 15.4046 79.4531C14.5951 79.613 13.8598 79.5993 13.1988 79.4119C12.5322 79.2208 11.9746 78.8732 11.5262 78.3692C11.0722 77.8615 10.7672 77.2159 10.6114 76.4324C10.4545 75.6443 10.4892 74.9316 10.7154 74.2943C10.936 73.6533 11.3182 73.1201 11.8622 72.6946C12.4005 72.2654 13.0745 71.9709 13.884 71.811C14.6842 71.6529 15.4176 71.6694 16.0842 71.8605C16.7453 72.0479 17.3028 72.3955 17.7568 72.9032C18.2052 73.4072 18.5078 74.0533 18.6647 74.8414ZM16.9731 75.1611C16.902 74.8042 16.7425 74.5249 16.4945 74.3234C16.2418 74.1227 15.9267 73.9971 15.5491 73.9464C15.1707 73.8911 14.7558 73.908 14.3045 73.9972C13.8486 74.0873 13.4586 74.2293 13.1345 74.4235C12.8096 74.6129 12.5711 74.8479 12.419 75.1285C12.2669 75.4091 12.2264 75.7279 12.2974 76.0848C12.3694 76.4464 12.5298 76.7303 12.7787 76.9365C13.0268 77.138 13.3377 77.2669 13.7115 77.3232C14.0844 77.3748 14.4989 77.3555 14.9548 77.2654C15.4061 77.1763 15.7965 77.0365 16.1261 76.8461C16.4548 76.6511 16.6975 76.4128 16.8542 76.1313C17.0054 75.8461 17.045 75.5227 16.9731 75.1611Z" fill="white"/>
<path d="M12.992 67.1975L17.5879 67.1837L17.5945 69.3743L9.64062 69.3981L9.6341 67.2431L11.0499 67.2388L11.0496 67.1608C10.5795 66.9827 10.2087 66.6978 9.9372 66.3064C9.66566 65.9149 9.529 65.4238 9.52722 64.8331C9.52556 64.2849 9.64506 63.8072 9.88572 63.4C10.1264 62.9881 10.4693 62.6681 10.9144 62.4399C11.3596 62.2117 11.8928 62.0967 12.5141 62.0948L17.5725 62.0796L17.5791 64.2701L12.912 64.2842C12.4283 64.2856 12.0492 64.412 11.7749 64.6633C11.4958 64.9146 11.3569 65.26 11.3583 65.6995C11.3591 65.9926 11.4263 66.2523 11.5598 66.4787C11.6886 66.7052 11.8741 66.8819 12.1163 67.0088C12.3586 67.1356 12.6505 67.1986 12.992 67.1975Z" fill="white"/>
<path d="M10.5968 55.0937L12.2423 55.3453L11.5161 60.0611L9.87055 59.8094L10.5968 55.0937ZM8.1651 58.4514L8.49853 56.2862L15.812 57.4044C16.0745 57.4445 16.278 57.4159 16.4226 57.3185C16.5625 57.2203 16.6522 57.0428 16.6918 56.7859C16.7047 56.7018 16.7121 56.6073 16.7138 56.5024C16.7156 56.3974 16.7128 56.3062 16.7056 56.2286L18.3899 56.1347C18.4236 56.3837 18.4395 56.6228 18.4378 56.852C18.4368 57.0766 18.4198 57.2963 18.3867 57.5112C18.2665 58.2913 17.9792 58.8642 17.5246 59.2298C17.0654 59.5947 16.4794 59.7226 15.7668 59.6137L8.1651 58.4514Z" fill="white"/>
<path d="M19.5136 52.7482C19.3624 53.226 19.1425 53.6302 18.854 53.9607C18.5623 54.2853 18.2148 54.5032 17.8116 54.6144C17.4084 54.7256 16.9581 54.7031 16.4605 54.5467C16.0353 54.4132 15.7067 54.2257 15.4747 53.9843C15.2382 53.7416 15.0738 53.4595 14.9816 53.1381C14.8893 52.8168 14.8514 52.4729 14.8679 52.1064C14.8844 51.7399 14.9344 51.3617 15.0181 50.9717C15.1157 50.5217 15.1862 50.1573 15.2296 49.8786C15.2731 49.5999 15.2733 49.3869 15.2304 49.2396C15.1844 49.0864 15.0822 48.9849 14.9239 48.9352L14.89 48.9245C14.5779 48.8265 14.3045 48.8496 14.0698 48.9939C13.8366 49.1338 13.6637 49.3817 13.551 49.7378C13.4326 50.1119 13.4215 50.4379 13.5176 50.7159C13.6105 50.9879 13.7722 51.1998 14.0027 51.3514L13.2327 53.2428C12.8027 52.9987 12.466 52.6799 12.2225 52.2862C11.9745 51.8912 11.8321 51.4376 11.7952 50.9255C11.7552 50.4075 11.8307 49.8465 12.0218 49.2425C12.1545 48.8233 12.3312 48.4378 12.5519 48.086C12.7726 47.7341 13.0341 47.4421 13.3363 47.21C13.6354 46.9719 13.9756 46.8162 14.3569 46.7427C14.7382 46.6692 15.1528 46.7029 15.6006 46.8435L20.7167 48.4508L20.0856 50.4453L19.0271 50.1127L19.01 50.1668C19.2112 50.3638 19.3702 50.5922 19.487 50.8519C19.5992 51.1101 19.6625 51.3976 19.6767 51.7142C19.6863 52.0294 19.632 52.3741 19.5136 52.7482ZM18.252 51.6903C18.3489 51.3838 18.3734 51.0942 18.3255 50.8214C18.2744 50.5428 18.1655 50.3054 17.9988 50.1093C17.829 49.9073 17.6129 49.7651 17.3505 49.6827L16.5431 49.429C16.5638 49.5049 16.5737 49.6071 16.5728 49.7357C16.5734 49.8597 16.5651 49.9959 16.548 50.1441C16.531 50.2924 16.5116 50.4399 16.49 50.5868C16.4639 50.7322 16.4421 50.8641 16.4245 50.9824C16.3823 51.2417 16.3726 51.4765 16.3956 51.6869C16.414 51.8959 16.4747 52.0735 16.5776 52.2198C16.6774 52.3602 16.8268 52.4616 17.0258 52.5242C17.3108 52.6137 17.5607 52.5782 17.7756 52.4178C17.9905 52.2573 18.1493 52.0149 18.252 51.6903Z" fill="white"/>
<path d="M23.2724 43.5888C22.8902 44.3016 22.4089 44.833 21.8286 45.1832C21.2441 45.531 20.6083 45.6989 19.9212 45.6867C19.2298 45.6722 18.5286 45.4757 17.8174 45.0971C17.0979 44.714 16.54 44.2401 16.1437 43.6754C15.7496 43.1066 15.5374 42.4846 15.5069 41.8093C15.4765 41.134 15.6513 40.442 16.0313 39.7334C16.3576 39.1248 16.7535 38.6524 17.2188 38.3161C17.6864 37.9756 18.1925 37.7789 18.7372 37.7259C19.2818 37.673 19.8327 37.7788 20.39 38.0433L19.4109 39.869C19.1588 39.7777 18.9158 39.7394 18.682 39.7542C18.4482 39.7691 18.2351 39.8405 18.0428 39.9685C17.8505 40.0965 17.6906 40.2793 17.5632 40.5169C17.4023 40.817 17.343 41.123 17.3855 41.435C17.4259 41.7406 17.5695 42.0394 17.8162 42.3315C18.061 42.6172 18.405 42.8781 18.8485 43.1142C19.2919 43.3503 19.705 43.4925 20.0877 43.5409C20.4727 43.5851 20.8081 43.5413 21.0939 43.4095C21.3819 43.2735 21.6064 43.0554 21.7673 42.7553C21.9462 42.4218 21.9925 42.0848 21.9062 41.7442C21.8158 41.4013 21.599 41.1037 21.2557 40.8513L22.2348 39.0255C22.7546 39.3398 23.1502 39.7353 23.4216 40.212C23.6887 40.6865 23.8156 41.2122 23.802 41.789C23.7842 42.3636 23.6077 42.9636 23.2724 43.5888Z" fill="white"/>
<path d="M21.8375 31.1413L23.1705 32.1349L20.3025 35.9552L18.9694 34.9616L21.8375 31.1413ZM18.1061 32.9635L19.4229 31.2095L25.3476 35.6257C25.5603 35.7843 25.7534 35.8544 25.927 35.8363C26.0968 35.8153 26.2598 35.7007 26.4161 35.4925C26.4672 35.4244 26.5183 35.3445 26.5694 35.2527C26.6205 35.161 26.6612 35.0792 26.6915 35.0073L28.222 35.7143C28.134 35.9498 28.0352 36.1683 27.9254 36.3697C27.8185 36.5674 27.6996 36.7533 27.569 36.9274C27.0945 37.5594 26.5704 37.9301 25.9966 38.0395C25.4191 38.146 24.8416 37.9842 24.2644 37.5539L18.1061 32.9635Z" fill="white"/>
<path d="M30.8364 19.0932L32.612 17.7308L36.8093 23.1623C37.281 23.7727 37.5482 24.4206 37.611 25.1061C37.6747 25.7849 37.5437 26.4521 37.2181 27.1075C36.8926 27.7629 36.3822 28.3573 35.6869 28.8908C34.9917 29.4242 34.2845 29.764 33.5654 29.9101C32.8463 30.0563 32.1655 30.012 31.5231 29.7772C30.8778 29.5386 30.3194 29.1141 29.8477 28.5038L25.6504 23.0723L27.4204 21.7142L31.5048 26.9997C31.7508 27.3179 32.0421 27.5477 32.3788 27.6891C32.7126 27.8266 33.0622 27.8685 33.4277 27.8148C33.7903 27.7572 34.1426 27.5973 34.4846 27.3349C34.8303 27.0696 35.0774 26.7697 35.2259 26.4351C35.3715 26.0967 35.4183 25.7506 35.3664 25.3968C35.3153 25.0363 35.1668 24.697 34.9208 24.3787L30.8364 19.0932Z" fill="white"/>
<path d="M44.7072 16.9134L42.9465 17.8939C42.7902 17.691 42.5704 17.5579 42.2871 17.4947C42.0016 17.4273 41.6859 17.4768 41.3399 17.6432C41.0324 17.7911 40.8049 17.9792 40.6574 18.2076C40.5142 18.4339 40.4942 18.6534 40.5972 18.8662C40.6797 19.0365 40.817 19.1515 41.0092 19.2112C41.2036 19.2647 41.4818 19.2464 41.8437 19.1563L43.268 18.7862C44.0323 18.5919 44.6616 18.57 45.1559 18.7206C45.6502 18.8713 46.022 19.2041 46.2714 19.7191C46.5003 20.1916 46.5635 20.6702 46.4613 21.1549C46.3569 21.6354 46.114 22.0907 45.7325 22.5208C45.3489 22.9466 44.8474 23.3085 44.228 23.6063C43.2797 24.0623 42.4278 24.228 41.6723 24.1033C40.921 23.9766 40.3345 23.5974 39.9127 22.9658L41.8047 21.9301C42.0089 22.1887 42.2603 22.3381 42.5588 22.3782C42.8574 22.4183 43.1839 22.3531 43.5385 22.1826C43.8845 22.0162 44.1313 21.8136 44.2789 21.5747C44.4308 21.3337 44.4562 21.1089 44.3552 20.9004C44.1841 20.5471 43.7611 20.4566 43.0862 20.629L41.7259 20.9683C40.9616 21.1626 40.3261 21.1717 39.8195 20.9956C39.3129 20.8194 38.9307 20.4653 38.673 19.9332C38.4504 19.4735 38.3847 19.0171 38.4759 18.5639C38.5671 18.1107 38.7959 17.6859 39.1621 17.2894C39.5325 16.8908 40.0232 16.5447 40.634 16.251C41.5396 15.8155 42.3436 15.665 43.0459 15.7995C43.7505 15.9277 44.3043 16.299 44.7072 16.9134Z" fill="white"/>
<path d="M54.3327 15.2398L54.0922 13.2505L52.6587 14.661L51.7416 13.6075L53.353 12.4087L51.4133 11.8801L51.8777 10.5515L53.7295 11.342L53.2234 9.40286L54.5865 9.14564L54.834 11.1336L56.2675 9.7231L57.1802 10.7919L55.5759 11.9893L57.5085 12.5193L57.0485 13.8326L55.1967 13.0421L55.6958 14.9826L54.3327 15.2398Z" fill="white"/>
</svg>
