<svg width="153" height="50" viewBox="0 0 153 50" fill="none" xmlns="http://www.w3.org/2000/svg">
<path d="M64.6924 25.8518C64.6924 32.9518 59.1711 38.1685 52.3859 38.1685C45.6006 38.1685 40.0793 32.9352 40.0793 25.8518C40.0793 18.7185 45.6006 13.5352 52.3859 13.5352C59.1711 13.5352 64.6924 18.7018 64.6924 25.8518ZM59.3041 25.8518C59.3041 21.4185 56.0945 18.3852 52.3859 18.3852C48.6773 18.3852 45.4676 21.4185 45.4676 25.8518C45.4676 30.2352 48.6773 33.3185 52.3859 33.3185C56.0945 33.3185 59.3041 30.2352 59.3041 25.8518Z" fill="#EA4335"/>
<path d="M19.89 38.3018C9.36292 38.3018 0.515533 29.7185 0.515533 19.1685C0.515533 8.61849 9.36292 0.0351562 19.89 0.0351562C25.7106 0.0351562 29.8516 2.31849 32.9781 5.30182L29.3028 9.00182C27.0743 6.90182 24.0476 5.26849 19.89 5.26849C12.2067 5.26849 6.20314 11.4685 6.20314 19.1685C6.20314 26.8685 12.2067 33.0685 19.89 33.0685C24.8791 33.0685 27.7063 31.0685 29.519 29.2352C31.0158 27.7352 31.9969 25.5685 32.4127 22.2852H19.9565V17.0518H37.4517C37.6347 17.9852 37.7344 19.1018 37.7344 20.3185C37.7344 24.2352 36.6701 29.4685 33.211 32.9185C29.8516 36.4352 25.5776 38.3018 19.89 38.3018Z" fill="#4285F4"/>
<path d="M91.3011 25.8518C91.3011 32.9518 85.7798 38.1685 78.9945 38.1685C72.2093 38.1685 66.688 32.9352 66.688 25.8518C66.688 18.7185 72.2093 13.5352 78.9945 13.5352C85.7798 13.5352 91.3011 18.7018 91.3011 25.8518ZM85.9128 25.8518C85.9128 21.4185 82.7031 18.3852 78.9945 18.3852C75.286 18.3852 72.0763 21.4185 72.0763 25.8518C72.0763 30.2352 75.286 33.3185 78.9945 33.3185C82.7031 33.3185 85.9128 30.2352 85.9128 25.8518Z" fill="#FBBC05"/>
<path d="M116.413 14.2656V36.3823C116.413 45.4823 111.341 49.2156 105.005 49.2156C99.0509 49.2156 95.4587 45.199 94.1116 41.9323L98.818 39.9656C99.6496 41.9656 101.712 44.349 105.005 44.349C109.062 44.349 111.291 41.8323 111.291 37.1156V35.349H111.108C109.894 36.849 107.715 38.149 104.772 38.149C98.6185 38.149 93.1304 32.7823 93.1304 25.8823C93.1304 18.9323 98.6185 13.5156 104.772 13.5156C107.699 13.5156 109.894 14.8156 111.108 16.2656H111.291V14.2656H116.413ZM111.657 25.8823C111.657 21.549 108.763 18.3656 105.088 18.3656C101.362 18.3656 98.5187 21.5323 98.5187 25.8823C98.5187 30.1823 101.362 33.299 105.088 33.299C108.78 33.3156 111.657 30.1823 111.657 25.8823Z" fill="#4285F4"/>
<path d="M124.728 1.94922V38.1659H119.739V1.94922H124.728Z" fill="#34A853"/>
<path d="M145.516 29.9018L149.641 32.7018C148.31 34.7018 145.101 38.1685 139.563 38.1685C132.694 38.1685 127.555 32.7518 127.555 25.8518C127.555 18.5185 132.727 13.5352 138.964 13.5352C145.25 13.5352 148.31 18.6185 149.325 21.3685L149.84 22.7852L133.692 29.5852C134.923 32.0518 136.852 33.3185 139.563 33.3185C142.273 33.3185 144.153 31.9518 145.516 29.9018ZM132.827 25.4685L143.637 20.9018C143.038 19.3685 141.259 18.2852 139.147 18.2852C136.453 18.2852 132.694 20.7185 132.827 25.4685Z" fill="#EA4335"/>
</svg>
