<svg width="60" height="60" viewBox="0 0 60 60" fill="none" xmlns="http://www.w3.org/2000/svg">
<path d="M1 1V59H59V1H1ZM2.41463 45.561C4.2883 46.8659 6.4986 47.6027 8.78049 47.6829C10.4165 47.6534 12.0247 47.2543 13.4846 46.5154C12.7456 47.9753 12.3464 49.5835 12.3171 51.2195C12.3972 53.5014 13.134 55.7118 14.439 57.5854H9.92917C9.75984 55.6493 8.91375 53.8348 7.5395 52.4605C6.16525 51.0863 4.35073 50.2402 2.41463 50.0708V45.561ZM30 42.9939C28.718 41.2761 27.979 39.2142 27.878 37.0732C27.9816 34.9326 28.7203 32.8715 30 31.1525C31.282 32.8702 32.021 34.9321 32.122 37.0732C32.0184 39.2137 31.2797 41.2749 30 42.9939ZM30 28.8475C28.718 27.1298 27.979 25.0679 27.878 22.9268C27.9816 20.7863 28.7203 18.7251 30 17.0061C31.282 18.7239 32.021 20.7858 32.122 22.9268C32.0184 25.0674 31.2797 27.1285 30 28.8475ZM27.6319 27.631C26.1717 26.8919 24.5632 26.4928 22.9268 26.4634C21.2908 26.4929 19.6827 26.8921 18.2227 27.631C18.9618 26.1711 19.3609 24.5629 19.3902 22.9268C19.3609 21.2908 18.9618 19.6826 18.2227 18.2227C19.6827 18.9616 21.2908 19.3607 22.9268 19.3902C24.5628 19.3607 26.171 18.9616 27.631 18.2227C26.8919 19.6826 26.4927 21.2908 26.4634 22.9268C26.4927 24.5629 26.8928 26.1711 27.6319 27.631ZM28.8475 30C27.1295 31.2814 25.0677 32.0203 22.9268 32.122C20.7864 32.018 18.7253 31.2793 17.0061 30C18.7242 28.7186 20.7859 27.9797 22.9268 27.878C25.0673 27.982 27.1284 28.7207 28.8475 30ZM22.9268 33.5366C24.5628 33.5071 26.171 33.1079 27.631 32.369C26.8919 33.8289 26.4927 35.4371 26.4634 37.0732C26.4927 38.7092 26.8919 40.3174 27.631 41.7773C26.171 41.0384 24.5628 40.6393 22.9268 40.6098C21.2908 40.6393 19.6827 41.0384 18.2227 41.7773C18.9618 40.3174 19.3609 38.7092 19.3902 37.0732C19.3609 35.4371 18.9618 33.8289 18.2227 32.369C19.6827 33.1079 21.2908 33.5071 22.9268 33.5366ZM32.369 32.369C33.829 33.1079 35.4372 33.5071 37.0732 33.5366C38.7092 33.5071 40.3173 33.1079 41.7773 32.369C41.0382 33.8289 40.6391 35.4371 40.6098 37.0732C40.6391 38.7092 41.0382 40.3174 41.7773 41.7773C40.3173 41.0384 38.7092 40.6393 37.0732 40.6098C35.4372 40.6393 33.829 41.0384 32.369 41.7773C33.1081 40.3174 33.5073 38.7092 33.5366 37.0732C33.5073 35.4371 33.1081 33.8289 32.369 32.369ZM31.1525 30C32.8705 28.7186 34.9323 27.9797 37.0732 27.878C39.2136 27.982 41.2747 28.7207 42.9939 30C41.2758 31.2814 39.2141 32.0203 37.0732 32.122C34.9327 32.018 32.8716 31.2793 31.1525 30ZM37.0732 26.4634C35.4372 26.4929 33.829 26.8921 32.369 27.631C33.1081 26.1711 33.5073 24.5629 33.5366 22.9268C33.5073 21.2908 33.1081 19.6826 32.369 18.2227C33.829 18.9616 35.4372 19.3607 37.0732 19.3902C38.7092 19.3607 40.3173 18.9616 41.7773 18.2227C41.0382 19.6826 40.6391 21.2908 40.6098 22.9268C40.6391 24.5629 41.0382 26.1711 41.7773 27.631C40.3173 26.8921 38.7092 26.4929 37.0732 26.4634ZM37.0732 17.9756C34.9327 17.8717 32.8716 17.133 31.1525 15.8537C32.8705 14.5722 34.9323 13.8333 37.0732 13.7317C39.2136 13.8356 41.2747 14.5743 42.9939 15.8537C41.2758 17.1351 39.2141 17.874 37.0732 17.9756ZM30 14.7012C28.718 12.9834 27.979 10.9215 27.878 8.78049C27.9816 6.63996 28.7203 4.57877 30 2.85977C31.282 4.57754 32.021 6.63945 32.122 8.78049C32.0184 10.921 31.2797 12.9822 30 14.7012ZM22.9268 17.9756C20.7864 17.8717 18.7253 17.133 17.0061 15.8537C18.7242 14.5722 20.7859 13.8333 22.9268 13.7317C25.0673 13.8356 27.1284 14.5743 28.8475 15.8537C27.1295 17.1351 25.0677 17.874 22.9268 17.9756ZM15.8537 14.7012C14.5717 12.9834 13.8327 10.9215 13.7317 8.78049C13.8353 6.63996 14.574 4.57877 15.8537 2.85977C17.1356 4.57754 17.8746 6.63945 17.9756 8.78049C17.8721 10.921 17.1333 12.9822 15.8537 14.7012ZM15.8537 17.0061C17.1356 18.7239 17.8746 20.7858 17.9756 22.9268C17.8721 25.0674 17.1333 27.1285 15.8537 28.8475C14.5717 27.1298 13.8327 25.0679 13.7317 22.9268C13.8353 20.7863 14.574 18.7251 15.8537 17.0061ZM15.8537 31.1525C17.1356 32.8702 17.8746 34.9321 17.9756 37.0732C17.8721 39.2137 17.1333 41.2749 15.8537 42.9939C14.5717 41.2761 13.8327 39.2142 13.7317 37.0732C13.8353 34.9326 14.574 32.8715 15.8537 31.1525ZM15.8537 45.2988C17.1356 47.0166 17.8746 49.0785 17.9756 51.2195C17.8721 53.36 17.1333 55.4212 15.8537 57.1402C14.5717 55.4225 13.8327 53.3605 13.7317 51.2195C13.8353 49.079 14.574 47.0178 15.8537 45.2988ZM22.9268 42.0244C25.0673 42.1283 27.1284 42.867 28.8475 44.1463C27.1295 45.4278 25.0677 46.1667 22.9268 46.2683C20.7864 46.1644 18.7253 45.4257 17.0061 44.1463C18.7242 42.8649 20.7859 42.126 22.9268 42.0244ZM30 45.2988C31.282 47.0166 32.021 49.0785 32.122 51.2195C32.0184 53.36 31.2797 55.4212 30 57.1402C28.718 55.4225 27.979 53.3605 27.878 51.2195C27.9816 49.079 28.7203 47.0178 30 45.2988ZM37.0732 42.0244C39.2136 42.1283 41.2747 42.867 42.9939 44.1463C41.2758 45.4278 39.2141 46.1667 37.0732 46.2683C34.9327 46.1644 32.8716 45.4257 31.1525 44.1463C32.8705 42.8649 34.9323 42.126 37.0732 42.0244ZM44.1463 45.2988C45.4283 47.0166 46.1673 49.0785 46.2683 51.2195C46.1647 53.36 45.426 55.4212 44.1463 57.1402C42.8644 55.4225 42.1254 53.3605 42.0244 51.2195C42.1279 49.079 42.8667 47.0178 44.1463 45.2988ZM44.1463 42.9939C42.8644 41.2761 42.1254 39.2142 42.0244 37.0732C42.1279 34.9326 42.8667 32.8715 44.1463 31.1525C45.4283 32.8702 46.1673 34.9321 46.2683 37.0732C46.1647 39.2137 45.426 41.2749 44.1463 42.9939ZM44.1463 28.8475C42.8644 27.1298 42.1254 25.0679 42.0244 22.9268C42.1279 20.7863 42.8667 18.7251 44.1463 17.0061C45.4283 18.7239 46.1673 20.7858 46.2683 22.9268C46.1647 25.0674 45.426 27.1285 44.1463 28.8475ZM44.1463 14.7012C42.8644 12.9834 42.1254 10.9215 42.0244 8.78049C42.1279 6.63996 42.8667 4.57877 44.1463 2.85977C45.4283 4.57754 46.1673 6.63945 46.2683 8.78049C46.1647 10.921 45.426 12.9822 44.1463 14.7012ZM40.6098 8.78049C40.6391 10.4165 41.0382 12.0247 41.7773 13.4846C40.3173 12.7457 38.7092 12.3466 37.0732 12.3171C35.4372 12.3466 33.829 12.7457 32.369 13.4846C33.1081 12.0247 33.5073 10.4165 33.5366 8.78049C33.4565 6.49857 32.7197 4.28823 31.4146 2.41463H42.7317C41.4266 4.28823 40.6899 6.49857 40.6098 8.78049ZM26.4634 8.78049C26.4927 10.4165 26.8919 12.0247 27.631 13.4846C26.171 12.7457 24.5628 12.3466 22.9268 12.3171C21.2908 12.3466 19.6827 12.7457 18.2227 13.4846C18.9618 12.0247 19.3609 10.4165 19.3902 8.78049C19.3101 6.49857 18.5734 4.28823 17.2683 2.41463H28.5854C27.2803 4.28823 26.5435 6.49857 26.4634 8.78049ZM12.3171 8.78049C12.3464 10.4165 12.7456 12.0247 13.4846 13.4846C12.0247 12.7457 10.4165 12.3466 8.78049 12.3171C6.4986 12.3973 4.2883 13.1341 2.41463 14.439V9.92917C4.35073 9.75984 6.16525 8.91375 7.5395 7.5395C8.91375 6.16525 9.75984 4.35073 9.92917 2.41463H14.439C13.134 4.28823 12.3972 6.49857 12.3171 8.78049ZM14.7012 15.8537C12.9831 17.1351 10.9214 17.874 8.78049 17.9756C6.64004 17.8717 4.57897 17.133 2.85977 15.8537C4.57784 14.5722 6.63958 13.8333 8.78049 13.7317C10.9209 13.8356 12.982 14.5743 14.7012 15.8537ZM8.78049 19.3902C10.4165 19.3607 12.0247 18.9616 13.4846 18.2227C12.7456 19.6826 12.3464 21.2908 12.3171 22.9268C12.3464 24.5629 12.7456 26.1711 13.4846 27.631C12.0247 26.8921 10.4165 26.4929 8.78049 26.4634C6.4986 26.5437 4.2883 27.2804 2.41463 28.5854V17.2683C4.2883 18.5732 6.4986 19.31 8.78049 19.3902ZM14.7012 30C12.9831 31.2814 10.9214 32.0203 8.78049 32.122C6.64004 32.018 4.57897 31.2793 2.85977 30C4.57784 28.7186 6.63958 27.9797 8.78049 27.878C10.9209 27.982 12.982 28.7207 14.7012 30ZM8.78049 33.5366C10.4165 33.5071 12.0247 33.1079 13.4846 32.369C12.7456 33.8289 12.3464 35.4371 12.3171 37.0732C12.3464 38.7092 12.7456 40.3174 13.4846 41.7773C12.0247 41.0384 10.4165 40.6393 8.78049 40.6098C6.4986 40.69 4.2883 41.4268 2.41463 42.7317V31.4146C4.2883 32.7196 6.4986 33.4563 8.78049 33.5366ZM14.7012 44.1463C12.9831 45.4278 10.9214 46.1667 8.78049 46.2683C6.64004 46.1644 4.57897 45.4257 2.85977 44.1463C4.57784 42.8649 6.63958 42.126 8.78049 42.0244C10.9209 42.1283 12.982 42.867 14.7012 44.1463ZM19.3902 51.2195C19.3609 49.5835 18.9618 47.9753 18.2227 46.5154C19.6827 47.2543 21.2908 47.6534 22.9268 47.6829C24.5628 47.6534 26.171 47.2543 27.631 46.5154C26.8919 47.9753 26.4927 49.5835 26.4634 51.2195C26.5435 53.5014 27.2803 55.7118 28.5854 57.5854H17.2683C18.5734 55.7118 19.3101 53.5014 19.3902 51.2195ZM33.5366 51.2195C33.5073 49.5835 33.1081 47.9753 32.369 46.5154C33.829 47.2543 35.4372 47.6534 37.0732 47.6829C38.7092 47.6534 40.3173 47.2543 41.7773 46.5154C41.0382 47.9753 40.6391 49.5835 40.6098 51.2195C40.6899 53.5014 41.4266 55.7118 42.7317 57.5854H31.4146C32.7197 55.7118 33.4565 53.5014 33.5366 51.2195ZM47.6829 51.2195C47.6536 49.5835 47.2544 47.9753 46.5154 46.5154C47.9753 47.2543 49.5835 47.6534 51.2195 47.6829C53.5014 47.6027 55.7117 46.8659 57.5854 45.561V50.0699C55.6493 50.2392 53.8348 51.0853 52.4605 52.4596C51.0863 53.8338 50.2402 55.6483 50.0708 57.5844H45.561C46.8659 55.7111 47.6026 53.5011 47.6829 51.2195ZM45.2988 44.1463C47.0169 42.8649 49.0786 42.126 51.2195 42.0244C53.36 42.1283 55.421 42.867 57.1402 44.1463C55.4222 45.4278 53.3604 46.1667 51.2195 46.2683C49.0791 46.1644 47.018 45.4257 45.2988 44.1463ZM51.2195 40.6098C49.5835 40.6393 47.9753 41.0384 46.5154 41.7773C47.2544 40.3174 47.6536 38.7092 47.6829 37.0732C47.6536 35.4371 47.2544 33.8289 46.5154 32.369C47.9753 33.1079 49.5835 33.5071 51.2195 33.5366C53.5014 33.4563 55.7117 32.7196 57.5854 31.4146V42.7317C55.7117 41.4268 53.5014 40.69 51.2195 40.6098ZM45.2988 30C47.0169 28.7186 49.0786 27.9797 51.2195 27.878C53.36 27.982 55.421 28.7207 57.1402 30C55.4222 31.2814 53.3604 32.0203 51.2195 32.122C49.0791 32.018 47.018 31.2793 45.2988 30ZM51.2195 26.4634C49.5835 26.4929 47.9753 26.8921 46.5154 27.631C47.2544 26.1711 47.6536 24.5629 47.6829 22.9268C47.6536 21.2908 47.2544 19.6826 46.5154 18.2227C47.9753 18.9616 49.5835 19.3607 51.2195 19.3902C53.5014 19.31 55.7117 18.5732 57.5854 17.2683V28.5854C55.7117 27.2804 53.5014 26.5437 51.2195 26.4634ZM45.2988 15.8537C47.0169 14.5722 49.0786 13.8333 51.2195 13.7317C53.36 13.8356 55.421 14.5743 57.1402 15.8537C55.4222 17.1351 53.3604 17.874 51.2195 17.9756C49.0791 17.8717 47.018 17.133 45.2988 15.8537ZM51.2195 12.3171C49.5835 12.3466 47.9753 12.7457 46.5154 13.4846C47.2544 12.0247 47.6536 10.4165 47.6829 8.78049C47.6028 6.49857 46.866 4.28823 45.561 2.41463H50.0699C50.2392 4.35073 51.0853 6.16525 52.4596 7.5395C53.8338 8.91375 55.6483 9.75984 57.5844 9.92917V14.439C55.711 13.1343 53.5011 12.3975 51.2195 12.3171ZM57.5854 8.50794C56.0256 8.3434 54.5695 7.64856 53.4605 6.53951C52.3514 5.43047 51.6566 3.97441 51.4921 2.41463H57.5854V8.50794ZM8.50794 2.41463C8.3434 3.97441 7.64856 5.43047 6.53951 6.53951C5.43047 7.64856 3.97441 8.3434 2.41463 8.50794V2.41463H8.50794ZM2.41463 51.4921C3.97441 51.6566 5.43047 52.3514 6.53951 53.4605C7.64856 54.5695 8.3434 56.0256 8.50794 57.5854H2.41463V51.4921ZM51.4921 57.5854C51.6566 56.0256 52.3514 54.5695 53.4605 53.4605C54.5695 52.3514 56.0256 51.6566 57.5854 51.4921V57.5854H51.4921Z" fill="#D5B471"/>
</svg>
