<svg width="80" height="80" viewBox="0 0 80 80" fill="none" xmlns="http://www.w3.org/2000/svg">
<g clip-path="url(#clip0_701_6551)">
<path d="M79.8403 42.3781C79.5046 41.7748 78.7447 41.5562 78.1404 41.892L73.3834 44.5323C72.7797 44.8674 72.5618 45.6282 72.8969 46.2318C73.1258 46.6432 73.5518 46.8755 73.9912 46.8755C74.1964 46.8755 74.4045 46.8248 74.5967 46.718L79.3538 44.0776C79.9574 43.7425 80.1754 42.9817 79.8403 42.3781Z" fill="#D5B471"/>
<path d="M67.1163 40.7125C67.2438 40.7537 67.3733 40.7732 67.5002 40.7732C68.0281 40.7732 68.5189 40.4363 68.6898 39.9068L70.2101 35.195C70.422 34.5379 70.0613 33.8335 69.4045 33.6215C68.7472 33.409 68.0428 33.7701 67.831 34.4271L66.3106 39.139C66.0988 39.7961 66.4596 40.5004 67.1163 40.7125Z" fill="#D5B471"/>
<path d="M70.9192 42.7373C71.137 42.8899 71.3873 42.9631 71.6345 42.9631C72.0288 42.9631 72.4164 42.7772 72.6599 42.43L78.6719 33.8417C79.0674 33.2762 78.93 32.4968 78.3642 32.1007C77.799 31.7052 77.0196 31.8431 76.6235 32.408L70.6115 40.9962C70.216 41.5617 70.3534 42.3412 70.9192 42.7373Z" fill="#D5B471"/>
<path d="M1.25 70H29.375C30.0653 70 30.625 69.4403 30.625 68.75C30.625 68.0597 30.0653 67.5 29.375 67.5H1.25C0.559679 67.5 0 68.0597 0 68.75C0 69.4403 0.559679 70 1.25 70Z" fill="#D5B471"/>
<path d="M42.5 72.5H13.125C12.4347 72.5 11.875 73.0597 11.875 73.75C11.875 74.4403 12.4347 75 13.125 75H42.5C43.1903 75 43.75 74.4403 43.75 73.75C43.75 73.0597 43.1903 72.5 42.5 72.5Z" fill="#D5B471"/>
<path d="M29.375 77.5H1.25C0.559679 77.5 0 78.0597 0 78.75C0 79.4403 0.559679 80 1.25 80H29.375C30.0653 80 30.625 79.4403 30.625 78.75C30.625 78.0597 30.0653 77.5 29.375 77.5Z" fill="#D5B471"/>
<path d="M71.3275 47.7846C70.2606 46.895 63.9373 41.837 62.0178 40.038C58.7646 36.9893 55.0951 35.8361 50.5963 36.459C47.8369 36.8416 45.028 37.037 42.3113 37.2258C41.679 37.2698 41.0516 37.3137 40.3997 37.3604C40.155 37.3601 39.8894 37.152 39.8425 36.9231L38.1488 28.6473C39.2504 29.0679 40.3058 29.4765 41.3604 29.9273C44.0911 31.094 46.5563 31.0671 48.977 29.8696C50.9179 28.9098 58.684 25.3045 60.5816 24.3706C62.0153 23.6645 62.9809 22.6528 63.3739 21.4455C63.7353 20.3331 63.595 19.1149 62.9675 17.9223C61.7498 15.6096 59.2962 14.887 56.5338 16.1193C56.5338 16.1193 49.2626 19.3386 46.6869 20.6053C45.7165 21.083 45.0469 21.097 44.0075 20.6606C41.2939 19.5192 32.2814 15.8397 30.4809 15.0957C29.9755 15.8272 29.3871 16.4901 28.7341 17.0772C30.8008 17.9354 40.3375 21.8288 43.0389 22.9653C44.7411 23.6809 46.1798 23.6403 47.7904 22.8487C50.3204 21.6045 57.5518 18.4026 57.5518 18.4026C59.0661 17.7275 60.1275 17.8936 60.7556 19.0865C61.0656 19.6764 61.1468 20.2098 60.9966 20.6725C60.7702 21.3683 60.0451 21.848 59.4769 22.1276C57.6055 23.0489 49.837 26.6551 47.8686 27.6286C46.0876 28.5094 44.4049 28.5094 42.3431 27.6281C41.0809 27.0888 38.3953 26.0659 38.3953 26.0659C37.4383 25.7003 36.4941 25.9069 35.9478 26.5749C35.5486 27.0641 35.4107 27.7361 35.5603 28.4679L37.3938 37.4248C37.6916 38.8817 39.0984 39.9611 40.6128 39.8525C41.231 39.807 41.856 39.7637 42.4853 39.7197C45.2434 39.5281 48.0956 39.3294 50.9393 38.9351C54.7009 38.4142 57.5921 39.3172 60.3082 41.8624C62.2991 43.7282 64.4537 45.4515 66.5368 47.1178C67.5897 47.9601 68.6791 48.8314 69.7253 49.7041C70.4425 50.303 71.9848 51.8569 70.8227 53.3559C70.3674 53.9455 69.8425 54.2324 69.2187 54.2324C68.4997 54.2324 67.6434 53.8595 66.7431 53.1542C56.748 45.317 55.9832 45.317 55.5718 45.317L55.4797 45.3203C52.2912 45.5425 49.2284 45.873 44.9096 46.4608C43.5418 46.6472 43.2214 47.4971 43.1469 47.8539C43.0718 48.2131 43.0273 49.1274 44.2242 49.8555L44.8181 50.2175C46.3476 51.1504 47.9296 52.1154 49.5629 52.9628C50.7916 53.6003 51.2048 54.4448 51.7187 56.2188C53.9086 63.7737 55.2123 69.1253 55.8215 73.0605C56.1773 75.3536 55.3985 75.9475 53.9325 76.1986C53.7347 76.2325 53.5546 76.2496 53.3978 76.2496C52.7361 76.2499 52.2686 76.0564 51.361 73.377C50.6463 71.2673 49.8809 68.3186 49.1412 65.4671C48.7793 64.0715 48.4295 62.7233 48.1042 61.5478C47.8442 60.6105 47.2228 59.3923 46.2597 58.7838L44.9834 57.9769C40.7434 55.2953 36.3592 52.5225 31.9024 50.0148C25.5706 46.451 21.8401 40.6487 19.8046 31.2008C19.7265 30.8385 19.6569 30.4738 19.5739 30.0383C19.3969 29.1161 18.6816 28.4969 17.7948 28.4969C17.2241 28.4969 16.6418 28.7508 16.112 29.2305C15.747 29.5598 11.4874 33.3556 10.0299 35.1842C9.15095 36.2865 8.42401 39.4786 7.56526 43.5369C7.34308 44.5895 7.1502 45.4988 7.03058 45.9218C6.50933 47.7654 5.49863 47.7654 5.16657 47.7654C4.97795 47.7654 4.77351 47.7413 4.55863 47.6934C2.2387 47.177 2.45051 45.9441 2.54145 45.4165C2.6507 44.7756 3.27451 41.603 3.4222 40.8596C4.52632 35.3343 7.77707 29.9596 12.3413 26.1131C14.6875 24.135 16.8615 21.9195 18.9642 19.7722C18.1048 19.5989 17.2656 19.3318 16.4575 18.9543C16.4135 18.9339 16.3733 18.9076 16.3293 18.8866C14.5312 20.7155 12.6788 22.5588 10.73 24.2015C5.74088 28.4063 2.18376 34.2992 0.970383 40.3704C0.847133 40.9917 0.196508 44.295 0.0774542 44.9941C-0.365046 47.5652 1.10713 49.4866 4.01545 50.1336C4.40851 50.2211 4.79551 50.2654 5.16657 50.2654C7.22163 50.2654 8.77801 48.9303 9.43657 46.6024C9.57882 46.0985 9.76982 45.1964 10.0116 44.0541C10.4272 42.0882 11.4013 37.4837 11.9848 36.7425C13.3093 35.0801 14.9499 33.6186 16.6863 32.0711C16.8951 31.8853 17.1044 31.6985 17.315 31.5102C17.3303 31.5828 17.3455 31.6551 17.3608 31.7272C18.8409 38.5998 21.6925 47.137 30.6762 52.1935C35.0768 54.6697 39.4336 57.4251 43.6474 60.0899L44.9243 60.8974C45.1604 61.0466 45.5224 61.5929 45.6945 62.2151C46.0168 63.3785 48.2494 71.9832 48.9929 74.179C49.6466 76.108 50.5419 78.7499 53.3984 78.7496C53.6963 78.7496 54.0179 78.7203 54.3548 78.6626C56.5167 78.2925 58.955 76.9536 58.2922 72.6778C57.6666 68.6342 56.3409 63.1832 54.1198 55.523C53.5784 53.655 52.9113 51.8837 50.7141 50.7436C49.5013 50.1146 48.2964 49.4036 47.1166 48.6895C50.3118 48.2766 52.8143 48.0184 55.3656 47.8346C56.5313 48.4966 61.3268 52.0842 65.2008 55.122C66.5649 56.1904 67.9168 56.7324 69.2187 56.7324C70.6286 56.7324 71.867 56.0933 72.8003 54.8858C74.4781 52.7202 73.9001 49.9331 71.3275 47.7846Z" fill="#D5B471"/>
<path d="M17.5215 16.6898C18.6714 17.2275 19.8982 17.5 21.1683 17.5C24.5546 17.5 27.6802 15.5252 29.1304 12.4704C31.2294 8.05844 29.4343 2.96387 25.0447 0.871276C23.8313 0.293274 22.5441 0 21.2178 0C17.8627 0 14.861 1.86981 13.3845 4.88006C12.3494 6.99338 12.2182 9.40338 13.0153 11.6663C13.8087 13.9169 15.4091 15.701 17.5215 16.6898ZM15.6294 5.98053C16.6823 3.83362 18.8234 2.5 21.2178 2.5C22.1687 2.5 23.0946 2.71118 23.9693 3.12805C27.0943 4.61792 28.3699 8.24951 26.8727 11.3971C25.8333 13.5858 23.5945 15 21.1683 15C20.2668 15 19.3965 14.8065 18.5811 14.4254C17.0808 13.7234 15.9419 12.4484 15.3736 10.8353C14.8006 9.21019 14.8915 7.48594 15.6294 5.98053Z" fill="#D5B471"/>
<path d="M23.9713 29.4425C23.3183 29.6653 22.9691 30.3758 23.1925 31.0291C23.4397 31.753 23.6814 32.5089 23.928 33.2779C24.7929 35.9794 25.6876 38.7726 27.0469 41.1106C28.1852 43.0732 29.8216 44.1865 31.8424 45.438C32.0475 45.5649 32.2746 45.6257 32.4991 45.6257C32.9179 45.6257 33.3268 45.4154 33.563 45.0336C33.9268 44.4465 33.7455 43.6762 33.1583 43.3128C31.0599 42.013 29.9918 41.2055 29.2088 39.8554C27.9856 37.7513 27.1329 35.0895 26.309 32.5156C26.0575 31.7308 25.8103 30.9601 25.5583 30.2216C25.3361 29.5683 24.6274 29.2191 23.9713 29.4425Z" fill="#D5B471"/>
<path d="M36.25 48.75C36.9404 48.75 37.5 48.1904 37.5 47.5C37.5 46.8096 36.9404 46.25 36.25 46.25C35.5596 46.25 35 46.8096 35 47.5C35 48.1904 35.5596 48.75 36.25 48.75Z" fill="#D5B471"/>
</g>
<defs>
<clipPath id="clip0_701_6551">
<rect width="80" height="80" fill="white"/>
</clipPath>
</defs>
</svg>
