<svg width="30" height="30" viewBox="0 0 30 30" fill="none" xmlns="http://www.w3.org/2000/svg">
<g clip-path="url(#clip0_514_2268)">
<path d="M3.21415 12.8574H5.357C5.64116 12.8574 5.91369 12.9703 6.11462 13.1712C6.31555 13.3722 6.42843 13.6447 6.42843 13.9289V19.286C6.42843 19.5702 6.31555 19.8427 6.11462 20.0436C5.91369 20.2445 5.64116 20.3574 5.357 20.3574H3.21415C2.64583 20.3574 2.10078 20.1317 1.69892 19.7298C1.29705 19.3279 1.07129 18.7829 1.07129 18.2146V15.0003C1.07129 14.432 1.29705 13.8869 1.69892 13.4851C2.10078 13.0832 2.64583 12.8574 3.21415 12.8574V12.8574Z" stroke="#D5B471" stroke-width="1.5" stroke-linecap="round" stroke-linejoin="round"/>
<path d="M26.7854 20.3574H24.6425C24.3583 20.3574 24.0858 20.2445 23.8849 20.0436C23.684 19.8427 23.5711 19.5702 23.5711 19.286V13.9289C23.5711 13.6447 23.684 13.3722 23.8849 13.1712C24.0858 12.9703 24.3583 12.8574 24.6425 12.8574H26.7854C27.3537 12.8574 27.8987 13.0832 28.3006 13.4851C28.7025 13.8869 28.9282 14.432 28.9282 15.0003V18.2146C28.9282 18.7829 28.7025 19.3279 28.3006 19.7298C27.8987 20.1317 27.3537 20.3574 26.7854 20.3574V20.3574Z" stroke="#D5B471" stroke-width="1.5" stroke-linecap="round" stroke-linejoin="round"/>
<path d="M20.3569 26.2503C21.4936 26.2503 22.5837 25.7987 23.3874 24.995C24.1911 24.1913 24.6426 23.1012 24.6426 21.9646V20.3574" stroke="#D5B471" stroke-width="1.5" stroke-linecap="round" stroke-linejoin="round"/>
<path d="M17.6785 23.5723C18.3889 23.5723 19.0702 23.8545 19.5725 24.3568C20.0749 24.8591 20.3571 25.5404 20.3571 26.2508C20.3571 26.9612 20.0749 27.6425 19.5725 28.1449C19.0702 28.6472 18.3889 28.9294 17.6785 28.9294H14.4642C13.7538 28.9294 13.0725 28.6472 12.5702 28.1449C12.0679 27.6425 11.7856 26.9612 11.7856 26.2508C11.7856 25.5404 12.0679 24.8591 12.5702 24.3568C13.0725 23.8545 13.7538 23.5723 14.4642 23.5723H17.6785Z" stroke="#D5B471" stroke-width="1.5" stroke-linecap="round" stroke-linejoin="round"/>
<path d="M5.35693 12.858V10.7151C5.35693 8.15768 6.37287 5.70498 8.18126 3.89659C9.98965 2.08821 12.4423 1.07227 14.9998 1.07227C17.5572 1.07227 20.0099 2.08821 21.8183 3.89659C23.6267 5.70498 24.6426 8.15768 24.6426 10.7151V12.858" stroke="#D5B471" stroke-width="1.5" stroke-linecap="round" stroke-linejoin="round"/>
<path d="M11.7856 8.57227V11.7866" stroke="#D5B471" stroke-width="1.5" stroke-linecap="round" stroke-linejoin="round"/>
<path d="M18.2144 8.57227V11.7866" stroke="#D5B471" stroke-width="1.5" stroke-linecap="round" stroke-linejoin="round"/>
<path d="M11.7856 16.0723C11.7856 18.9223 18.2142 18.9223 18.2142 16.0723" stroke="#D5B471" stroke-width="1.5" stroke-linecap="round" stroke-linejoin="round"/>
</g>
<defs>
<clipPath id="clip0_514_2268">
<rect width="30" height="30" fill="white"/>
</clipPath>
</defs>
</svg>
