<svg width="24" height="24" viewBox="0 0 24 24" fill="none" xmlns="http://www.w3.org/2000/svg">
<g clip-path="url(#clip0_407_3454)">
<path d="M12 7.71498V5.14355" stroke="#6D1731" stroke-width="1.5" stroke-linecap="round" stroke-linejoin="round"/>
<path d="M9.42871 14.572C9.42871 15.8577 10.5773 16.2863 12.0001 16.2863C13.423 16.2863 14.5716 16.2863 14.5716 14.572C14.5716 12.0006 9.42871 12.0006 9.42871 9.42913C9.42871 7.71484 10.5773 7.71484 12.0001 7.71484C13.423 7.71484 14.5716 8.36627 14.5716 9.42913" stroke="#6D1731" stroke-width="1.5" stroke-linecap="round" stroke-linejoin="round"/>
<path d="M12.0001 16.2861V18.8576" stroke="#6D1731" stroke-width="1.5" stroke-linecap="round" stroke-linejoin="round"/>
<path d="M12.0003 23.1431C18.1543 23.1431 23.1431 18.1543 23.1431 12.0003C23.1431 5.84625 18.1543 0.857422 12.0003 0.857422C5.84625 0.857422 0.857422 5.84625 0.857422 12.0003C0.857422 18.1543 5.84625 23.1431 12.0003 23.1431Z" stroke="#6D1731" stroke-width="1.5" stroke-linecap="round" stroke-linejoin="round"/>
</g>
<defs>
<clipPath id="clip0_407_3454">
<rect width="24" height="24" fill="white"/>
</clipPath>
</defs>
</svg>
