<svg width="60" height="60" viewBox="0 0 60 60" fill="none" xmlns="http://www.w3.org/2000/svg">
<path d="M58.274 2H1.72598C0.774134 2 0 2.83922 0 3.87097V56.7901C0 57.8213 0.774134 58.66 1.72598 58.66H58.274C59.2259 58.66 60 57.8213 60 56.7901V3.87097C60 2.83922 59.2259 2 58.274 2ZM30.9561 45.6167V36.8344H40.0317C40.0826 36.8433 40.1284 36.8672 40.1815 36.8672C40.2345 36.8672 40.2804 36.8433 40.3312 36.8344H49.404V45.6167H30.9561ZM1.93582 45.6167V36.8344H8.63656V45.6167H1.93582ZM29.0203 15.0086V23.8268H10.5724V15.0086H29.0203ZM58.0642 15.0086V23.8268H51.3398V15.0086H58.0642ZM58.0642 34.7371H41.1494V25.9241H58.0642V34.7371ZM20.7628 34.7371V25.9241H39.2136V34.7371H20.7628ZM1.93582 34.7371V25.9241H18.827V34.7371H1.93582ZM49.404 23.8268H30.9561V15.0086H49.4041L49.404 23.8268ZM20.7628 12.9114V4.09727H39.2108V12.9114H20.7628ZM8.63656 23.8268H1.93582V15.0086H8.63656V23.8268ZM10.5724 36.8344H19.6452C19.696 36.8433 19.7419 36.8672 19.7949 36.8672C19.8479 36.8672 19.8938 36.8433 19.9446 36.8344H29.0202V45.6167H10.5724V36.8344ZM39.2108 47.7139V56.5628H20.7628V47.7139H39.2108ZM51.3398 36.8344H58.0642V45.6167H51.3398V36.8344ZM58.0642 12.9114H41.1466V4.09727H58.0642V12.9114ZM18.827 4.09727V12.9114H1.93582V4.09727H18.827ZM1.93582 47.7139H18.827V56.5628H1.93582V47.7139ZM41.1466 56.5628V47.7139H58.0642V56.5628H41.1466Z" fill="#D5B471"/>
</svg>
