<svg width="50" height="50" viewBox="0 0 50 50" fill="none" xmlns="http://www.w3.org/2000/svg">
<path d="M5 5V45H45V5H5ZM5.97561 35.7317C7.26779 36.6317 8.79214 37.1398 10.3659 37.1951C11.4941 37.1748 12.6032 36.8995 13.6101 36.3899C13.1004 37.3967 12.8251 38.5058 12.8049 39.6341C12.8601 41.2079 13.3682 42.7323 14.2683 44.0244H11.158C11.0413 42.6892 10.4578 41.4378 9.51 40.49C8.56224 39.5422 7.31085 38.9587 5.97561 38.8419V35.7317ZM25 33.9613C24.1159 32.7766 23.6062 31.3546 23.5366 29.878C23.608 28.4018 24.1175 26.9803 25 25.7948C25.8841 26.9795 26.3938 28.4015 26.4634 29.878C26.392 31.3543 25.8825 32.7758 25 33.9613ZM25 24.2052C24.1159 23.0205 23.6062 21.5985 23.5366 20.122C23.608 18.6457 24.1175 17.2242 25 16.0387C25.8841 17.2234 26.3938 18.6454 26.4634 20.122C26.392 21.5982 25.8825 23.0197 25 24.2052ZM23.3668 23.3662C22.3598 22.8565 21.2505 22.5812 20.122 22.561C18.9937 22.5813 17.8846 22.8566 16.8777 23.3662C17.3874 22.3594 17.6627 21.2503 17.6829 20.122C17.6627 18.9936 17.3874 17.8845 16.8777 16.8777C17.8846 17.3873 18.9937 17.6626 20.122 17.6829C21.2502 17.6626 22.3593 17.3873 23.3662 16.8777C22.8565 17.8845 22.5812 18.9936 22.561 20.122C22.5812 21.2503 22.8571 22.3594 23.3668 23.3662ZM24.2052 25C23.0203 25.8837 21.5984 26.3933 20.122 26.4634C18.6458 26.3917 17.2243 25.8823 16.0387 25C17.2236 24.1163 18.6455 23.6067 20.122 23.5366C21.5981 23.6083 23.0196 24.1177 24.2052 25ZM20.122 27.439C21.2502 27.4187 22.3593 27.1434 23.3662 26.6338C22.8565 27.6406 22.5812 28.7497 22.561 29.878C22.5812 31.0064 22.8565 32.1155 23.3662 33.1223C22.3593 32.6127 21.2502 32.3374 20.122 32.3171C18.9937 32.3374 17.8846 32.6127 16.8777 33.1223C17.3874 32.1155 17.6627 31.0064 17.6829 29.878C17.6627 28.7497 17.3874 27.6406 16.8777 26.6338C17.8846 27.1434 18.9937 27.4187 20.122 27.439ZM26.6338 26.6338C27.6407 27.1434 28.7498 27.4187 29.878 27.439C31.0063 27.4187 32.1154 27.1434 33.1223 26.6338C32.6126 27.6406 32.3373 28.7497 32.3171 29.878C32.3373 31.0064 32.6126 32.1155 33.1223 33.1223C32.1154 32.6127 31.0063 32.3374 29.878 32.3171C28.7498 32.3374 27.6407 32.6127 26.6338 33.1223C27.1435 32.1155 27.4188 31.0064 27.439 29.878C27.4188 28.7497 27.1435 27.6406 26.6338 26.6338ZM25.7948 25C26.9797 24.1163 28.4016 23.6067 29.878 23.5366C31.3542 23.6083 32.7757 24.1177 33.9613 25C32.7764 25.8837 31.3545 26.3933 29.878 26.4634C28.4019 26.3917 26.9804 25.8823 25.7948 25ZM29.878 22.561C28.7498 22.5813 27.6407 22.8566 26.6338 23.3662C27.1435 22.3594 27.4188 21.2503 27.439 20.122C27.4188 18.9936 27.1435 17.8845 26.6338 16.8777C27.6407 17.3873 28.7498 17.6626 29.878 17.6829C31.0063 17.6626 32.1154 17.3873 33.1223 16.8777C32.6126 17.8845 32.3373 18.9936 32.3171 20.122C32.3373 21.2503 32.6126 22.3594 33.1223 23.3662C32.1154 22.8566 31.0063 22.5813 29.878 22.561ZM29.878 16.7073C28.4019 16.6356 26.9804 16.1262 25.7948 15.2439C26.9797 14.3602 28.4016 13.8506 29.878 13.7805C31.3542 13.8522 32.7757 14.3616 33.9613 15.2439C32.7764 16.1276 31.3545 16.6372 29.878 16.7073ZM25 14.4491C24.1159 13.2644 23.6062 11.8424 23.5366 10.3659C23.608 8.88963 24.1175 7.46812 25 6.2826C25.8841 7.46727 26.3938 8.88928 26.4634 10.3659C26.392 11.8421 25.8825 13.2636 25 14.4491ZM20.122 16.7073C18.6458 16.6356 17.2243 16.1262 16.0387 15.2439C17.2236 14.3602 18.6455 13.8506 20.122 13.7805C21.5981 13.8522 23.0196 14.3616 24.2052 15.2439C23.0203 16.1276 21.5984 16.6372 20.122 16.7073ZM15.2439 14.4491C14.3598 13.2644 13.8501 11.8424 13.7805 10.3659C13.8519 8.88963 14.3614 7.46812 15.2439 6.2826C16.128 7.46727 16.6377 8.88928 16.7073 10.3659C16.6359 11.8421 16.1264 13.2636 15.2439 14.4491ZM15.2439 16.0387C16.128 17.2234 16.6377 18.6454 16.7073 20.122C16.6359 21.5982 16.1264 23.0197 15.2439 24.2052C14.3598 23.0205 13.8501 21.5985 13.7805 20.122C13.8519 18.6457 14.3614 17.2242 15.2439 16.0387ZM15.2439 25.7948C16.128 26.9795 16.6377 28.4015 16.7073 29.878C16.6359 31.3543 16.1264 32.7758 15.2439 33.9613C14.3598 32.7766 13.8501 31.3546 13.7805 29.878C13.8519 28.4018 14.3614 26.9803 15.2439 25.7948ZM15.2439 35.5509C16.128 36.7356 16.6377 38.1576 16.7073 39.6341C16.6359 41.1104 16.1264 42.5319 15.2439 43.7174C14.3598 42.5327 13.8501 41.1107 13.7805 39.6341C13.8519 38.1579 14.3614 36.7364 15.2439 35.5509ZM20.122 33.2927C21.5981 33.3644 23.0196 33.8738 24.2052 34.7561C23.0203 35.6398 21.5984 36.1494 20.122 36.2195C18.6458 36.1478 17.2243 35.6384 16.0387 34.7561C17.2236 33.8724 18.6455 33.3628 20.122 33.2927ZM25 35.5509C25.8841 36.7356 26.3938 38.1576 26.4634 39.6341C26.392 41.1104 25.8825 42.5319 25 43.7174C24.1159 42.5327 23.6062 41.1107 23.5366 39.6341C23.608 38.1579 24.1175 36.7364 25 35.5509ZM29.878 33.2927C31.3542 33.3644 32.7757 33.8738 33.9613 34.7561C32.7764 35.6398 31.3545 36.1494 29.878 36.2195C28.4019 36.1478 26.9804 35.6384 25.7948 34.7561C26.9797 33.8724 28.4016 33.3628 29.878 33.2927ZM34.7561 35.5509C35.6402 36.7356 36.1499 38.1576 36.2195 39.6341C36.1481 41.1104 35.6386 42.5319 34.7561 43.7174C33.872 42.5327 33.3623 41.1107 33.2927 39.6341C33.3641 38.1579 33.8736 36.7364 34.7561 35.5509ZM34.7561 33.9613C33.872 32.7766 33.3623 31.3546 33.2927 29.878C33.3641 28.4018 33.8736 26.9803 34.7561 25.7948C35.6402 26.9795 36.1499 28.4015 36.2195 29.878C36.1481 31.3543 35.6386 32.7758 34.7561 33.9613ZM34.7561 24.2052C33.872 23.0205 33.3623 21.5985 33.2927 20.122C33.3641 18.6457 33.8736 17.2242 34.7561 16.0387C35.6402 17.2234 36.1499 18.6454 36.2195 20.122C36.1481 21.5982 35.6386 23.0197 34.7561 24.2052ZM34.7561 14.4491C33.872 13.2644 33.3623 11.8424 33.2927 10.3659C33.3641 8.88963 33.8736 7.46812 34.7561 6.2826C35.6402 7.46727 36.1499 8.88928 36.2195 10.3659C36.1481 11.8421 35.6386 13.2636 34.7561 14.4491ZM32.3171 10.3659C32.3373 11.4942 32.6126 12.6033 33.1223 13.6101C32.1154 13.1005 31.0063 12.8252 29.878 12.8049C28.7498 12.8252 27.6407 13.1005 26.6338 13.6101C27.1435 12.6033 27.4188 11.4942 27.439 10.3659C27.3838 8.79212 26.8757 7.26774 25.9756 5.97561H33.7805C32.8804 7.26774 32.3723 8.79212 32.3171 10.3659ZM22.561 10.3659C22.5812 11.4942 22.8565 12.6033 23.3662 13.6101C22.3593 13.1005 21.2502 12.8252 20.122 12.8049C18.9937 12.8252 17.8846 13.1005 16.8777 13.6101C17.3874 12.6033 17.6627 11.4942 17.6829 10.3659C17.6277 8.79212 17.1196 7.26774 16.2195 5.97561H24.0244C23.1243 7.26774 22.6162 8.79212 22.561 10.3659ZM12.8049 10.3659C12.8251 11.4942 13.1004 12.6033 13.6101 13.6101C12.6032 13.1005 11.4941 12.8252 10.3659 12.8049C8.79214 12.8602 7.26779 13.3683 5.97561 14.2683V11.158C7.31085 11.0413 8.56224 10.4578 9.51 9.51C10.4578 8.56224 11.0413 7.31085 11.158 5.97561H14.2683C13.3682 7.26774 12.8601 8.79212 12.8049 10.3659ZM14.4491 15.2439C13.2642 16.1276 11.8423 16.6372 10.3659 16.7073C8.88968 16.6356 7.46825 16.1262 6.2826 15.2439C7.46748 14.3602 8.88936 13.8506 10.3659 13.7805C11.842 13.8522 13.2635 14.3616 14.4491 15.2439ZM10.3659 17.6829C11.4941 17.6626 12.6032 17.3873 13.6101 16.8777C13.1004 17.8845 12.8251 18.9936 12.8049 20.122C12.8251 21.2503 13.1004 22.3594 13.6101 23.3662C12.6032 22.8566 11.4941 22.5813 10.3659 22.561C8.79214 22.6163 7.26779 23.1244 5.97561 24.0244V16.2195C7.26779 17.1195 8.79214 17.6276 10.3659 17.6829ZM14.4491 25C13.2642 25.8837 11.8423 26.3933 10.3659 26.4634C8.88968 26.3917 7.46825 25.8823 6.2826 25C7.46748 24.1163 8.88936 23.6067 10.3659 23.5366C11.842 23.6083 13.2635 24.1177 14.4491 25ZM10.3659 27.439C11.4941 27.4187 12.6032 27.1434 13.6101 26.6338C13.1004 27.6406 12.8251 28.7497 12.8049 29.878C12.8251 31.0064 13.1004 32.1155 13.6101 33.1223C12.6032 32.6127 11.4941 32.3374 10.3659 32.3171C8.79214 32.3724 7.26779 32.8805 5.97561 33.7805V25.9756C7.26779 26.8756 8.79214 27.3837 10.3659 27.439ZM14.4491 34.7561C13.2642 35.6398 11.8423 36.1494 10.3659 36.2195C8.88968 36.1478 7.46825 35.6384 6.2826 34.7561C7.46748 33.8724 8.88936 33.3628 10.3659 33.2927C11.842 33.3644 13.2635 33.8738 14.4491 34.7561ZM17.6829 39.6341C17.6627 38.5058 17.3874 37.3967 16.8777 36.3899C17.8846 36.8995 18.9937 37.1748 20.122 37.1951C21.2502 37.1748 22.3593 36.8995 23.3662 36.3899C22.8565 37.3967 22.5812 38.5058 22.561 39.6341C22.6162 41.2079 23.1243 42.7323 24.0244 44.0244H16.2195C17.1196 42.7323 17.6277 41.2079 17.6829 39.6341ZM27.439 39.6341C27.4188 38.5058 27.1435 37.3967 26.6338 36.3899C27.6407 36.8995 28.7498 37.1748 29.878 37.1951C31.0063 37.1748 32.1154 36.8995 33.1223 36.3899C32.6126 37.3967 32.3373 38.5058 32.3171 39.6341C32.3723 41.2079 32.8804 42.7323 33.7805 44.0244H25.9756C26.8757 42.7323 27.3838 41.2079 27.439 39.6341ZM37.1951 39.6341C37.1749 38.5058 36.8996 37.3967 36.3899 36.3899C37.3968 36.8995 38.5059 37.1748 39.6341 37.1951C41.2079 37.1398 42.7322 36.6317 44.0244 35.7317V38.8413C42.6892 38.9581 41.4378 39.5416 40.49 40.4893C39.5422 41.4371 38.9587 42.6885 38.8419 44.0237H35.7317C36.6316 42.7318 37.1398 41.2077 37.1951 39.6341ZM35.5509 34.7561C36.7358 33.8724 38.1577 33.3628 39.6341 33.2927C41.1103 33.3644 42.5317 33.8738 43.7174 34.7561C42.5325 35.6398 41.1106 36.1494 39.6341 36.2195C38.158 36.1478 36.7365 35.6384 35.5509 34.7561ZM39.6341 32.3171C38.5059 32.3374 37.3968 32.6127 36.3899 33.1223C36.8996 32.1155 37.1749 31.0064 37.1951 29.878C37.1749 28.7497 36.8996 27.6406 36.3899 26.6338C37.3968 27.1434 38.5059 27.4187 39.6341 27.439C41.2079 27.3837 42.7322 26.8756 44.0244 25.9756V33.7805C42.7322 32.8805 41.2079 32.3724 39.6341 32.3171ZM35.5509 25C36.7358 24.1163 38.1577 23.6067 39.6341 23.5366C41.1103 23.6083 42.5317 24.1177 43.7174 25C42.5325 25.8837 41.1106 26.3933 39.6341 26.4634C38.158 26.3917 36.7365 25.8823 35.5509 25ZM39.6341 22.561C38.5059 22.5813 37.3968 22.8566 36.3899 23.3662C36.8996 22.3594 37.1749 21.2503 37.1951 20.122C37.1749 18.9936 36.8996 17.8845 36.3899 16.8777C37.3968 17.3873 38.5059 17.6626 39.6341 17.6829C41.2079 17.6276 42.7322 17.1195 44.0244 16.2195V24.0244C42.7322 23.1244 41.2079 22.6163 39.6341 22.561ZM35.5509 15.2439C36.7358 14.3602 38.1577 13.8506 39.6341 13.7805C41.1103 13.8522 42.5317 14.3616 43.7174 15.2439C42.5325 16.1276 41.1106 16.6372 39.6341 16.7073C38.158 16.6356 36.7365 16.1262 35.5509 15.2439ZM39.6341 12.8049C38.5059 12.8252 37.3968 13.1005 36.3899 13.6101C36.8996 12.6033 37.1749 11.4942 37.1951 10.3659C37.1399 8.79212 36.6318 7.26774 35.7317 5.97561H38.8413C38.9581 7.31085 39.5416 8.56224 40.4893 9.51C41.4371 10.4578 42.6885 11.0413 44.0237 11.158V14.2683C42.7317 13.3685 41.2076 12.8604 39.6341 12.8049ZM44.0244 10.1779C42.9487 10.0644 41.9445 9.58521 41.1796 8.82035C40.4148 8.05549 39.9356 7.05131 39.8221 5.97561H44.0244V10.1779ZM10.1779 5.97561C10.0644 7.05131 9.58521 8.05549 8.82035 8.82035C8.05549 9.58521 7.05131 10.0644 5.97561 10.1779V5.97561H10.1779ZM5.97561 39.8221C7.05131 39.9356 8.05549 40.4148 8.82035 41.1796C9.58521 41.9445 10.0644 42.9487 10.1779 44.0244H5.97561V39.8221ZM39.8221 44.0244C39.9356 42.9487 40.4148 41.9445 41.1796 41.1796C41.9445 40.4148 42.9487 39.9356 44.0244 39.8221V44.0244H39.8221Z" fill="#D5B471"/>
</svg>
