<svg width="56" height="64" viewBox="0 0 56 64" fill="none" xmlns="http://www.w3.org/2000/svg">
<path d="M43.7701 45.0612C40.5517 47.6735 36.046 49.6327 31.5402 49.6327C21.2414 49.6327 14.1609 41.7959 14.1609 31.3469C14.1609 20.898 21.2414 13.7143 31.5402 13.7143C36.046 13.7143 40.5517 15.0204 43.7701 18.2857L45.7012 20.2449L56 10.449L53.4253 8.48979C47.6322 3.26529 39.9081 0 31.5402 0C13.5173 0 0 13.7143 0 32C0 50.2857 13.5173 64 31.5402 64C39.9081 64 47.6322 60.7347 53.4253 55.5102L56 53.551L45.7012 43.102L43.7701 45.0612Z" fill="#6D1731"/>
<path d="M30.8966 42.4488C36.5845 42.4488 41.1954 37.7706 41.1954 31.9998C41.1954 26.229 36.5845 21.5508 30.8966 21.5508C25.2087 21.5508 20.5977 26.229 20.5977 31.9998C20.5977 37.7706 25.2087 42.4488 30.8966 42.4488Z" fill="#D5B471"/>
</svg>
