<svg width="80" height="80" viewBox="0 0 80 80" fill="none" xmlns="http://www.w3.org/2000/svg">
<g clip-path="url(#clip0_701_6585)">
<path d="M64.5293 68.818H4.95593C2.64482 68.818 0.760376 66.9335 0.760376 64.6224V5.04907C0.760376 2.73796 2.64482 0.853516 4.95593 0.853516H64.5471C66.8582 0.853516 68.7426 2.73796 68.7426 5.04907V64.6402C68.7426 66.9513 66.8582 68.818 64.5293 68.818ZM4.95593 2.61352C3.6226 2.61352 2.53815 3.69796 2.53815 5.03129V64.6224C2.53815 65.9557 3.6226 67.0402 4.95593 67.0402H64.5471C65.8804 67.0402 66.9648 65.9557 66.9648 64.6224V5.04907C66.9648 3.71574 65.8804 2.63129 64.5471 2.63129H4.95593V2.61352Z" fill="#D5B471"/>
<path d="M69.8492 74.1326H10.2581C7.94694 74.1326 6.0625 72.2482 6.0625 69.937V67.9459C6.0625 67.4482 6.45361 67.0571 6.95139 67.0571C7.44917 67.0571 7.84028 67.4482 7.84028 67.9459V69.937C7.84028 71.2704 8.92472 72.3548 10.2581 72.3548H69.8492C71.1825 72.3548 72.2669 71.2704 72.2669 69.937V10.3459C72.2669 9.01261 71.1825 7.92817 69.8492 7.92817H67.8581C67.3603 7.92817 66.9692 7.53706 66.9692 7.03928C66.9692 6.5415 67.3603 6.15039 67.8581 6.15039H69.8492C72.1603 6.15039 74.0447 8.03484 74.0447 10.3459V69.937C74.0447 72.2482 72.1603 74.1326 69.8492 74.1326Z" fill="#D5B471"/>
<path d="M75.123 79.4139H15.5497C13.2386 79.4139 11.3541 77.5294 11.3541 75.2183V73.2272C11.3541 72.7294 11.7452 72.3383 12.243 72.3383C12.7408 72.3383 13.1319 72.7294 13.1319 73.2272V75.2183C13.1319 76.5516 14.2163 77.6361 15.5497 77.6361H75.1408C76.4741 77.6361 77.5586 76.5516 77.5586 75.2183V15.6272C77.5586 14.2939 76.4741 13.2094 75.1408 13.2094H73.1497C72.6519 13.2094 72.2608 12.8183 72.2608 12.3205C72.2608 11.8228 72.6519 11.4316 73.1497 11.4316H75.1408C77.4519 11.4316 79.3363 13.3161 79.3363 15.6272V75.2183C79.3363 77.5294 77.4519 79.4139 75.123 79.4139Z" fill="#D5B471"/>
<path fill-rule="evenodd" clip-rule="evenodd" d="M7.01996 6.57776C7.48218 6.57776 7.87329 6.18665 7.87329 5.72443C7.87329 5.26221 7.48218 4.87109 7.01996 4.87109C6.55774 4.87109 6.16663 5.26221 6.16663 5.72443C6.16663 6.18665 6.53996 6.57776 7.01996 6.57776Z" fill="#D5B471"/>
<path fill-rule="evenodd" clip-rule="evenodd" d="M11.2803 6.57776C11.7426 6.57776 12.1337 6.18665 12.1337 5.72443C12.1337 5.26221 11.7426 4.87109 11.2803 4.87109C10.8181 4.87109 10.427 5.26221 10.427 5.72443C10.427 6.18665 10.8003 6.57776 11.2803 6.57776Z" fill="#D5B471"/>
<path fill-rule="evenodd" clip-rule="evenodd" d="M15.5512 6.57776C16.0134 6.57776 16.4045 6.18665 16.4045 5.72443C16.4045 5.26221 16.0134 4.87109 15.5512 4.87109C15.089 4.87109 14.6979 5.26221 14.6979 5.72443C14.6979 6.18665 15.0712 6.57776 15.5512 6.57776Z" fill="#D5B471"/>
<path fill-rule="evenodd" clip-rule="evenodd" d="M19.8221 6.57776C20.2843 6.57776 20.6754 6.18665 20.6754 5.72443C20.6754 5.26221 20.2843 4.87109 19.8221 4.87109C19.3599 4.87109 18.9688 5.26221 18.9688 5.72443C18.9688 6.18665 19.3421 6.57776 19.8221 6.57776Z" fill="#D5B471"/>
<path fill-rule="evenodd" clip-rule="evenodd" d="M24.0825 6.57776C24.5447 6.57776 24.9358 6.18665 24.9358 5.72443C24.9358 5.26221 24.5447 4.87109 24.0825 4.87109C23.6202 4.87109 23.2291 5.26221 23.2291 5.72443C23.2291 6.18665 23.6025 6.57776 24.0825 6.57776Z" fill="#D5B471"/>
<path fill-rule="evenodd" clip-rule="evenodd" d="M28.3533 6.57776C28.8156 6.57776 29.2067 6.18665 29.2067 5.72443C29.2067 5.26221 28.8156 4.87109 28.3533 4.87109C27.8911 4.87109 27.5 5.26221 27.5 5.72443C27.5 6.18665 27.8733 6.57776 28.3533 6.57776Z" fill="#D5B471"/>
<path fill-rule="evenodd" clip-rule="evenodd" d="M32.6241 6.57776C33.0863 6.57776 33.4774 6.18665 33.4774 5.72443C33.4774 5.26221 33.0863 4.87109 32.6241 4.87109C32.1619 4.87109 31.7708 5.26221 31.7708 5.72443C31.7708 6.18665 32.1441 6.57776 32.6241 6.57776Z" fill="#D5B471"/>
<path fill-rule="evenodd" clip-rule="evenodd" d="M36.8846 6.57776C37.3468 6.57776 37.7379 6.18665 37.7379 5.72443C37.7379 5.26221 37.3468 4.87109 36.8846 4.87109C36.4224 4.87109 36.0312 5.26221 36.0312 5.72443C36.0312 6.18665 36.4046 6.57776 36.8846 6.57776Z" fill="#D5B471"/>
<path fill-rule="evenodd" clip-rule="evenodd" d="M41.145 6.57776C41.6072 6.57776 41.9983 6.18665 41.9983 5.72443C41.9983 5.26221 41.6072 4.87109 41.145 4.87109C40.6827 4.87109 40.2916 5.26221 40.2916 5.72443C40.2916 6.18665 40.665 6.57776 41.145 6.57776Z" fill="#D5B471"/>
<path fill-rule="evenodd" clip-rule="evenodd" d="M45.4158 6.57776C45.8781 6.57776 46.2692 6.18665 46.2692 5.72443C46.2692 5.26221 45.8781 4.87109 45.4158 4.87109C44.9536 4.87109 44.5625 5.26221 44.5625 5.72443C44.5625 6.18665 44.9358 6.57776 45.4158 6.57776Z" fill="#D5B471"/>
<path fill-rule="evenodd" clip-rule="evenodd" d="M49.6866 6.57776C50.1488 6.57776 50.5399 6.18665 50.5399 5.72443C50.5399 5.26221 50.1488 4.87109 49.6866 4.87109C49.2244 4.87109 48.8333 5.26221 48.8333 5.72443C48.8333 6.18665 49.2066 6.57776 49.6866 6.57776Z" fill="#D5B471"/>
<path fill-rule="evenodd" clip-rule="evenodd" d="M53.9575 6.57776C54.4197 6.57776 54.8108 6.18665 54.8108 5.72443C54.8108 5.26221 54.4197 4.87109 53.9575 4.87109C53.4952 4.87109 53.1041 5.26221 53.1041 5.72443C53.1041 6.18665 53.4775 6.57776 53.9575 6.57776Z" fill="#D5B471"/>
<path fill-rule="evenodd" clip-rule="evenodd" d="M58.2178 6.57776C58.6801 6.57776 59.0712 6.18665 59.0712 5.72443C59.0712 5.26221 58.6801 4.87109 58.2178 4.87109C57.7556 4.87109 57.3645 5.26221 57.3645 5.72443C57.3645 6.18665 57.7378 6.57776 58.2178 6.57776Z" fill="#D5B471"/>
<path fill-rule="evenodd" clip-rule="evenodd" d="M62.4783 6.57776C62.9406 6.57776 63.3317 6.18665 63.3317 5.72443C63.3317 5.26221 62.9406 4.87109 62.4783 4.87109C62.0161 4.87109 61.625 5.26221 61.625 5.72443C61.625 6.18665 61.9983 6.57776 62.4783 6.57776Z" fill="#D5B471"/>
<path fill-rule="evenodd" clip-rule="evenodd" d="M7.01996 11.0582C7.48218 11.0582 7.87329 10.6671 7.87329 10.2049C7.87329 9.74267 7.48218 9.35156 7.01996 9.35156C6.55774 9.35156 6.16663 9.74267 6.16663 10.2049C6.16663 10.6671 6.53996 11.0582 7.01996 11.0582Z" fill="#D5B471"/>
<path fill-rule="evenodd" clip-rule="evenodd" d="M11.2803 11.0582C11.7426 11.0582 12.1337 10.6671 12.1337 10.2049C12.1337 9.74267 11.7426 9.35156 11.2803 9.35156C10.8181 9.35156 10.427 9.74267 10.427 10.2049C10.427 10.6671 10.8003 11.0582 11.2803 11.0582Z" fill="#D5B471"/>
<path fill-rule="evenodd" clip-rule="evenodd" d="M15.5512 11.0582C16.0134 11.0582 16.4045 10.6671 16.4045 10.2049C16.4045 9.74267 16.0134 9.35156 15.5512 9.35156C15.089 9.35156 14.6979 9.74267 14.6979 10.2049C14.6979 10.6671 15.0712 11.0582 15.5512 11.0582Z" fill="#D5B471"/>
<path fill-rule="evenodd" clip-rule="evenodd" d="M19.8221 11.0582C20.2843 11.0582 20.6754 10.6671 20.6754 10.2049C20.6754 9.74267 20.2843 9.35156 19.8221 9.35156C19.3599 9.35156 18.9688 9.74267 18.9688 10.2049C18.9688 10.6671 19.3421 11.0582 19.8221 11.0582Z" fill="#D5B471"/>
<path fill-rule="evenodd" clip-rule="evenodd" d="M24.0825 11.0582C24.5447 11.0582 24.9358 10.6671 24.9358 10.2049C24.9358 9.74267 24.5447 9.35156 24.0825 9.35156C23.6202 9.35156 23.2291 9.74267 23.2291 10.2049C23.2291 10.6671 23.6025 11.0582 24.0825 11.0582Z" fill="#D5B471"/>
<path fill-rule="evenodd" clip-rule="evenodd" d="M28.3533 11.0582C28.8156 11.0582 29.2067 10.6671 29.2067 10.2049C29.2067 9.74267 28.8156 9.35156 28.3533 9.35156C27.8911 9.35156 27.5 9.74267 27.5 10.2049C27.5 10.6671 27.8733 11.0582 28.3533 11.0582Z" fill="#D5B471"/>
<path fill-rule="evenodd" clip-rule="evenodd" d="M32.6241 11.0582C33.0863 11.0582 33.4774 10.6671 33.4774 10.2049C33.4774 9.74267 33.0863 9.35156 32.6241 9.35156C32.1619 9.35156 31.7708 9.74267 31.7708 10.2049C31.7708 10.6671 32.1441 11.0582 32.6241 11.0582Z" fill="#D5B471"/>
<path fill-rule="evenodd" clip-rule="evenodd" d="M36.8846 11.0582C37.3468 11.0582 37.7379 10.6671 37.7379 10.2049C37.7379 9.74267 37.3468 9.35156 36.8846 9.35156C36.4224 9.35156 36.0312 9.74267 36.0312 10.2049C36.0312 10.6671 36.4046 11.0582 36.8846 11.0582Z" fill="#D5B471"/>
<path fill-rule="evenodd" clip-rule="evenodd" d="M41.145 11.0582C41.6072 11.0582 41.9983 10.6671 41.9983 10.2049C41.9983 9.74267 41.6072 9.35156 41.145 9.35156C40.6827 9.35156 40.2916 9.74267 40.2916 10.2049C40.2916 10.6671 40.665 11.0582 41.145 11.0582Z" fill="#D5B471"/>
<path fill-rule="evenodd" clip-rule="evenodd" d="M45.4158 11.0582C45.8781 11.0582 46.2692 10.6671 46.2692 10.2049C46.2692 9.74267 45.8781 9.35156 45.4158 9.35156C44.9536 9.35156 44.5625 9.74267 44.5625 10.2049C44.5625 10.6671 44.9358 11.0582 45.4158 11.0582Z" fill="#D5B471"/>
<path fill-rule="evenodd" clip-rule="evenodd" d="M49.6866 11.0582C50.1488 11.0582 50.5399 10.6671 50.5399 10.2049C50.5399 9.74267 50.1488 9.35156 49.6866 9.35156C49.2244 9.35156 48.8333 9.74267 48.8333 10.2049C48.8333 10.6671 49.2066 11.0582 49.6866 11.0582Z" fill="#D5B471"/>
<path fill-rule="evenodd" clip-rule="evenodd" d="M53.9575 11.0582C54.4197 11.0582 54.8108 10.6671 54.8108 10.2049C54.8108 9.74267 54.4197 9.35156 53.9575 9.35156C53.4952 9.35156 53.1041 9.74267 53.1041 10.2049C53.1041 10.6671 53.4775 11.0582 53.9575 11.0582Z" fill="#D5B471"/>
<path fill-rule="evenodd" clip-rule="evenodd" d="M58.2178 11.0582C58.6801 11.0582 59.0712 10.6671 59.0712 10.2049C59.0712 9.74267 58.6801 9.35156 58.2178 9.35156C57.7556 9.35156 57.3645 9.74267 57.3645 10.2049C57.3645 10.6671 57.7378 11.0582 58.2178 11.0582Z" fill="#D5B471"/>
<path fill-rule="evenodd" clip-rule="evenodd" d="M62.4783 11.0582C62.9406 11.0582 63.3317 10.6671 63.3317 10.2049C63.3317 9.74267 62.9406 9.35156 62.4783 9.35156C62.0161 9.35156 61.625 9.74267 61.625 10.2049C61.625 10.6671 61.9983 11.0582 62.4783 11.0582Z" fill="#D5B471"/>
<path fill-rule="evenodd" clip-rule="evenodd" d="M7.01996 15.5192C7.48218 15.5192 7.87329 15.1281 7.87329 14.6658C7.87329 14.2036 7.48218 13.8125 7.01996 13.8125C6.55774 13.8125 6.16663 14.2036 6.16663 14.6658C6.16663 15.1458 6.53996 15.5192 7.01996 15.5192Z" fill="#D5B471"/>
<path fill-rule="evenodd" clip-rule="evenodd" d="M11.2803 15.5211C11.7426 15.5211 12.1337 15.13 12.1337 14.6678C12.1337 14.2056 11.7426 13.8145 11.2803 13.8145C10.8181 13.8145 10.427 14.2056 10.427 14.6678C10.427 15.1478 10.8003 15.5211 11.2803 15.5211Z" fill="#D5B471"/>
<path fill-rule="evenodd" clip-rule="evenodd" d="M15.5512 15.5192C16.0134 15.5192 16.4045 15.1281 16.4045 14.6658C16.4045 14.2036 16.0134 13.8125 15.5512 13.8125C15.089 13.8125 14.6979 14.2036 14.6979 14.6658C14.6979 15.1458 15.0712 15.5192 15.5512 15.5192Z" fill="#D5B471"/>
<path fill-rule="evenodd" clip-rule="evenodd" d="M19.8221 15.5211C20.2843 15.5211 20.6754 15.13 20.6754 14.6678C20.6754 14.2056 20.2843 13.8145 19.8221 13.8145C19.3599 13.8145 18.9688 14.2056 18.9688 14.6678C18.9688 15.1478 19.3421 15.5211 19.8221 15.5211Z" fill="#D5B471"/>
<path fill-rule="evenodd" clip-rule="evenodd" d="M24.0825 15.5192C24.5447 15.5192 24.9358 15.1281 24.9358 14.6658C24.9358 14.2036 24.5447 13.8125 24.0825 13.8125C23.6202 13.8125 23.2291 14.2036 23.2291 14.6658C23.2291 15.1458 23.6025 15.5192 24.0825 15.5192Z" fill="#D5B471"/>
<path fill-rule="evenodd" clip-rule="evenodd" d="M28.3533 15.5211C28.8156 15.5211 29.2067 15.13 29.2067 14.6678C29.2067 14.2056 28.8156 13.8145 28.3533 13.8145C27.8911 13.8145 27.5 14.2056 27.5 14.6678C27.5 15.1478 27.8733 15.5211 28.3533 15.5211Z" fill="#D5B471"/>
<path fill-rule="evenodd" clip-rule="evenodd" d="M32.6241 15.5211C33.0863 15.5211 33.4774 15.13 33.4774 14.6678C33.4774 14.2056 33.0863 13.8145 32.6241 13.8145C32.1619 13.8145 31.7708 14.2056 31.7708 14.6678C31.7708 15.1478 32.1441 15.5211 32.6241 15.5211Z" fill="#D5B471"/>
<path fill-rule="evenodd" clip-rule="evenodd" d="M36.8846 15.5211C37.3468 15.5211 37.7379 15.13 37.7379 14.6678C37.7379 14.2056 37.3468 13.8145 36.8846 13.8145C36.4224 13.8145 36.0312 14.2056 36.0312 14.6678C36.0312 15.1478 36.4046 15.5211 36.8846 15.5211Z" fill="#D5B471"/>
<path fill-rule="evenodd" clip-rule="evenodd" d="M41.145 15.5211C41.6072 15.5211 41.9983 15.13 41.9983 14.6678C41.9983 14.2056 41.6072 13.8145 41.145 13.8145C40.6827 13.8145 40.2916 14.2056 40.2916 14.6678C40.2916 15.1478 40.665 15.5211 41.145 15.5211Z" fill="#D5B471"/>
<path fill-rule="evenodd" clip-rule="evenodd" d="M45.4158 15.5211C45.8781 15.5211 46.2692 15.13 46.2692 14.6678C46.2692 14.2056 45.8781 13.8145 45.4158 13.8145C44.9536 13.8145 44.5625 14.2056 44.5625 14.6678C44.5625 15.1478 44.9358 15.5211 45.4158 15.5211Z" fill="#D5B471"/>
<path fill-rule="evenodd" clip-rule="evenodd" d="M49.6866 15.5211C50.1488 15.5211 50.5399 15.13 50.5399 14.6678C50.5399 14.2056 50.1488 13.8145 49.6866 13.8145C49.2244 13.8145 48.8333 14.2056 48.8333 14.6678C48.8333 15.1478 49.2066 15.5211 49.6866 15.5211Z" fill="#D5B471"/>
<path fill-rule="evenodd" clip-rule="evenodd" d="M53.9575 15.5211C54.4197 15.5211 54.8108 15.13 54.8108 14.6678C54.8108 14.2056 54.4197 13.8145 53.9575 13.8145C53.4952 13.8145 53.1041 14.2056 53.1041 14.6678C53.1041 15.1478 53.4775 15.5211 53.9575 15.5211Z" fill="#D5B471"/>
<path fill-rule="evenodd" clip-rule="evenodd" d="M58.2178 15.5211C58.6801 15.5211 59.0712 15.13 59.0712 14.6678C59.0712 14.2056 58.6801 13.8145 58.2178 13.8145C57.7556 13.8145 57.3645 14.2056 57.3645 14.6678C57.3645 15.1478 57.7378 15.5211 58.2178 15.5211Z" fill="#D5B471"/>
<path fill-rule="evenodd" clip-rule="evenodd" d="M62.4783 15.5211C62.9406 15.5211 63.3317 15.13 63.3317 14.6678C63.3317 14.2056 62.9406 13.8145 62.4783 13.8145C62.0161 13.8145 61.625 14.2056 61.625 14.6678C61.625 15.1478 61.9983 15.5211 62.4783 15.5211Z" fill="#D5B471"/>
<path fill-rule="evenodd" clip-rule="evenodd" d="M7.01996 20.0192C7.48218 20.0192 7.87329 19.6281 7.87329 19.1658C7.87329 18.7036 7.48218 18.3125 7.01996 18.3125C6.55774 18.3125 6.16663 18.7036 6.16663 19.1658C6.16663 19.6281 6.53996 20.0192 7.01996 20.0192Z" fill="#D5B471"/>
<path fill-rule="evenodd" clip-rule="evenodd" d="M11.2803 20.0192C11.7426 20.0192 12.1337 19.6281 12.1337 19.1658C12.1337 18.7036 11.7426 18.3125 11.2803 18.3125C10.8181 18.3125 10.427 18.7036 10.427 19.1658C10.427 19.6281 10.8003 20.0192 11.2803 20.0192Z" fill="#D5B471"/>
<path fill-rule="evenodd" clip-rule="evenodd" d="M15.5512 20.0192C16.0134 20.0192 16.4045 19.6281 16.4045 19.1658C16.4045 18.7036 16.0134 18.3125 15.5512 18.3125C15.089 18.3125 14.6979 18.7036 14.6979 19.1658C14.6979 19.6281 15.0712 20.0192 15.5512 20.0192Z" fill="#D5B471"/>
<path fill-rule="evenodd" clip-rule="evenodd" d="M19.8221 20.0192C20.2843 20.0192 20.6754 19.6281 20.6754 19.1658C20.6754 18.7036 20.2843 18.3125 19.8221 18.3125C19.3599 18.3125 18.9688 18.7036 18.9688 19.1658C18.9688 19.6281 19.3421 20.0192 19.8221 20.0192Z" fill="#D5B471"/>
<path fill-rule="evenodd" clip-rule="evenodd" d="M24.0825 20.0192C24.5447 20.0192 24.9358 19.6281 24.9358 19.1658C24.9358 18.7036 24.5447 18.3125 24.0825 18.3125C23.6202 18.3125 23.2291 18.7036 23.2291 19.1658C23.2291 19.6281 23.6025 20.0192 24.0825 20.0192Z" fill="#D5B471"/>
<path fill-rule="evenodd" clip-rule="evenodd" d="M28.3533 20.0192C28.8156 20.0192 29.2067 19.6281 29.2067 19.1658C29.2067 18.7036 28.8156 18.3125 28.3533 18.3125C27.8911 18.3125 27.5 18.7036 27.5 19.1658C27.5 19.6281 27.8733 20.0192 28.3533 20.0192Z" fill="#D5B471"/>
<path fill-rule="evenodd" clip-rule="evenodd" d="M32.6241 20.0192C33.0863 20.0192 33.4774 19.6281 33.4774 19.1658C33.4774 18.7036 33.0863 18.3125 32.6241 18.3125C32.1619 18.3125 31.7708 18.7036 31.7708 19.1658C31.7708 19.6281 32.1441 20.0192 32.6241 20.0192Z" fill="#D5B471"/>
<path fill-rule="evenodd" clip-rule="evenodd" d="M36.8846 20.0192C37.3468 20.0192 37.7379 19.6281 37.7379 19.1658C37.7379 18.7036 37.3468 18.3125 36.8846 18.3125C36.4224 18.3125 36.0312 18.7036 36.0312 19.1658C36.0312 19.6281 36.4046 20.0192 36.8846 20.0192Z" fill="#D5B471"/>
<path fill-rule="evenodd" clip-rule="evenodd" d="M41.145 20.0192C41.6072 20.0192 41.9983 19.6281 41.9983 19.1658C41.9983 18.7036 41.6072 18.3125 41.145 18.3125C40.6827 18.3125 40.2916 18.7036 40.2916 19.1658C40.2916 19.6281 40.665 20.0192 41.145 20.0192Z" fill="#D5B471"/>
<path fill-rule="evenodd" clip-rule="evenodd" d="M45.4158 20.0192C45.8781 20.0192 46.2692 19.6281 46.2692 19.1658C46.2692 18.7036 45.8781 18.3125 45.4158 18.3125C44.9536 18.3125 44.5625 18.7036 44.5625 19.1658C44.5625 19.6281 44.9358 20.0192 45.4158 20.0192Z" fill="#D5B471"/>
<path fill-rule="evenodd" clip-rule="evenodd" d="M49.6866 20.0192C50.1488 20.0192 50.5399 19.6281 50.5399 19.1658C50.5399 18.7036 50.1488 18.3125 49.6866 18.3125C49.2244 18.3125 48.8333 18.7036 48.8333 19.1658C48.8333 19.6281 49.2066 20.0192 49.6866 20.0192Z" fill="#D5B471"/>
<path fill-rule="evenodd" clip-rule="evenodd" d="M53.9575 20.0192C54.4197 20.0192 54.8108 19.6281 54.8108 19.1658C54.8108 18.7036 54.4197 18.3125 53.9575 18.3125C53.4952 18.3125 53.1041 18.7036 53.1041 19.1658C53.1041 19.6281 53.4775 20.0192 53.9575 20.0192Z" fill="#D5B471"/>
<path fill-rule="evenodd" clip-rule="evenodd" d="M58.2178 20.0192C58.6801 20.0192 59.0712 19.6281 59.0712 19.1658C59.0712 18.7036 58.6801 18.3125 58.2178 18.3125C57.7556 18.3125 57.3645 18.7036 57.3645 19.1658C57.3645 19.6281 57.7378 20.0192 58.2178 20.0192Z" fill="#D5B471"/>
<path fill-rule="evenodd" clip-rule="evenodd" d="M62.4783 20.0192C62.9406 20.0192 63.3317 19.6281 63.3317 19.1658C63.3317 18.7036 62.9406 18.3125 62.4783 18.3125C62.0161 18.3125 61.625 18.7036 61.625 19.1658C61.625 19.6281 61.9983 20.0192 62.4783 20.0192Z" fill="#D5B471"/>
<path fill-rule="evenodd" clip-rule="evenodd" d="M7.01996 24.4977C7.48218 24.4977 7.87329 24.1066 7.87329 23.6443C7.87329 23.1821 7.48218 22.791 7.01996 22.791C6.55774 22.791 6.16663 23.1821 6.16663 23.6443C6.16663 24.1066 6.53996 24.4977 7.01996 24.4977Z" fill="#D5B471"/>
<path fill-rule="evenodd" clip-rule="evenodd" d="M11.2803 24.4977C11.7426 24.4977 12.1337 24.1066 12.1337 23.6443C12.1337 23.1821 11.7426 22.791 11.2803 22.791C10.8181 22.791 10.427 23.1821 10.427 23.6443C10.427 24.1066 10.8003 24.4977 11.2803 24.4977Z" fill="#D5B471"/>
<path fill-rule="evenodd" clip-rule="evenodd" d="M15.5515 24.4977C16.0137 24.4977 16.4048 24.1066 16.4048 23.6443C16.4048 23.1821 16.0137 22.791 15.5515 22.791C15.0892 22.791 14.6981 23.1821 14.6981 23.6443C14.6981 24.1066 15.0715 24.4977 15.5515 24.4977Z" fill="#D5B471"/>
<path fill-rule="evenodd" clip-rule="evenodd" d="M19.8221 24.4977C20.2843 24.4977 20.6754 24.1066 20.6754 23.6443C20.6754 23.1821 20.2843 22.791 19.8221 22.791C19.3599 22.791 18.9688 23.1821 18.9688 23.6443C18.9688 24.1066 19.3421 24.4977 19.8221 24.4977Z" fill="#D5B471"/>
<path fill-rule="evenodd" clip-rule="evenodd" d="M24.0825 24.4977C24.5447 24.4977 24.9358 24.1066 24.9358 23.6443C24.9358 23.1821 24.5447 22.791 24.0825 22.791C23.6202 22.791 23.2291 23.1821 23.2291 23.6443C23.2291 24.1066 23.6025 24.4977 24.0825 24.4977Z" fill="#D5B471"/>
<path fill-rule="evenodd" clip-rule="evenodd" d="M28.3533 24.4977C28.8156 24.4977 29.2067 24.1066 29.2067 23.6443C29.2067 23.1821 28.8156 22.791 28.3533 22.791C27.8911 22.791 27.5 23.1821 27.5 23.6443C27.5 24.1066 27.8733 24.4977 28.3533 24.4977Z" fill="#D5B471"/>
<path fill-rule="evenodd" clip-rule="evenodd" d="M32.6241 24.4977C33.0863 24.4977 33.4774 24.1066 33.4774 23.6443C33.4774 23.1821 33.0863 22.791 32.6241 22.791C32.1619 22.791 31.7708 23.1821 31.7708 23.6443C31.7708 24.1066 32.1441 24.4977 32.6241 24.4977Z" fill="#D5B471"/>
<path fill-rule="evenodd" clip-rule="evenodd" d="M36.8846 24.4977C37.3468 24.4977 37.7379 24.1066 37.7379 23.6443C37.7379 23.1821 37.3468 22.791 36.8846 22.791C36.4224 22.791 36.0312 23.1821 36.0312 23.6443C36.0312 24.1066 36.4046 24.4977 36.8846 24.4977Z" fill="#D5B471"/>
<path fill-rule="evenodd" clip-rule="evenodd" d="M41.145 24.4977C41.6072 24.4977 41.9983 24.1066 41.9983 23.6443C41.9983 23.1821 41.6072 22.791 41.145 22.791C40.6827 22.791 40.2916 23.1821 40.2916 23.6443C40.2916 24.1066 40.665 24.4977 41.145 24.4977Z" fill="#D5B471"/>
<path fill-rule="evenodd" clip-rule="evenodd" d="M45.4158 24.4977C45.8781 24.4977 46.2692 24.1066 46.2692 23.6443C46.2692 23.1821 45.8781 22.791 45.4158 22.791C44.9536 22.791 44.5625 23.1821 44.5625 23.6443C44.5625 24.1066 44.9358 24.4977 45.4158 24.4977Z" fill="#D5B471"/>
<path fill-rule="evenodd" clip-rule="evenodd" d="M49.6866 24.4977C50.1488 24.4977 50.5399 24.1066 50.5399 23.6443C50.5399 23.1821 50.1488 22.791 49.6866 22.791C49.2244 22.791 48.8333 23.1821 48.8333 23.6443C48.8333 24.1066 49.2066 24.4977 49.6866 24.4977Z" fill="#D5B471"/>
<path fill-rule="evenodd" clip-rule="evenodd" d="M53.9575 24.4977C54.4197 24.4977 54.8108 24.1066 54.8108 23.6443C54.8108 23.1821 54.4197 22.791 53.9575 22.791C53.4952 22.791 53.1041 23.1821 53.1041 23.6443C53.1041 24.1066 53.4775 24.4977 53.9575 24.4977Z" fill="#D5B471"/>
<path fill-rule="evenodd" clip-rule="evenodd" d="M58.2178 24.4977C58.6801 24.4977 59.0712 24.1066 59.0712 23.6443C59.0712 23.1821 58.6801 22.791 58.2178 22.791C57.7556 22.791 57.3645 23.1821 57.3645 23.6443C57.3645 24.1066 57.7378 24.4977 58.2178 24.4977Z" fill="#D5B471"/>
<path fill-rule="evenodd" clip-rule="evenodd" d="M62.4783 24.4977C62.9406 24.4977 63.3317 24.1066 63.3317 23.6443C63.3317 23.1821 62.9406 22.791 62.4783 22.791C62.0161 22.791 61.625 23.1821 61.625 23.6443C61.625 24.1066 61.9983 24.4977 62.4783 24.4977Z" fill="#D5B471"/>
<path fill-rule="evenodd" clip-rule="evenodd" d="M7.01996 28.9606C7.48218 28.9606 7.87329 28.5695 7.87329 28.1072C7.87329 27.645 7.48218 27.2539 7.01996 27.2539C6.55774 27.2539 6.16663 27.645 6.16663 28.1072C6.16663 28.5872 6.53996 28.9606 7.01996 28.9606Z" fill="#D5B471"/>
<path fill-rule="evenodd" clip-rule="evenodd" d="M11.2803 28.9606C11.7426 28.9606 12.1337 28.5695 12.1337 28.1072C12.1337 27.645 11.7426 27.2539 11.2803 27.2539C10.8181 27.2539 10.427 27.645 10.427 28.1072C10.427 28.5695 10.8003 28.9606 11.2803 28.9606Z" fill="#D5B471"/>
<path fill-rule="evenodd" clip-rule="evenodd" d="M15.5515 28.9606C16.0137 28.9606 16.4048 28.5695 16.4048 28.1072C16.4048 27.645 16.0137 27.2539 15.5515 27.2539C15.0892 27.2539 14.6981 27.645 14.6981 28.1072C14.6981 28.5695 15.0715 28.9606 15.5515 28.9606Z" fill="#D5B471"/>
<path fill-rule="evenodd" clip-rule="evenodd" d="M19.8221 28.9606C20.2843 28.9606 20.6754 28.5695 20.6754 28.1072C20.6754 27.645 20.2843 27.2539 19.8221 27.2539C19.3599 27.2539 18.9688 27.645 18.9688 28.1072C18.9688 28.5695 19.3421 28.9606 19.8221 28.9606Z" fill="#D5B471"/>
<path fill-rule="evenodd" clip-rule="evenodd" d="M24.0825 28.9606C24.5447 28.9606 24.9358 28.5695 24.9358 28.1072C24.9358 27.645 24.5447 27.2539 24.0825 27.2539C23.6202 27.2539 23.2291 27.645 23.2291 28.1072C23.2291 28.5695 23.6025 28.9606 24.0825 28.9606Z" fill="#D5B471"/>
<path fill-rule="evenodd" clip-rule="evenodd" d="M28.3533 28.9606C28.8156 28.9606 29.2067 28.5695 29.2067 28.1072C29.2067 27.645 28.8156 27.2539 28.3533 27.2539C27.8911 27.2539 27.5 27.645 27.5 28.1072C27.5 28.5695 27.8733 28.9606 28.3533 28.9606Z" fill="#D5B471"/>
<path fill-rule="evenodd" clip-rule="evenodd" d="M32.6241 28.9606C33.0863 28.9606 33.4774 28.5695 33.4774 28.1072C33.4774 27.645 33.0863 27.2539 32.6241 27.2539C32.1619 27.2539 31.7708 27.645 31.7708 28.1072C31.7708 28.5695 32.1441 28.9606 32.6241 28.9606Z" fill="#D5B471"/>
<path fill-rule="evenodd" clip-rule="evenodd" d="M36.8846 28.9606C37.3468 28.9606 37.7379 28.5695 37.7379 28.1072C37.7379 27.645 37.3468 27.2539 36.8846 27.2539C36.4224 27.2539 36.0312 27.645 36.0312 28.1072C36.0312 28.5695 36.4046 28.9606 36.8846 28.9606Z" fill="#D5B471"/>
<path fill-rule="evenodd" clip-rule="evenodd" d="M41.145 28.9606C41.6072 28.9606 41.9983 28.5695 41.9983 28.1072C41.9983 27.645 41.6072 27.2539 41.145 27.2539C40.6827 27.2539 40.2916 27.645 40.2916 28.1072C40.2916 28.5872 40.665 28.9606 41.145 28.9606Z" fill="#D5B471"/>
<path fill-rule="evenodd" clip-rule="evenodd" d="M45.4158 28.9606C45.8781 28.9606 46.2692 28.5695 46.2692 28.1072C46.2692 27.645 45.8781 27.2539 45.4158 27.2539C44.9536 27.2539 44.5625 27.645 44.5625 28.1072C44.5625 28.5695 44.9358 28.9606 45.4158 28.9606Z" fill="#D5B471"/>
<path fill-rule="evenodd" clip-rule="evenodd" d="M49.6866 28.9606C50.1488 28.9606 50.5399 28.5695 50.5399 28.1072C50.5399 27.645 50.1488 27.2539 49.6866 27.2539C49.2244 27.2539 48.8333 27.645 48.8333 28.1072C48.8333 28.5695 49.2066 28.9606 49.6866 28.9606Z" fill="#D5B471"/>
<path fill-rule="evenodd" clip-rule="evenodd" d="M53.9575 28.9606C54.4197 28.9606 54.8108 28.5695 54.8108 28.1072C54.8108 27.645 54.4197 27.2539 53.9575 27.2539C53.4952 27.2539 53.1041 27.645 53.1041 28.1072C53.1041 28.5695 53.4775 28.9606 53.9575 28.9606Z" fill="#D5B471"/>
<path fill-rule="evenodd" clip-rule="evenodd" d="M58.2178 28.9606C58.6801 28.9606 59.0712 28.5695 59.0712 28.1072C59.0712 27.645 58.6801 27.2539 58.2178 27.2539C57.7556 27.2539 57.3645 27.645 57.3645 28.1072C57.3645 28.5695 57.7378 28.9606 58.2178 28.9606Z" fill="#D5B471"/>
<path fill-rule="evenodd" clip-rule="evenodd" d="M62.4783 28.9606C62.9406 28.9606 63.3317 28.5695 63.3317 28.1072C63.3317 27.645 62.9406 27.2539 62.4783 27.2539C62.0161 27.2539 61.625 27.645 61.625 28.1072C61.625 28.5695 61.9983 28.9606 62.4783 28.9606Z" fill="#D5B471"/>
<path fill-rule="evenodd" clip-rule="evenodd" d="M7.01996 33.441C7.48218 33.441 7.87329 33.0499 7.87329 32.5877C7.87329 32.1255 7.48218 31.7344 7.01996 31.7344C6.55774 31.7344 6.16663 32.1255 6.16663 32.5877C6.16663 33.0677 6.53996 33.441 7.01996 33.441Z" fill="#D5B471"/>
<path fill-rule="evenodd" clip-rule="evenodd" d="M11.2803 33.441C11.7426 33.441 12.1337 33.0499 12.1337 32.5877C12.1337 32.1255 11.7426 31.7344 11.2803 31.7344C10.8181 31.7344 10.427 32.1255 10.427 32.5877C10.427 33.0677 10.8003 33.441 11.2803 33.441Z" fill="#D5B471"/>
<path fill-rule="evenodd" clip-rule="evenodd" d="M15.5515 33.441C16.0137 33.441 16.4048 33.0499 16.4048 32.5877C16.4048 32.1255 16.0137 31.7344 15.5515 31.7344C15.0892 31.7344 14.6981 32.1255 14.6981 32.5877C14.6981 33.0677 15.0715 33.441 15.5515 33.441Z" fill="#D5B471"/>
<path fill-rule="evenodd" clip-rule="evenodd" d="M19.8221 33.441C20.2843 33.441 20.6754 33.0499 20.6754 32.5877C20.6754 32.1255 20.2843 31.7344 19.8221 31.7344C19.3599 31.7344 18.9688 32.1255 18.9688 32.5877C18.9688 33.0677 19.3421 33.441 19.8221 33.441Z" fill="#D5B471"/>
<path fill-rule="evenodd" clip-rule="evenodd" d="M24.0825 33.441C24.5447 33.441 24.9358 33.0499 24.9358 32.5877C24.9358 32.1255 24.5447 31.7344 24.0825 31.7344C23.6202 31.7344 23.2291 32.1255 23.2291 32.5877C23.2291 33.0677 23.6025 33.441 24.0825 33.441Z" fill="#D5B471"/>
<path fill-rule="evenodd" clip-rule="evenodd" d="M28.3533 33.441C28.8156 33.441 29.2067 33.0499 29.2067 32.5877C29.2067 32.1255 28.8156 31.7344 28.3533 31.7344C27.8911 31.7344 27.5 32.1255 27.5 32.5877C27.5 33.0677 27.8733 33.441 28.3533 33.441Z" fill="#D5B471"/>
<path fill-rule="evenodd" clip-rule="evenodd" d="M32.6241 33.441C33.0863 33.441 33.4774 33.0499 33.4774 32.5877C33.4774 32.1255 33.0863 31.7344 32.6241 31.7344C32.1619 31.7344 31.7708 32.1255 31.7708 32.5877C31.7708 33.0677 32.1441 33.441 32.6241 33.441Z" fill="#D5B471"/>
<path fill-rule="evenodd" clip-rule="evenodd" d="M36.8846 33.441C37.3468 33.441 37.7379 33.0499 37.7379 32.5877C37.7379 32.1255 37.3468 31.7344 36.8846 31.7344C36.4224 31.7344 36.0312 32.1255 36.0312 32.5877C36.0312 33.0677 36.4046 33.441 36.8846 33.441Z" fill="#D5B471"/>
<path fill-rule="evenodd" clip-rule="evenodd" d="M41.145 33.441C41.6072 33.441 41.9983 33.0499 41.9983 32.5877C41.9983 32.1255 41.6072 31.7344 41.145 31.7344C40.6827 31.7344 40.2916 32.1255 40.2916 32.5877C40.2916 33.0677 40.665 33.441 41.145 33.441Z" fill="#D5B471"/>
<path fill-rule="evenodd" clip-rule="evenodd" d="M45.4158 33.441C45.8781 33.441 46.2692 33.0499 46.2692 32.5877C46.2692 32.1255 45.8781 31.7344 45.4158 31.7344C44.9536 31.7344 44.5625 32.1255 44.5625 32.5877C44.5625 33.0677 44.9358 33.441 45.4158 33.441Z" fill="#D5B471"/>
<path fill-rule="evenodd" clip-rule="evenodd" d="M49.6866 33.441C50.1488 33.441 50.5399 33.0499 50.5399 32.5877C50.5399 32.1255 50.1488 31.7344 49.6866 31.7344C49.2244 31.7344 48.8333 32.1255 48.8333 32.5877C48.8333 33.0677 49.2066 33.441 49.6866 33.441Z" fill="#D5B471"/>
<path fill-rule="evenodd" clip-rule="evenodd" d="M53.9575 33.441C54.4197 33.441 54.8108 33.0499 54.8108 32.5877C54.8108 32.1255 54.4197 31.7344 53.9575 31.7344C53.4952 31.7344 53.1041 32.1255 53.1041 32.5877C53.1041 33.0677 53.4775 33.441 53.9575 33.441Z" fill="#D5B471"/>
<path fill-rule="evenodd" clip-rule="evenodd" d="M58.2178 33.441C58.6801 33.441 59.0712 33.0499 59.0712 32.5877C59.0712 32.1255 58.6801 31.7344 58.2178 31.7344C57.7556 31.7344 57.3645 32.1255 57.3645 32.5877C57.3645 33.0677 57.7378 33.441 58.2178 33.441Z" fill="#D5B471"/>
<path fill-rule="evenodd" clip-rule="evenodd" d="M62.4783 33.441C62.9406 33.441 63.3317 33.0499 63.3317 32.5877C63.3317 32.1255 62.9406 31.7344 62.4783 31.7344C62.0161 31.7344 61.625 32.1255 61.625 32.5877C61.625 33.0677 61.9983 33.441 62.4783 33.441Z" fill="#D5B471"/>
<path fill-rule="evenodd" clip-rule="evenodd" d="M7.01996 37.9371C7.48218 37.9371 7.87329 37.546 7.87329 37.0838C7.87329 36.6216 7.48218 36.2305 7.01996 36.2305C6.55774 36.2305 6.16663 36.6216 6.16663 37.0838C6.16663 37.546 6.53996 37.9371 7.01996 37.9371Z" fill="#D5B471"/>
<path fill-rule="evenodd" clip-rule="evenodd" d="M11.2803 37.9371C11.7426 37.9371 12.1337 37.546 12.1337 37.0838C12.1337 36.6216 11.7426 36.2305 11.2803 36.2305C10.8181 36.2305 10.427 36.6216 10.427 37.0838C10.427 37.546 10.8003 37.9371 11.2803 37.9371Z" fill="#D5B471"/>
<path fill-rule="evenodd" clip-rule="evenodd" d="M15.5515 37.9371C16.0137 37.9371 16.4048 37.546 16.4048 37.0838C16.4048 36.6216 16.0137 36.2305 15.5515 36.2305C15.0892 36.2305 14.6981 36.6216 14.6981 37.0838C14.6981 37.546 15.0715 37.9371 15.5515 37.9371Z" fill="#D5B471"/>
<path fill-rule="evenodd" clip-rule="evenodd" d="M19.8221 37.9371C20.2843 37.9371 20.6754 37.546 20.6754 37.0838C20.6754 36.6216 20.2843 36.2305 19.8221 36.2305C19.3599 36.2305 18.9688 36.6216 18.9688 37.0838C18.9688 37.546 19.3421 37.9371 19.8221 37.9371Z" fill="#D5B471"/>
<path fill-rule="evenodd" clip-rule="evenodd" d="M24.0825 37.9371C24.5447 37.9371 24.9358 37.546 24.9358 37.0838C24.9358 36.6216 24.5447 36.2305 24.0825 36.2305C23.6202 36.2305 23.2291 36.6216 23.2291 37.0838C23.2291 37.546 23.6025 37.9371 24.0825 37.9371Z" fill="#D5B471"/>
<path fill-rule="evenodd" clip-rule="evenodd" d="M28.3533 37.9371C28.8156 37.9371 29.2067 37.546 29.2067 37.0838C29.2067 36.6216 28.8156 36.2305 28.3533 36.2305C27.8911 36.2305 27.5 36.6216 27.5 37.0838C27.5 37.546 27.8733 37.9371 28.3533 37.9371Z" fill="#D5B471"/>
<path fill-rule="evenodd" clip-rule="evenodd" d="M32.6241 37.9371C33.0863 37.9371 33.4774 37.546 33.4774 37.0838C33.4774 36.6216 33.0863 36.2305 32.6241 36.2305C32.1619 36.2305 31.7708 36.6216 31.7708 37.0838C31.7708 37.546 32.1441 37.9371 32.6241 37.9371Z" fill="#D5B471"/>
<path fill-rule="evenodd" clip-rule="evenodd" d="M36.8846 37.9371C37.3468 37.9371 37.7379 37.546 37.7379 37.0838C37.7379 36.6216 37.3468 36.2305 36.8846 36.2305C36.4224 36.2305 36.0312 36.6216 36.0312 37.0838C36.0312 37.546 36.4046 37.9371 36.8846 37.9371Z" fill="#D5B471"/>
<path fill-rule="evenodd" clip-rule="evenodd" d="M41.145 37.9371C41.6072 37.9371 41.9983 37.546 41.9983 37.0838C41.9983 36.6216 41.6072 36.2305 41.145 36.2305C40.6827 36.2305 40.2916 36.6216 40.2916 37.0838C40.2916 37.546 40.665 37.9371 41.145 37.9371Z" fill="#D5B471"/>
<path fill-rule="evenodd" clip-rule="evenodd" d="M45.4158 37.9371C45.8781 37.9371 46.2692 37.546 46.2692 37.0838C46.2692 36.6216 45.8781 36.2305 45.4158 36.2305C44.9536 36.2305 44.5625 36.6216 44.5625 37.0838C44.5625 37.546 44.9358 37.9371 45.4158 37.9371Z" fill="#D5B471"/>
<path fill-rule="evenodd" clip-rule="evenodd" d="M49.6866 37.9371C50.1488 37.9371 50.5399 37.546 50.5399 37.0838C50.5399 36.6216 50.1488 36.2305 49.6866 36.2305C49.2244 36.2305 48.8333 36.6216 48.8333 37.0838C48.8333 37.546 49.2066 37.9371 49.6866 37.9371Z" fill="#D5B471"/>
<path fill-rule="evenodd" clip-rule="evenodd" d="M53.9575 37.9371C54.4197 37.9371 54.8108 37.546 54.8108 37.0838C54.8108 36.6216 54.4197 36.2305 53.9575 36.2305C53.4952 36.2305 53.1041 36.6216 53.1041 37.0838C53.1041 37.546 53.4775 37.9371 53.9575 37.9371Z" fill="#D5B471"/>
<path fill-rule="evenodd" clip-rule="evenodd" d="M58.2178 37.9371C58.6801 37.9371 59.0712 37.546 59.0712 37.0838C59.0712 36.6216 58.6801 36.2305 58.2178 36.2305C57.7556 36.2305 57.3645 36.6216 57.3645 37.0838C57.3645 37.546 57.7378 37.9371 58.2178 37.9371Z" fill="#D5B471"/>
<path fill-rule="evenodd" clip-rule="evenodd" d="M62.4783 37.9371C62.9406 37.9371 63.3317 37.546 63.3317 37.0838C63.3317 36.6216 62.9406 36.2305 62.4783 36.2305C62.0161 36.2305 61.625 36.6216 61.625 37.0838C61.625 37.546 61.9983 37.9371 62.4783 37.9371Z" fill="#D5B471"/>
<path fill-rule="evenodd" clip-rule="evenodd" d="M7.01996 42.4C7.48218 42.4 7.87329 42.0089 7.87329 41.5467C7.87329 41.0845 7.48218 40.6934 7.01996 40.6934C6.55774 40.6934 6.16663 41.0845 6.16663 41.5467C6.16663 42.0267 6.53996 42.4 7.01996 42.4Z" fill="#D5B471"/>
<path fill-rule="evenodd" clip-rule="evenodd" d="M11.2803 42.4C11.7426 42.4 12.1337 42.0089 12.1337 41.5467C12.1337 41.0845 11.7426 40.6934 11.2803 40.6934C10.8181 40.6934 10.427 41.0845 10.427 41.5467C10.427 42.0267 10.8003 42.4 11.2803 42.4Z" fill="#D5B471"/>
<path fill-rule="evenodd" clip-rule="evenodd" d="M15.5515 42.4C16.0137 42.4 16.4048 42.0089 16.4048 41.5467C16.4048 41.0845 16.0137 40.6934 15.5515 40.6934C15.0892 40.6934 14.6981 41.0845 14.6981 41.5467C14.6981 42.0267 15.0715 42.4 15.5515 42.4Z" fill="#D5B471"/>
<path fill-rule="evenodd" clip-rule="evenodd" d="M19.8221 42.4C20.2843 42.4 20.6754 42.0089 20.6754 41.5467C20.6754 41.0845 20.2843 40.6934 19.8221 40.6934C19.3599 40.6934 18.9688 41.0845 18.9688 41.5467C18.9688 42.0267 19.3421 42.4 19.8221 42.4Z" fill="#D5B471"/>
<path fill-rule="evenodd" clip-rule="evenodd" d="M24.0825 42.4C24.5447 42.4 24.9358 42.0089 24.9358 41.5467C24.9358 41.0845 24.5447 40.6934 24.0825 40.6934C23.6202 40.6934 23.2291 41.0845 23.2291 41.5467C23.2291 42.0267 23.6025 42.4 24.0825 42.4Z" fill="#D5B471"/>
<path fill-rule="evenodd" clip-rule="evenodd" d="M28.3533 42.4C28.8156 42.4 29.2067 42.0089 29.2067 41.5467C29.2067 41.0845 28.8156 40.6934 28.3533 40.6934C27.8911 40.6934 27.5 41.0845 27.5 41.5467C27.5 42.0267 27.8733 42.4 28.3533 42.4Z" fill="#D5B471"/>
<path fill-rule="evenodd" clip-rule="evenodd" d="M32.6241 42.4C33.0863 42.4 33.4774 42.0089 33.4774 41.5467C33.4774 41.0845 33.0863 40.6934 32.6241 40.6934C32.1619 40.6934 31.7708 41.0845 31.7708 41.5467C31.7708 42.0267 32.1441 42.4 32.6241 42.4Z" fill="#D5B471"/>
<path fill-rule="evenodd" clip-rule="evenodd" d="M36.8846 42.4C37.3468 42.4 37.7379 42.0089 37.7379 41.5467C37.7379 41.0845 37.3468 40.6934 36.8846 40.6934C36.4224 40.6934 36.0312 41.0845 36.0312 41.5467C36.0312 42.0267 36.4046 42.4 36.8846 42.4Z" fill="#D5B471"/>
<path fill-rule="evenodd" clip-rule="evenodd" d="M41.145 42.4C41.6072 42.4 41.9983 42.0089 41.9983 41.5467C41.9983 41.0845 41.6072 40.6934 41.145 40.6934C40.6827 40.6934 40.2916 41.0845 40.2916 41.5467C40.2916 42.0267 40.665 42.4 41.145 42.4Z" fill="#D5B471"/>
<path fill-rule="evenodd" clip-rule="evenodd" d="M45.4158 42.4C45.8781 42.4 46.2692 42.0089 46.2692 41.5467C46.2692 41.0845 45.8781 40.6934 45.4158 40.6934C44.9536 40.6934 44.5625 41.0845 44.5625 41.5467C44.5625 42.0267 44.9358 42.4 45.4158 42.4Z" fill="#D5B471"/>
<path fill-rule="evenodd" clip-rule="evenodd" d="M49.6866 42.4C50.1488 42.4 50.5399 42.0089 50.5399 41.5467C50.5399 41.0845 50.1488 40.6934 49.6866 40.6934C49.2244 40.6934 48.8333 41.0845 48.8333 41.5467C48.8333 42.0267 49.2066 42.4 49.6866 42.4Z" fill="#D5B471"/>
<path fill-rule="evenodd" clip-rule="evenodd" d="M53.9575 42.4C54.4197 42.4 54.8108 42.0089 54.8108 41.5467C54.8108 41.0845 54.4197 40.6934 53.9575 40.6934C53.4952 40.6934 53.1041 41.0845 53.1041 41.5467C53.1041 42.0267 53.4775 42.4 53.9575 42.4Z" fill="#D5B471"/>
<path fill-rule="evenodd" clip-rule="evenodd" d="M58.2178 42.4C58.6801 42.4 59.0712 42.0089 59.0712 41.5467C59.0712 41.0845 58.6801 40.6934 58.2178 40.6934C57.7556 40.6934 57.3645 41.0845 57.3645 41.5467C57.3645 42.0267 57.7378 42.4 58.2178 42.4Z" fill="#D5B471"/>
<path fill-rule="evenodd" clip-rule="evenodd" d="M62.4783 42.4C62.9406 42.4 63.3317 42.0089 63.3317 41.5467C63.3317 41.0845 62.9406 40.6934 62.4783 40.6934C62.0161 40.6934 61.625 41.0845 61.625 41.5467C61.625 42.0267 61.9983 42.4 62.4783 42.4Z" fill="#D5B471"/>
<path fill-rule="evenodd" clip-rule="evenodd" d="M7.01996 46.8981C7.48218 46.8981 7.87329 46.507 7.87329 46.0447C7.87329 45.5825 7.48218 45.1914 7.01996 45.1914C6.55774 45.1914 6.16663 45.5825 6.16663 46.0447C6.16663 46.507 6.53996 46.8981 7.01996 46.8981Z" fill="#D5B471"/>
<path fill-rule="evenodd" clip-rule="evenodd" d="M11.2803 46.8981C11.7426 46.8981 12.1337 46.507 12.1337 46.0447C12.1337 45.5825 11.7426 45.1914 11.2803 45.1914C10.8181 45.1914 10.427 45.5825 10.427 46.0447C10.427 46.507 10.8003 46.8981 11.2803 46.8981Z" fill="#D5B471"/>
<path fill-rule="evenodd" clip-rule="evenodd" d="M15.5512 46.8981C16.0134 46.8981 16.4045 46.507 16.4045 46.0447C16.4045 45.5825 16.0134 45.1914 15.5512 45.1914C15.089 45.1914 14.6979 45.5825 14.6979 46.0447C14.6979 46.507 15.0712 46.8981 15.5512 46.8981Z" fill="#D5B471"/>
<path fill-rule="evenodd" clip-rule="evenodd" d="M19.8221 46.8981C20.2843 46.8981 20.6754 46.507 20.6754 46.0447C20.6754 45.5825 20.2843 45.1914 19.8221 45.1914C19.3599 45.1914 18.9688 45.5825 18.9688 46.0447C18.9688 46.507 19.3421 46.8981 19.8221 46.8981Z" fill="#D5B471"/>
<path fill-rule="evenodd" clip-rule="evenodd" d="M24.0825 46.8981C24.5447 46.8981 24.9358 46.507 24.9358 46.0447C24.9358 45.5825 24.5447 45.1914 24.0825 45.1914C23.6202 45.1914 23.2291 45.5825 23.2291 46.0447C23.2291 46.507 23.6025 46.8981 24.0825 46.8981Z" fill="#D5B471"/>
<path fill-rule="evenodd" clip-rule="evenodd" d="M28.3533 46.8981C28.8156 46.8981 29.2067 46.507 29.2067 46.0447C29.2067 45.5825 28.8156 45.1914 28.3533 45.1914C27.8911 45.1914 27.5 45.5825 27.5 46.0447C27.5 46.507 27.8733 46.8981 28.3533 46.8981Z" fill="#D5B471"/>
<path fill-rule="evenodd" clip-rule="evenodd" d="M32.6241 46.8981C33.0863 46.8981 33.4774 46.507 33.4774 46.0447C33.4774 45.5825 33.0863 45.1914 32.6241 45.1914C32.1619 45.1914 31.7708 45.5825 31.7708 46.0447C31.7708 46.507 32.1441 46.8981 32.6241 46.8981Z" fill="#D5B471"/>
<path fill-rule="evenodd" clip-rule="evenodd" d="M36.8846 46.8981C37.3468 46.8981 37.7379 46.507 37.7379 46.0447C37.7379 45.5825 37.3468 45.1914 36.8846 45.1914C36.4224 45.1914 36.0312 45.5825 36.0312 46.0447C36.0312 46.507 36.4046 46.8981 36.8846 46.8981Z" fill="#D5B471"/>
<path fill-rule="evenodd" clip-rule="evenodd" d="M41.145 46.8981C41.6072 46.8981 41.9983 46.507 41.9983 46.0447C41.9983 45.5825 41.6072 45.1914 41.145 45.1914C40.6827 45.1914 40.2916 45.5825 40.2916 46.0447C40.2916 46.507 40.665 46.8981 41.145 46.8981Z" fill="#D5B471"/>
<path fill-rule="evenodd" clip-rule="evenodd" d="M45.4158 46.8981C45.8781 46.8981 46.2692 46.507 46.2692 46.0447C46.2692 45.5825 45.8781 45.1914 45.4158 45.1914C44.9536 45.1914 44.5625 45.5825 44.5625 46.0447C44.5625 46.507 44.9358 46.8981 45.4158 46.8981Z" fill="#D5B471"/>
<path fill-rule="evenodd" clip-rule="evenodd" d="M49.6866 46.8981C50.1488 46.8981 50.5399 46.507 50.5399 46.0447C50.5399 45.5825 50.1488 45.1914 49.6866 45.1914C49.2244 45.1914 48.8333 45.5825 48.8333 46.0447C48.8333 46.507 49.2066 46.8981 49.6866 46.8981Z" fill="#D5B471"/>
<path fill-rule="evenodd" clip-rule="evenodd" d="M53.9575 46.8981C54.4197 46.8981 54.8108 46.507 54.8108 46.0447C54.8108 45.5825 54.4197 45.1914 53.9575 45.1914C53.4952 45.1914 53.1041 45.5825 53.1041 46.0447C53.1041 46.507 53.4775 46.8981 53.9575 46.8981Z" fill="#D5B471"/>
<path fill-rule="evenodd" clip-rule="evenodd" d="M58.2178 46.8981C58.6801 46.8981 59.0712 46.507 59.0712 46.0447C59.0712 45.5825 58.6801 45.1914 58.2178 45.1914C57.7556 45.1914 57.3645 45.5825 57.3645 46.0447C57.3645 46.507 57.7378 46.8981 58.2178 46.8981Z" fill="#D5B471"/>
<path fill-rule="evenodd" clip-rule="evenodd" d="M62.4783 46.8981C62.9406 46.8981 63.3317 46.507 63.3317 46.0447C63.3317 45.5825 62.9406 45.1914 62.4783 45.1914C62.0161 45.1914 61.625 45.5825 61.625 46.0447C61.625 46.507 61.9983 46.8981 62.4783 46.8981Z" fill="#D5B471"/>
<path fill-rule="evenodd" clip-rule="evenodd" d="M7.01996 51.3785C7.48218 51.3785 7.87329 50.9874 7.87329 50.5252C7.87329 50.063 7.48218 49.6719 7.01996 49.6719C6.55774 49.6719 6.16663 50.063 6.16663 50.5252C6.16663 50.9874 6.53996 51.3785 7.01996 51.3785Z" fill="#D5B471"/>
<path fill-rule="evenodd" clip-rule="evenodd" d="M11.2803 51.3785C11.7426 51.3785 12.1337 50.9874 12.1337 50.5252C12.1337 50.063 11.7426 49.6719 11.2803 49.6719C10.8181 49.6719 10.427 50.063 10.427 50.5252C10.427 50.9874 10.8003 51.3785 11.2803 51.3785Z" fill="#D5B471"/>
<path fill-rule="evenodd" clip-rule="evenodd" d="M15.5515 51.3785C16.0137 51.3785 16.4048 50.9874 16.4048 50.5252C16.4048 50.063 16.0137 49.6719 15.5515 49.6719C15.0892 49.6719 14.6981 50.063 14.6981 50.5252C14.6981 50.9874 15.0715 51.3785 15.5515 51.3785Z" fill="#D5B471"/>
<path fill-rule="evenodd" clip-rule="evenodd" d="M19.8221 51.3785C20.2843 51.3785 20.6754 50.9874 20.6754 50.5252C20.6754 50.063 20.2843 49.6719 19.8221 49.6719C19.3599 49.6719 18.9688 50.063 18.9688 50.5252C18.9688 50.9874 19.3421 51.3785 19.8221 51.3785Z" fill="#D5B471"/>
<path fill-rule="evenodd" clip-rule="evenodd" d="M24.0825 51.3785C24.5447 51.3785 24.9358 50.9874 24.9358 50.5252C24.9358 50.063 24.5447 49.6719 24.0825 49.6719C23.6202 49.6719 23.2291 50.063 23.2291 50.5252C23.2291 50.9874 23.6025 51.3785 24.0825 51.3785Z" fill="#D5B471"/>
<path fill-rule="evenodd" clip-rule="evenodd" d="M28.3533 51.3785C28.8156 51.3785 29.2067 50.9874 29.2067 50.5252C29.2067 50.063 28.8156 49.6719 28.3533 49.6719C27.8911 49.6719 27.5 50.063 27.5 50.5252C27.5 50.9874 27.8733 51.3785 28.3533 51.3785Z" fill="#D5B471"/>
<path fill-rule="evenodd" clip-rule="evenodd" d="M32.6241 51.3785C33.0863 51.3785 33.4774 50.9874 33.4774 50.5252C33.4774 50.063 33.0863 49.6719 32.6241 49.6719C32.1619 49.6719 31.7708 50.063 31.7708 50.5252C31.7708 50.9874 32.1441 51.3785 32.6241 51.3785Z" fill="#D5B471"/>
<path fill-rule="evenodd" clip-rule="evenodd" d="M36.8846 51.3785C37.3468 51.3785 37.7379 50.9874 37.7379 50.5252C37.7379 50.063 37.3468 49.6719 36.8846 49.6719C36.4224 49.6719 36.0312 50.063 36.0312 50.5252C36.0312 50.9874 36.4046 51.3785 36.8846 51.3785Z" fill="#D5B471"/>
<path fill-rule="evenodd" clip-rule="evenodd" d="M41.145 51.3785C41.6072 51.3785 41.9983 50.9874 41.9983 50.5252C41.9983 50.063 41.6072 49.6719 41.145 49.6719C40.6827 49.6719 40.2916 50.063 40.2916 50.5252C40.2916 50.9874 40.665 51.3785 41.145 51.3785Z" fill="#D5B471"/>
<path fill-rule="evenodd" clip-rule="evenodd" d="M45.4158 51.3785C45.8781 51.3785 46.2692 50.9874 46.2692 50.5252C46.2692 50.063 45.8781 49.6719 45.4158 49.6719C44.9536 49.6719 44.5625 50.063 44.5625 50.5252C44.5625 50.9874 44.9358 51.3785 45.4158 51.3785Z" fill="#D5B471"/>
<path fill-rule="evenodd" clip-rule="evenodd" d="M49.6866 51.3785C50.1488 51.3785 50.5399 50.9874 50.5399 50.5252C50.5399 50.063 50.1488 49.6719 49.6866 49.6719C49.2244 49.6719 48.8333 50.063 48.8333 50.5252C48.8333 50.9874 49.2066 51.3785 49.6866 51.3785Z" fill="#D5B471"/>
<path fill-rule="evenodd" clip-rule="evenodd" d="M53.9575 51.3785C54.4197 51.3785 54.8108 50.9874 54.8108 50.5252C54.8108 50.063 54.4197 49.6719 53.9575 49.6719C53.4952 49.6719 53.1041 50.063 53.1041 50.5252C53.1041 50.9874 53.4775 51.3785 53.9575 51.3785Z" fill="#D5B471"/>
<path fill-rule="evenodd" clip-rule="evenodd" d="M58.2178 51.3785C58.6801 51.3785 59.0712 50.9874 59.0712 50.5252C59.0712 50.063 58.6801 49.6719 58.2178 49.6719C57.7556 49.6719 57.3645 50.063 57.3645 50.5252C57.3645 50.9874 57.7378 51.3785 58.2178 51.3785Z" fill="#D5B471"/>
<path fill-rule="evenodd" clip-rule="evenodd" d="M62.4783 51.3785C62.9406 51.3785 63.3317 50.9874 63.3317 50.5252C63.3317 50.063 62.9406 49.6719 62.4783 49.6719C62.0161 49.6719 61.625 50.063 61.625 50.5252C61.625 50.9874 61.9983 51.3785 62.4783 51.3785Z" fill="#D5B471"/>
<path fill-rule="evenodd" clip-rule="evenodd" d="M7.01996 55.8395C7.48218 55.8395 7.87329 55.4484 7.87329 54.9861C7.87329 54.5239 7.48218 54.1328 7.01996 54.1328C6.55774 54.1328 6.16663 54.5239 6.16663 54.9861C6.16663 55.4661 6.53996 55.8395 7.01996 55.8395Z" fill="#D5B471"/>
<path fill-rule="evenodd" clip-rule="evenodd" d="M11.2803 55.8395C11.7426 55.8395 12.1337 55.4484 12.1337 54.9861C12.1337 54.5239 11.7426 54.1328 11.2803 54.1328C10.8181 54.1328 10.427 54.5239 10.427 54.9861C10.427 55.4484 10.8003 55.8395 11.2803 55.8395Z" fill="#D5B471"/>
<path fill-rule="evenodd" clip-rule="evenodd" d="M15.5515 55.8395C16.0137 55.8395 16.4048 55.4484 16.4048 54.9861C16.4048 54.5239 16.0137 54.1328 15.5515 54.1328C15.0892 54.1328 14.6981 54.5239 14.6981 54.9861C14.6981 55.4484 15.0715 55.8395 15.5515 55.8395Z" fill="#D5B471"/>
<path fill-rule="evenodd" clip-rule="evenodd" d="M19.8221 55.8395C20.2843 55.8395 20.6754 55.4484 20.6754 54.9861C20.6754 54.5239 20.2843 54.1328 19.8221 54.1328C19.3599 54.1328 18.9688 54.5239 18.9688 54.9861C18.9688 55.4484 19.3421 55.8395 19.8221 55.8395Z" fill="#D5B471"/>
<path fill-rule="evenodd" clip-rule="evenodd" d="M24.0825 55.8395C24.5447 55.8395 24.9358 55.4484 24.9358 54.9861C24.9358 54.5239 24.5447 54.1328 24.0825 54.1328C23.6202 54.1328 23.2291 54.5239 23.2291 54.9861C23.2291 55.4484 23.6025 55.8395 24.0825 55.8395Z" fill="#D5B471"/>
<path fill-rule="evenodd" clip-rule="evenodd" d="M28.3533 55.8395C28.8156 55.8395 29.2067 55.4484 29.2067 54.9861C29.2067 54.5239 28.8156 54.1328 28.3533 54.1328C27.8911 54.1328 27.5 54.5239 27.5 54.9861C27.5 55.4484 27.8733 55.8395 28.3533 55.8395Z" fill="#D5B471"/>
<path fill-rule="evenodd" clip-rule="evenodd" d="M32.6241 55.8395C33.0863 55.8395 33.4774 55.4484 33.4774 54.9861C33.4774 54.5239 33.0863 54.1328 32.6241 54.1328C32.1619 54.1328 31.7708 54.5239 31.7708 54.9861C31.7708 55.4484 32.1441 55.8395 32.6241 55.8395Z" fill="#D5B471"/>
<path fill-rule="evenodd" clip-rule="evenodd" d="M36.8846 55.8395C37.3468 55.8395 37.7379 55.4484 37.7379 54.9861C37.7379 54.5239 37.3468 54.1328 36.8846 54.1328C36.4224 54.1328 36.0312 54.5239 36.0312 54.9861C36.0312 55.4484 36.4046 55.8395 36.8846 55.8395Z" fill="#D5B471"/>
<path fill-rule="evenodd" clip-rule="evenodd" d="M41.145 55.8395C41.6072 55.8395 41.9983 55.4484 41.9983 54.9861C41.9983 54.5239 41.6072 54.1328 41.145 54.1328C40.6827 54.1328 40.2916 54.5239 40.2916 54.9861C40.2916 55.4661 40.665 55.8395 41.145 55.8395Z" fill="#D5B471"/>
<path fill-rule="evenodd" clip-rule="evenodd" d="M45.4158 55.8395C45.8781 55.8395 46.2692 55.4484 46.2692 54.9861C46.2692 54.5239 45.8781 54.1328 45.4158 54.1328C44.9536 54.1328 44.5625 54.5239 44.5625 54.9861C44.5625 55.4484 44.9358 55.8395 45.4158 55.8395Z" fill="#D5B471"/>
<path fill-rule="evenodd" clip-rule="evenodd" d="M49.6866 55.8395C50.1488 55.8395 50.5399 55.4484 50.5399 54.9861C50.5399 54.5239 50.1488 54.1328 49.6866 54.1328C49.2244 54.1328 48.8333 54.5239 48.8333 54.9861C48.8333 55.4484 49.2066 55.8395 49.6866 55.8395Z" fill="#D5B471"/>
<path fill-rule="evenodd" clip-rule="evenodd" d="M53.9575 55.8395C54.4197 55.8395 54.8108 55.4484 54.8108 54.9861C54.8108 54.5239 54.4197 54.1328 53.9575 54.1328C53.4952 54.1328 53.1041 54.5239 53.1041 54.9861C53.1041 55.4484 53.4775 55.8395 53.9575 55.8395Z" fill="#D5B471"/>
<path fill-rule="evenodd" clip-rule="evenodd" d="M58.2178 55.8395C58.6801 55.8395 59.0712 55.4484 59.0712 54.9861C59.0712 54.5239 58.6801 54.1328 58.2178 54.1328C57.7556 54.1328 57.3645 54.5239 57.3645 54.9861C57.3645 55.4484 57.7378 55.8395 58.2178 55.8395Z" fill="#D5B471"/>
<path fill-rule="evenodd" clip-rule="evenodd" d="M62.4783 55.8395C62.9406 55.8395 63.3317 55.4484 63.3317 54.9861C63.3317 54.5239 62.9406 54.1328 62.4783 54.1328C62.0161 54.1328 61.625 54.5239 61.625 54.9861C61.625 55.4484 61.9983 55.8395 62.4783 55.8395Z" fill="#D5B471"/>
<path fill-rule="evenodd" clip-rule="evenodd" d="M7.01996 60.3375C7.48218 60.3375 7.87329 59.9464 7.87329 59.4842C7.87329 59.022 7.48218 58.6309 7.01996 58.6309C6.55774 58.6309 6.16663 59.022 6.16663 59.4842C6.16663 59.9464 6.53996 60.3375 7.01996 60.3375Z" fill="#D5B471"/>
<path fill-rule="evenodd" clip-rule="evenodd" d="M11.2803 60.3395C11.7426 60.3395 12.1337 59.9484 12.1337 59.4861C12.1337 59.0239 11.7426 58.6328 11.2803 58.6328C10.8181 58.6328 10.427 59.0239 10.427 59.4861C10.427 59.9484 10.8003 60.3395 11.2803 60.3395Z" fill="#D5B471"/>
<path fill-rule="evenodd" clip-rule="evenodd" d="M15.5512 60.3375C16.0134 60.3375 16.4045 59.9464 16.4045 59.4842C16.4045 59.022 16.0134 58.6309 15.5512 58.6309C15.089 58.6309 14.6979 59.022 14.6979 59.4842C14.6979 59.9464 15.0712 60.3375 15.5512 60.3375Z" fill="#D5B471"/>
<path fill-rule="evenodd" clip-rule="evenodd" d="M19.8221 60.3395C20.2843 60.3395 20.6754 59.9484 20.6754 59.4861C20.6754 59.0239 20.2843 58.6328 19.8221 58.6328C19.3599 58.6328 18.9688 59.0239 18.9688 59.4861C18.9688 59.9484 19.3421 60.3395 19.8221 60.3395Z" fill="#D5B471"/>
<path fill-rule="evenodd" clip-rule="evenodd" d="M24.0825 60.3375C24.5447 60.3375 24.9358 59.9464 24.9358 59.4842C24.9358 59.022 24.5447 58.6309 24.0825 58.6309C23.6202 58.6309 23.2291 59.022 23.2291 59.4842C23.2291 59.9464 23.6025 60.3375 24.0825 60.3375Z" fill="#D5B471"/>
<path fill-rule="evenodd" clip-rule="evenodd" d="M28.3533 60.3395C28.8156 60.3395 29.2067 59.9484 29.2067 59.4861C29.2067 59.0239 28.8156 58.6328 28.3533 58.6328C27.8911 58.6328 27.5 59.0239 27.5 59.4861C27.5 59.9484 27.8733 60.3395 28.3533 60.3395Z" fill="#D5B471"/>
<path fill-rule="evenodd" clip-rule="evenodd" d="M32.6241 60.3395C33.0863 60.3395 33.4774 59.9484 33.4774 59.4861C33.4774 59.0239 33.0863 58.6328 32.6241 58.6328C32.1619 58.6328 31.7708 59.0239 31.7708 59.4861C31.7708 59.9484 32.1441 60.3395 32.6241 60.3395Z" fill="#D5B471"/>
<path fill-rule="evenodd" clip-rule="evenodd" d="M36.8846 60.3395C37.3468 60.3395 37.7379 59.9484 37.7379 59.4861C37.7379 59.0239 37.3468 58.6328 36.8846 58.6328C36.4224 58.6328 36.0312 59.0239 36.0312 59.4861C36.0312 59.9484 36.4046 60.3395 36.8846 60.3395Z" fill="#D5B471"/>
<path fill-rule="evenodd" clip-rule="evenodd" d="M41.145 60.3395C41.6072 60.3395 41.9983 59.9484 41.9983 59.4861C41.9983 59.0239 41.6072 58.6328 41.145 58.6328C40.6827 58.6328 40.2916 59.0239 40.2916 59.4861C40.2916 59.9484 40.665 60.3395 41.145 60.3395Z" fill="#D5B471"/>
<path fill-rule="evenodd" clip-rule="evenodd" d="M45.4158 60.3395C45.8781 60.3395 46.2692 59.9484 46.2692 59.4861C46.2692 59.0239 45.8781 58.6328 45.4158 58.6328C44.9536 58.6328 44.5625 59.0239 44.5625 59.4861C44.5625 59.9484 44.9358 60.3395 45.4158 60.3395Z" fill="#D5B471"/>
<path fill-rule="evenodd" clip-rule="evenodd" d="M49.6866 60.3395C50.1488 60.3395 50.5399 59.9484 50.5399 59.4861C50.5399 59.0239 50.1488 58.6328 49.6866 58.6328C49.2244 58.6328 48.8333 59.0239 48.8333 59.4861C48.8333 59.9484 49.2066 60.3395 49.6866 60.3395Z" fill="#D5B471"/>
<path fill-rule="evenodd" clip-rule="evenodd" d="M53.9575 60.3395C54.4197 60.3395 54.8108 59.9484 54.8108 59.4861C54.8108 59.0239 54.4197 58.6328 53.9575 58.6328C53.4952 58.6328 53.1041 59.0239 53.1041 59.4861C53.1041 59.9484 53.4775 60.3395 53.9575 60.3395Z" fill="#D5B471"/>
<path fill-rule="evenodd" clip-rule="evenodd" d="M58.2178 60.3395C58.6801 60.3395 59.0712 59.9484 59.0712 59.4861C59.0712 59.0239 58.6801 58.6328 58.2178 58.6328C57.7556 58.6328 57.3645 59.0239 57.3645 59.4861C57.3645 59.9484 57.7378 60.3395 58.2178 60.3395Z" fill="#D5B471"/>
<path fill-rule="evenodd" clip-rule="evenodd" d="M62.4783 60.3395C62.9406 60.3395 63.3317 59.9484 63.3317 59.4861C63.3317 59.0239 62.9406 58.6328 62.4783 58.6328C62.0161 58.6328 61.625 59.0239 61.625 59.4861C61.625 59.9484 61.9983 60.3395 62.4783 60.3395Z" fill="#D5B471"/>
<path fill-rule="evenodd" clip-rule="evenodd" d="M7.01996 64.8004C7.48218 64.8004 7.87329 64.4093 7.87329 63.9471C7.87329 63.4849 7.48218 63.0938 7.01996 63.0938C6.55774 63.0938 6.16663 63.4849 6.16663 63.9471C6.16663 64.4271 6.53996 64.8004 7.01996 64.8004Z" fill="#D5B471"/>
<path fill-rule="evenodd" clip-rule="evenodd" d="M11.2803 64.8004C11.7426 64.8004 12.1337 64.4093 12.1337 63.9471C12.1337 63.4849 11.7426 63.0938 11.2803 63.0938C10.8181 63.0938 10.427 63.4849 10.427 63.9471C10.427 64.4271 10.8003 64.8004 11.2803 64.8004Z" fill="#D5B471"/>
<path fill-rule="evenodd" clip-rule="evenodd" d="M15.5512 64.8004C16.0134 64.8004 16.4045 64.4093 16.4045 63.9471C16.4045 63.4849 16.0134 63.0938 15.5512 63.0938C15.089 63.0938 14.6979 63.4849 14.6979 63.9471C14.6979 64.4271 15.0712 64.8004 15.5512 64.8004Z" fill="#D5B471"/>
<path fill-rule="evenodd" clip-rule="evenodd" d="M19.8221 64.8004C20.2843 64.8004 20.6754 64.4093 20.6754 63.9471C20.6754 63.4849 20.2843 63.0938 19.8221 63.0938C19.3599 63.0938 18.9688 63.4849 18.9688 63.9471C18.9688 64.4271 19.3421 64.8004 19.8221 64.8004Z" fill="#D5B471"/>
<path fill-rule="evenodd" clip-rule="evenodd" d="M24.0825 64.8004C24.5447 64.8004 24.9358 64.4093 24.9358 63.9471C24.9358 63.4849 24.5447 63.0938 24.0825 63.0938C23.6202 63.0938 23.2291 63.4849 23.2291 63.9471C23.2291 64.4271 23.6025 64.8004 24.0825 64.8004Z" fill="#D5B471"/>
<path fill-rule="evenodd" clip-rule="evenodd" d="M28.3533 64.8004C28.8156 64.8004 29.2067 64.4093 29.2067 63.9471C29.2067 63.4849 28.8156 63.0938 28.3533 63.0938C27.8911 63.0938 27.5 63.4849 27.5 63.9471C27.5 64.4271 27.8733 64.8004 28.3533 64.8004Z" fill="#D5B471"/>
<path fill-rule="evenodd" clip-rule="evenodd" d="M32.6241 64.8004C33.0863 64.8004 33.4774 64.4093 33.4774 63.9471C33.4774 63.4849 33.0863 63.0938 32.6241 63.0938C32.1619 63.0938 31.7708 63.4849 31.7708 63.9471C31.7708 64.4271 32.1441 64.8004 32.6241 64.8004Z" fill="#D5B471"/>
<path fill-rule="evenodd" clip-rule="evenodd" d="M36.8846 64.8004C37.3468 64.8004 37.7379 64.4093 37.7379 63.9471C37.7379 63.4849 37.3468 63.0938 36.8846 63.0938C36.4224 63.0938 36.0312 63.4849 36.0312 63.9471C36.0312 64.4271 36.4046 64.8004 36.8846 64.8004Z" fill="#D5B471"/>
<path fill-rule="evenodd" clip-rule="evenodd" d="M41.145 64.8004C41.6072 64.8004 41.9983 64.4093 41.9983 63.9471C41.9983 63.4849 41.6072 63.0938 41.145 63.0938C40.6827 63.0938 40.2916 63.4849 40.2916 63.9471C40.2916 64.4271 40.665 64.8004 41.145 64.8004Z" fill="#D5B471"/>
<path fill-rule="evenodd" clip-rule="evenodd" d="M45.4158 64.8004C45.8781 64.8004 46.2692 64.4093 46.2692 63.9471C46.2692 63.4849 45.8781 63.0938 45.4158 63.0938C44.9536 63.0938 44.5625 63.4849 44.5625 63.9471C44.5625 64.4271 44.9358 64.8004 45.4158 64.8004Z" fill="#D5B471"/>
<path fill-rule="evenodd" clip-rule="evenodd" d="M49.6866 64.8004C50.1488 64.8004 50.5399 64.4093 50.5399 63.9471C50.5399 63.4849 50.1488 63.0938 49.6866 63.0938C49.2244 63.0938 48.8333 63.4849 48.8333 63.9471C48.8333 64.4271 49.2066 64.8004 49.6866 64.8004Z" fill="#D5B471"/>
<path fill-rule="evenodd" clip-rule="evenodd" d="M53.9575 64.8004C54.4197 64.8004 54.8108 64.4093 54.8108 63.9471C54.8108 63.4849 54.4197 63.0938 53.9575 63.0938C53.4952 63.0938 53.1041 63.4849 53.1041 63.9471C53.1041 64.4271 53.4775 64.8004 53.9575 64.8004Z" fill="#D5B471"/>
<path fill-rule="evenodd" clip-rule="evenodd" d="M58.2178 64.8004C58.6801 64.8004 59.0712 64.4093 59.0712 63.9471C59.0712 63.4849 58.6801 63.0938 58.2178 63.0938C57.7556 63.0938 57.3645 63.4849 57.3645 63.9471C57.3645 64.4271 57.7378 64.8004 58.2178 64.8004Z" fill="#D5B471"/>
<path fill-rule="evenodd" clip-rule="evenodd" d="M62.4783 64.8004C62.9406 64.8004 63.3317 64.4093 63.3317 63.9471C63.3317 63.4849 62.9406 63.0938 62.4783 63.0938C62.0161 63.0938 61.625 63.4849 61.625 63.9471C61.625 64.4271 61.9983 64.8004 62.4783 64.8004Z" fill="#D5B471"/>
</g>
<defs>
<clipPath id="clip0_701_6585">
<rect width="80" height="80" fill="white"/>
</clipPath>
</defs>
</svg>
