<svg width="20" height="20" viewBox="0 0 20 20" fill="none" xmlns="http://www.w3.org/2000/svg">
<g clip-path="url(#clip0_514_2285)">
<path d="M12.5142 18.5727C13.3939 19.1402 14.4422 19.3876 15.4829 19.2731C16.5236 19.1586 17.4931 18.6893 18.2284 17.9441L18.8713 17.3155C19.1531 17.0273 19.3109 16.6401 19.3109 16.237C19.3109 15.8338 19.1531 15.4467 18.8713 15.1584L16.1427 12.4584C15.8569 12.1775 15.4721 12.02 15.0713 12.02C14.6705 12.02 14.2857 12.1775 13.9999 12.4584V12.4584C13.7116 12.7402 13.3245 12.898 12.9213 12.898C12.5181 12.898 12.131 12.7402 11.8427 12.4584L7.55701 8.17267C7.41404 8.03178 7.30051 7.86387 7.22302 7.67871C7.14552 7.49355 7.10562 7.29483 7.10562 7.0941C7.10562 6.89338 7.14552 6.69466 7.22302 6.50949C7.30051 6.32433 7.41404 6.15642 7.55701 6.01553V6.01553C7.83794 5.72967 7.99536 5.3449 7.99536 4.9441C7.99536 4.5433 7.83794 4.15854 7.55701 3.87267L4.84272 1.15839C4.55445 0.876553 4.16731 0.71875 3.76415 0.71875C3.361 0.71875 2.97386 0.876553 2.68558 1.15839L2.05701 1.80125C1.31179 2.53659 0.842487 3.50611 0.728014 4.54677C0.613541 5.58743 0.860878 6.63578 1.42844 7.51553C4.38564 11.8737 8.14835 15.6267 12.5142 18.5727V18.5727Z" stroke="#D5B471" stroke-width="1.5" stroke-linecap="round" stroke-linejoin="round"/>
</g>
<defs>
<clipPath id="clip0_514_2285">
<rect width="20" height="20" fill="white"/>
</clipPath>
</defs>
</svg>
