<svg width="24" height="24" viewBox="0 0 24 24" fill="none" xmlns="http://www.w3.org/2000/svg">
<path d="M16.0067 15.8572C18.5605 11.8496 18.2395 12.3496 18.3131 12.2452C19.243 10.9336 19.7344 9.3901 19.7344 7.78126C19.7344 3.51469 16.2721 0 12 0C7.74177 0 4.26563 3.50776 4.26563 7.78126C4.26563 9.38906 4.76737 10.973 5.72766 12.3022L7.99322 15.8572C5.57095 16.2294 1.45312 17.3387 1.45312 19.7813C1.45312 20.6717 2.03427 21.9406 4.8029 22.9294C6.73613 23.6197 9.29208 24 12 24C17.0636 24 22.5469 22.5716 22.5469 19.7813C22.5469 17.3383 18.4339 16.2301 16.0067 15.8572ZM6.90229 11.5287C6.89456 11.5166 6.8865 11.5048 6.87806 11.4931C6.07898 10.3938 5.67187 9.09098 5.67187 7.78126C5.67187 4.26478 8.5034 1.40626 12 1.40626C15.4894 1.40626 18.3281 4.26605 18.3281 7.78126C18.3281 9.0931 17.9287 10.3517 17.1728 11.4221C17.1052 11.5114 17.4584 10.9624 12 19.5276L6.90229 11.5287ZM12 22.5937C6.46903 22.5937 2.85937 20.968 2.85937 19.7813C2.85937 18.9836 4.71413 17.6722 8.82413 17.1608L11.407 21.2138C11.5361 21.4164 11.7597 21.539 11.9999 21.539C12.2402 21.539 12.4638 21.4164 12.5929 21.2138L15.1757 17.1608C19.2858 17.6722 21.1406 18.9836 21.1406 19.7813C21.1406 20.9579 17.5634 22.5937 12 22.5937Z" fill="white"/>
<path d="M12 4.26562C10.0615 4.26562 8.48438 5.84274 8.48438 7.78125C8.48438 9.71976 10.0615 11.2969 12 11.2969C13.9385 11.2969 15.5156 9.71976 15.5156 7.78125C15.5156 5.84274 13.9385 4.26562 12 4.26562ZM12 9.89063C10.8369 9.89063 9.89063 8.94435 9.89063 7.78125C9.89063 6.61814 10.8369 5.67187 12 5.67187C13.1632 5.67187 14.1094 6.61814 14.1094 7.78125C14.1094 8.94435 13.1632 9.89063 12 9.89063Z" fill="white"/>
</svg>
