<svg width="50" height="50" viewBox="0 0 50 50" fill="none" xmlns="http://www.w3.org/2000/svg">
<path d="M30.5758 9.45293C30.2399 9.19355 29.8235 9.0334 29.3672 9.0334H20.6672C20.2102 9.0334 19.7938 9.19434 19.4578 9.45449C19.1211 9.19434 18.7055 9.0334 18.2485 9.0334H9.54845C8.45079 9.0334 7.55704 9.92715 7.55704 11.0248V19.7248C7.55704 20.1818 7.71798 20.5982 7.97814 20.9342C7.71798 21.2709 7.55704 21.6873 7.55704 22.1443V30.8443C7.55704 31.3006 7.7172 31.717 7.97658 32.0529C7.71564 32.3904 7.5547 32.8076 7.5547 33.2654V36.5154L5.82423 39.6756L2.48907 41.5014C2.23829 41.6381 2.08282 41.9014 2.08282 42.1865C2.08282 42.4717 2.23829 42.735 2.48907 42.8717L5.82423 44.6975L7.65079 48.0342C7.78751 48.2842 8.05079 48.4404 8.33595 48.4404C8.62111 48.4404 8.88439 48.285 9.02111 48.0342L10.8469 44.6982L12.2031 43.9576H18.2461C18.7039 43.9576 19.1211 43.7959 19.4586 43.5357C19.7945 43.7951 20.211 43.9553 20.6672 43.9553H29.3672C29.8242 43.9553 30.2406 43.7943 30.5774 43.5342C30.9141 43.7943 31.3305 43.9553 31.7875 43.9553H40.4875C41.5852 43.9553 42.4781 43.0615 42.4781 41.9639V33.2639C42.4781 32.8068 42.3172 32.3904 42.057 32.0545C42.3172 31.7178 42.4781 31.3014 42.4781 30.8443V22.1443C42.4781 21.6881 42.318 21.2717 42.0586 20.9357C42.3195 20.599 42.4805 20.1811 42.4805 19.7232V13.4271L44.1758 10.3279L47.5117 8.50215C47.7625 8.36543 47.918 8.10215 47.918 7.81699C47.918 7.53184 47.7625 7.26856 47.5117 7.13184L44.1758 5.30606L42.35 1.96934C42.0758 1.46855 41.2539 1.46855 40.9797 1.96934L39.1539 5.30606L35.8188 7.13184C35.568 7.26856 35.4125 7.53184 35.4125 7.81699C35.4125 8.10215 35.568 8.36543 35.8188 8.50215L36.7859 9.03184H31.7891C31.3313 9.03184 30.9141 9.19356 30.5766 9.45371L30.5758 9.45293ZM31.7883 10.5936H39.3L40.3813 12.5693L40.918 13.5498V19.7225C40.918 19.9576 40.7281 20.1482 40.4938 20.1529C40.4914 20.1529 40.4891 20.1529 40.4867 20.1529H31.7867C31.7867 20.1529 31.782 20.1529 31.7797 20.1529C31.5477 20.1482 31.361 19.9615 31.357 19.7295C31.357 19.7279 31.357 19.7264 31.357 19.724V11.024C31.357 11.024 31.357 11.0201 31.357 11.0186C31.361 10.7834 31.5524 10.5936 31.7883 10.5936ZM40.9156 22.1436V30.8436C40.9156 31.0803 40.7235 31.2725 40.4875 31.2725H31.7875C31.5508 31.2725 31.3586 31.0803 31.3586 30.8436V22.1436C31.3586 21.91 31.5469 21.7201 31.7805 21.7162C31.7836 21.7162 31.7859 21.717 31.7891 21.717H40.4867C40.4867 21.717 40.4922 21.7162 40.4953 21.7162C40.7281 21.7201 40.9156 21.9092 40.9156 22.1436ZM18.2469 31.2701H9.54923C9.54923 31.2701 9.54376 31.2709 9.54142 31.2709C9.30861 31.267 9.12032 31.0779 9.12032 30.8436V22.1436C9.12032 21.9068 9.31251 21.7147 9.54923 21.7147H18.2492C18.4852 21.7147 18.6774 21.9068 18.6774 22.1436V30.8436C18.6774 31.0779 18.4891 31.267 18.2563 31.2709C18.2531 31.2709 18.25 31.2701 18.2469 31.2701ZM20.2391 30.8436V22.1436C20.2391 21.9068 20.4313 21.7147 20.6672 21.7147H29.3672C29.6031 21.7147 29.7953 21.9068 29.7953 22.1436V30.8436C29.7953 31.0803 29.6031 31.2725 29.3672 31.2725H20.6672C20.4313 31.2725 20.2391 31.0803 20.2391 30.8436ZM20.6672 10.5959H29.3672C29.6008 10.5959 29.7906 10.785 29.7945 11.0186V11.0256V19.7232C29.7945 19.7232 29.7945 19.7279 29.7945 19.7303C29.7914 19.9631 29.6016 20.1522 29.3672 20.1522H20.6672C20.4313 20.1522 20.2391 19.96 20.2391 19.724V11.024C20.2391 10.7873 20.4313 10.5951 20.6672 10.5951V10.5959ZM9.11954 11.0248C9.11954 10.7881 9.31173 10.5959 9.54845 10.5959H18.2485C18.4844 10.5959 18.6766 10.7881 18.6766 11.0248V19.7248C18.6766 19.9607 18.4844 20.1529 18.2485 20.1529H9.54845C9.31173 20.1529 9.11954 19.9607 9.11954 19.7248V11.0248ZM9.89689 43.4357C9.76642 43.5076 9.65782 43.6147 9.58673 43.7451L8.33673 46.0295L7.08595 43.7451C7.01486 43.6147 6.90704 43.5068 6.77579 43.4357L4.4922 42.185L6.77579 40.9342C6.90626 40.8623 7.01407 40.7553 7.08595 40.6248L8.33673 38.3404L9.58751 40.6248C9.65939 40.7561 9.7672 40.8639 9.89767 40.935L12.186 42.1842L11.6281 42.4889C11.6281 42.4889 11.6266 42.4904 11.625 42.4912L9.89689 43.4357ZM18.2469 42.3936H14.5695C14.5875 42.3264 14.5977 42.2568 14.5977 42.185C14.5977 41.8998 14.4414 41.6365 14.1906 41.499L10.8469 39.6732L9.1172 36.5139V33.2639C9.1172 33.0287 9.30704 32.8381 9.54142 32.8334H9.54845H18.2485C18.2485 32.8334 18.2524 32.8334 18.2547 32.8334C18.4867 32.8381 18.6735 33.0248 18.6774 33.2568V33.2623V41.9623C18.6774 41.9623 18.6774 41.9662 18.6774 41.9678C18.6735 42.2029 18.4828 42.3936 18.2469 42.3936ZM29.3672 42.3912H20.6672C20.4336 42.3912 20.2438 42.2022 20.2399 41.9686C20.2399 41.9662 20.2399 41.9639 20.2399 41.9615V33.2639C20.2399 33.2639 20.2399 33.2592 20.2399 33.2568C20.243 33.024 20.4328 32.835 20.6672 32.835H29.3672C29.6031 32.835 29.7953 33.0272 29.7953 33.2631V41.9631C29.7953 42.1998 29.6031 42.392 29.3672 42.392V42.3912ZM40.9149 41.9623C40.9149 42.199 40.7227 42.3912 40.4867 42.3912H31.7867C31.55 42.3912 31.3578 42.199 31.3578 41.9623V33.2623C31.3578 33.0264 31.55 32.8342 31.7867 32.8342H40.4867C40.7227 32.8342 40.9149 33.0264 40.9149 33.2623V41.9623ZM40.1031 6.56543C40.2344 6.49356 40.3422 6.38652 40.4133 6.25605L41.6641 3.97168L42.9149 6.25605C42.986 6.38652 43.0938 6.49434 43.225 6.56543L45.5094 7.81621L43.225 9.06699C43.0938 9.13887 42.986 9.2459 42.9149 9.37715L41.6649 11.66L40.4485 9.43731C40.4461 9.43262 40.4094 9.36856 40.4078 9.36465C40.336 9.23887 40.2305 9.13574 40.1039 9.06621L37.8203 7.81543L40.1039 6.56465L40.1031 6.56543Z" fill="#D5B471"/>
</svg>
