<svg width="24" height="24" viewBox="0 0 24 24" fill="none" xmlns="http://www.w3.org/2000/svg">
<g clip-path="url(#clip0_714_20)">
<path d="M12.8555 16.286H14.5698C15.0244 16.286 15.4604 16.1054 15.7819 15.7839C16.1034 15.4624 16.284 15.0264 16.284 14.5717V12.8574" stroke="white" stroke-width="1.5" stroke-linecap="round" stroke-linejoin="round"/>
<path d="M16.284 7.71456V2.57171C16.284 2.11705 16.1034 1.68102 15.7819 1.35952C15.4604 1.03803 15.0244 0.857422 14.5698 0.857422H2.56975C2.1151 0.857422 1.67906 1.03803 1.35757 1.35952C1.03608 1.68102 0.855469 2.11705 0.855469 2.57171V14.5717C0.855469 15.0264 1.03608 15.4624 1.35757 15.7839C1.67906 16.1054 2.1151 16.286 2.56975 16.286H7.71261" stroke="white" stroke-width="1.5" stroke-linecap="round" stroke-linejoin="round"/>
<path d="M7.71094 21.4287C7.71094 21.8834 7.89155 22.3194 8.21304 22.6409C8.53453 22.9624 8.97057 23.143 9.42522 23.143" stroke="white" stroke-width="1.5" stroke-linecap="round" stroke-linejoin="round"/>
<path d="M23.1401 9.42913C23.1401 8.97447 22.9595 8.53844 22.638 8.21695C22.3165 7.89546 21.8804 7.71484 21.4258 7.71484" stroke="white" stroke-width="1.5" stroke-linecap="round" stroke-linejoin="round"/>
<path d="M21.4258 23.143C21.8804 23.143 22.3165 22.9624 22.638 22.6409C22.9595 22.3194 23.1401 21.8834 23.1401 21.4287" stroke="white" stroke-width="1.5" stroke-linecap="round" stroke-linejoin="round"/>
<path d="M16.2852 7.71484H17.1423" stroke="white" stroke-width="1.5" stroke-linecap="round" stroke-linejoin="round"/>
<path d="M13.7109 23.1436H17.1395" stroke="white" stroke-width="1.5" stroke-linecap="round" stroke-linejoin="round"/>
<path d="M23.1406 13.7148V17.1434" stroke="white" stroke-width="1.5" stroke-linecap="round" stroke-linejoin="round"/>
<path d="M7.71094 16.2861V17.1433" stroke="white" stroke-width="1.5" stroke-linecap="round" stroke-linejoin="round"/>
</g>
<defs>
<clipPath id="clip0_714_20">
<rect width="24" height="24" fill="white"/>
</clipPath>
</defs>
</svg>
