<svg width="30" height="30" viewBox="0 0 30 30" fill="none" xmlns="http://www.w3.org/2000/svg">
<path d="M15 28.6929C16.407 28.6929 17.8003 28.4158 19.1002 27.8773C20.4001 27.3389 21.5812 26.5497 22.5761 25.5547C23.5711 24.5598 24.3603 23.3787 24.8987 22.0788C25.4372 20.7789 25.7143 19.3856 25.7143 17.9786V12.0215C25.7144 9.38935 24.7457 6.84929 22.9929 4.88574" stroke="white" stroke-width="1.5" stroke-linecap="round" stroke-linejoin="round"/>
<path d="M4.28571 14.4004V17.979C4.28499 20.0882 4.90682 22.1506 6.07327 23.9079C7.23972 25.6652 8.89889 27.0392 10.8428 27.8575" stroke="white" stroke-width="1.5" stroke-linecap="round" stroke-linejoin="round"/>
<path d="M20.3571 2.74304C17.8963 1.3223 14.9719 0.937284 12.2272 1.67269C9.48245 2.4081 7.14228 4.20368 5.72143 6.66447C5.13638 7.67489 4.7236 8.77564 4.5 9.92161" stroke="white" stroke-width="1.5" stroke-linecap="round" stroke-linejoin="round"/>
<path d="M13.8857 7.52147C14.6738 7.35785 15.4886 7.37321 16.27 7.56643C17.0515 7.75964 17.7795 8.12578 18.4006 8.63785C19.0217 9.14992 19.5199 9.79486 19.8585 10.5251C20.1971 11.2554 20.3675 12.0523 20.3571 12.8572V16.3072" stroke="white" stroke-width="1.5" stroke-linecap="round" stroke-linejoin="round"/>
<path d="M18.9857 20.8077C18.2566 21.6198 17.2968 22.1899 16.2348 22.4416C15.1729 22.6934 14.0593 22.6147 13.0433 22.2162C12.0272 21.8177 11.1571 21.1184 10.5494 20.2118C9.94172 19.3052 9.62541 18.2347 9.64283 17.1434V12.8577C9.63876 12.1217 9.78458 11.3926 10.0714 10.7148" stroke="white" stroke-width="1.5" stroke-linecap="round" stroke-linejoin="round"/>
<path d="M15 13.0928V16.6713" stroke="white" stroke-width="1.5" stroke-linecap="round" stroke-linejoin="round"/>
</svg>
