<svg width="50" height="50" viewBox="0 0 50 50" fill="none" xmlns="http://www.w3.org/2000/svg">
<g opacity="0.1">
<path d="M25 35.7876V39.3947" stroke="#1D1D1D" stroke-width="1.5" stroke-linecap="round" stroke-linejoin="round"/>
<path d="M25 17.894V21.2512" stroke="#1D1D1D" stroke-width="1.5" stroke-linecap="round" stroke-linejoin="round"/>
<path d="M25 48.1789C37.5 48.1789 46.4286 43.7504 46.4286 33.8932C46.4286 23.179 41.0714 16.0361 30.3571 10.679L34.5714 5.25038C34.7855 4.89421 34.9016 4.48776 34.908 4.07224C34.9144 3.65672 34.8108 3.24689 34.6078 2.8843C34.4047 2.52171 34.1094 2.21925 33.7518 2.00757C33.3942 1.7959 32.987 1.68253 32.5714 1.67896H17.4286C17.013 1.68253 16.6058 1.7959 16.2482 2.00757C15.8905 2.21925 15.5952 2.52171 15.3922 2.8843C15.1891 3.24689 15.0856 3.65672 15.0919 4.07224C15.0983 4.48776 15.2145 4.89421 15.4286 5.25038L19.6428 10.7147C8.92855 16.1075 3.57141 23.2504 3.57141 33.9647C3.57141 43.7504 12.5 48.1789 25 48.1789Z" stroke="#1D1D1D" stroke-width="1.5" stroke-linecap="round" stroke-linejoin="round"/>
<path d="M21.4287 34.1442C21.8645 34.6615 22.4129 35.072 23.032 35.3444C23.6511 35.6168 24.3243 35.7438 25.0001 35.7156C26.033 35.786 27.0529 35.4532 27.8455 34.7872C28.6381 34.1212 29.1416 33.1738 29.2501 32.1442C29.1416 31.1146 28.6381 30.1672 27.8455 29.5012C27.0529 28.8351 26.033 28.5024 25.0001 28.5728C23.9672 28.6432 22.9473 28.3104 22.1547 27.6443C21.3621 26.9783 20.8586 26.0309 20.7501 25.0013C20.8499 23.9681 21.351 23.0153 22.1456 22.3475C22.9403 21.6798 23.9652 21.3503 25.0001 21.4299C25.664 21.3893 26.3286 21.4963 26.9462 21.7434C27.5637 21.9904 28.1188 22.3712 28.5716 22.8585" stroke="#1D1D1D" stroke-width="1.5" stroke-linecap="round" stroke-linejoin="round"/>
</g>
</svg>
