<svg width="24" height="24" viewBox="0 0 24 24" fill="none" xmlns="http://www.w3.org/2000/svg">
<g clip-path="url(#clip0_583_279)">
<path d="M2.57146 10.2861H4.28575C4.51308 10.2861 4.73109 10.3764 4.89184 10.5372C5.05259 10.6979 5.14289 10.9159 5.14289 11.1433V15.429C5.14289 15.6563 5.05259 15.8743 4.89184 16.0351C4.73109 16.1958 4.51308 16.2861 4.28575 16.2861H2.57146C2.11681 16.2861 1.68077 16.1055 1.35928 15.784C1.03779 15.4625 0.857178 15.0265 0.857178 14.5718V12.0004C0.857178 11.5458 1.03779 11.1097 1.35928 10.7882C1.68077 10.4667 2.11681 10.2861 2.57146 10.2861V10.2861Z" stroke="white" stroke-width="1.5" stroke-linecap="round" stroke-linejoin="round"/>
<path d="M21.4285 16.2861H19.7143C19.4869 16.2861 19.2689 16.1958 19.1082 16.0351C18.9474 15.8743 18.8571 15.6563 18.8571 15.429V11.1433C18.8571 10.9159 18.9474 10.6979 19.1082 10.5372C19.2689 10.3764 19.4869 10.2861 19.7143 10.2861H21.4285C21.8832 10.2861 22.3192 10.4667 22.6407 10.7882C22.9622 11.1097 23.1428 11.5458 23.1428 12.0004V14.5718C23.1428 15.0265 22.9622 15.4625 22.6407 15.784C22.3192 16.1055 21.8832 16.2861 21.4285 16.2861V16.2861Z" stroke="white" stroke-width="1.5" stroke-linecap="round" stroke-linejoin="round"/>
<path d="M16.2856 21.0004C17.195 21.0004 18.067 20.6392 18.71 19.9962C19.353 19.3532 19.7142 18.4812 19.7142 17.5718V16.2861" stroke="white" stroke-width="1.5" stroke-linecap="round" stroke-linejoin="round"/>
<path d="M14.143 18.8574C14.7113 18.8574 15.2564 19.0832 15.6582 19.4851C16.0601 19.8869 16.2859 20.432 16.2859 21.0003C16.2859 21.5686 16.0601 22.1136 15.6582 22.5155C15.2564 22.9174 14.7113 23.1431 14.143 23.1431H11.5716C11.0032 23.1431 10.4582 22.9174 10.0563 22.5155C9.65448 22.1136 9.42871 21.5686 9.42871 21.0003C9.42871 20.432 9.65448 19.8869 10.0563 19.4851C10.4582 19.0832 11.0032 18.8574 11.5716 18.8574H14.143Z" stroke="white" stroke-width="1.5" stroke-linecap="round" stroke-linejoin="round"/>
<path d="M4.28564 10.286V8.57171C4.28564 6.52575 5.0984 4.56359 6.54511 3.11688C7.99182 1.67017 9.95397 0.857422 11.9999 0.857422C14.0459 0.857422 16.008 1.67017 17.4548 3.11688C18.9015 4.56359 19.7142 6.52575 19.7142 8.57171V10.286" stroke="white" stroke-width="1.5" stroke-linecap="round" stroke-linejoin="round"/>
<path d="M9.42871 6.85742V9.42885" stroke="white" stroke-width="1.5" stroke-linecap="round" stroke-linejoin="round"/>
<path d="M14.5715 6.85742V9.42885" stroke="white" stroke-width="1.5" stroke-linecap="round" stroke-linejoin="round"/>
<path d="M9.42871 12.8574C9.42871 15.1374 14.5716 15.1374 14.5716 12.8574" stroke="white" stroke-width="1.5" stroke-linecap="round" stroke-linejoin="round"/>
</g>
<defs>
<clipPath id="clip0_583_279">
<rect width="24" height="24" fill="white"/>
</clipPath>
</defs>
</svg>
