<svg width="80" height="80" viewBox="0 0 80 80" fill="none" xmlns="http://www.w3.org/2000/svg">
<g clip-path="url(#clip0_701_6986)">
<path d="M58.6644 37.3341C54.0435 37.3192 49.5459 38.824 45.8644 41.6168C45.2753 42.0608 45.1577 42.8983 45.6018 43.4874C46.0458 44.0765 46.8833 44.1941 47.4724 43.7501C52.4967 39.9692 59.0892 38.9779 65.0031 41.1141C72.7374 43.8949 77.7428 51.4072 77.3307 59.6159C76.9185 67.8245 71.1859 74.7977 63.212 76.7899C55.2381 78.7821 46.8995 75.3244 42.6751 68.2741C42.2959 67.6426 41.4765 67.4382 40.8451 67.8174C40.2137 68.1967 40.0092 69.016 40.3884 69.6474C45.2187 77.7011 54.7474 81.6489 63.858 79.3711C72.9687 77.0932 79.5183 69.1256 79.99 59.7464C80.4617 50.3671 74.7446 41.7825 65.9084 38.6021C63.5868 37.758 61.1348 37.3288 58.6644 37.3341Z" fill="#D5B471"/>
<path d="M51.3209 61.3693L47.0156 60.216C46.5508 60.0778 46.0475 60.2028 45.7015 60.5425C45.3554 60.8822 45.2211 61.383 45.3506 61.8503C45.4802 62.3176 45.8533 62.6777 46.3249 62.7907L49.8769 63.7427L48.9249 67.296C48.8322 67.6385 48.8798 68.0039 49.0572 68.3112C49.2346 68.6185 49.5273 68.8424 49.8703 68.9333C49.9832 68.9645 50.0998 68.9802 50.2169 68.98C50.8203 68.9793 51.3479 68.5736 51.5036 67.9907L52.6569 63.684L57.3369 60.976V66.3827L54.1849 69.5347C53.6796 70.0579 53.6869 70.8895 54.2012 71.4038C54.7155 71.9181 55.5471 71.9253 56.0703 71.42L58.6703 68.82L61.2703 71.42C61.7934 71.9253 62.625 71.9181 63.1393 71.4038C63.6537 70.8895 63.6609 70.0579 63.1556 69.5347L60.0036 66.3827V60.976L64.6863 63.6787L65.8396 67.9853C65.9952 68.5682 66.5229 68.974 67.1263 68.9747C67.2434 68.9748 67.36 68.9591 67.4729 68.928C68.1837 68.7373 68.6056 68.0069 68.4156 67.296L67.4703 63.7427L71.0223 62.7907C71.4939 62.6777 71.867 62.3176 71.9965 61.8503C72.1261 61.383 71.9918 60.8822 71.6457 60.5425C71.2996 60.2028 70.7964 60.0778 70.3316 60.216L66.0263 61.3693L61.3369 58.6667L66.0196 55.964L70.3249 57.1173C70.4379 57.1485 70.5545 57.1642 70.6716 57.164C71.3406 57.1637 71.9058 56.6675 71.9929 56.0042C72.0799 55.3408 71.6619 54.7157 71.0156 54.5427L67.4703 53.5907L68.4223 50.0373C68.6087 49.3275 68.1863 48.6004 67.4773 48.4107C66.7683 48.2209 66.0393 48.6399 65.8463 49.348L64.6929 53.6547L60.0036 56.3573V50.9507L63.1556 47.7987C63.6609 47.2755 63.6537 46.4439 63.1393 45.9296C62.625 45.4153 61.7934 45.408 61.2703 45.9133L58.6703 48.5133L56.0703 45.9133C55.5471 45.408 54.7155 45.4153 54.2012 45.9296C53.6869 46.4439 53.6796 47.2755 54.1849 47.7987L57.3369 50.9507V56.3573L52.6543 53.6547L51.5009 49.348C51.3079 48.6399 50.5789 48.2209 49.8699 48.4107C49.1609 48.6004 48.7385 49.3275 48.9249 50.0373L49.8769 53.5907L46.3249 54.5427C45.6784 54.7157 45.2603 55.3413 45.3477 56.0048C45.4351 56.6684 46.001 57.1643 46.6703 57.164C46.7874 57.1642 46.904 57.1485 47.0169 57.1173L51.3223 55.964L56.0036 58.6667L51.3209 61.3693Z" fill="#D5B471"/>
<path d="M0 33.3338V60.0005C0.00440984 64.4169 3.58355 67.9961 8 68.0005H34.6667C39.0831 67.9961 42.6623 64.4169 42.6667 60.0005V33.3338C42.6623 28.9174 39.0831 25.3382 34.6667 25.3338H23.0947L21.404 21.7858C20.1361 19.1251 21.2618 15.9402 23.92 14.6672L47.9853 3.19116C50.6466 1.92662 53.8293 3.05212 55.104 5.7085L66.584 29.7765C67.296 31.2499 67.2842 32.9703 66.552 34.4338C66.3274 34.862 66.3522 35.3781 66.6167 35.7828C66.8813 36.1874 67.3442 36.4172 67.8264 36.3832C68.3087 36.3493 68.7348 36.0569 68.94 35.6192C70.0403 33.4219 70.0585 30.8384 68.9893 28.6258L57.5107 4.55916C55.5988 0.580971 50.8325 -1.10569 46.844 0.784498L22.772 12.2672C20.8568 13.1809 19.3831 14.8182 18.6752 16.8186C17.9673 18.8191 18.0832 21.0188 18.9973 22.9338L20.1413 25.3338H8C3.58355 25.3382 0.00440984 28.9174 0 33.3338ZM40 33.3338V60.0005C40 62.946 37.6122 65.3338 34.6667 65.3338H8C5.05448 65.3338 2.66667 62.946 2.66667 60.0005V33.3338C2.66667 30.3883 5.05448 28.0005 8 28.0005H34.6667C37.6122 28.0005 40 30.3883 40 33.3338Z" fill="#D5B471"/>
<path d="M36 54.668C35.2637 54.668 34.6667 55.2649 34.6667 56.0013V60.0013H30.6667C29.9303 60.0013 29.3334 60.5983 29.3334 61.3346C29.3334 62.071 29.9303 62.668 30.6667 62.668H34.6667C36.1395 62.668 37.3334 61.4741 37.3334 60.0013V56.0013C37.3334 55.2649 36.7364 54.668 36 54.668Z" fill="#D5B471"/>
<path d="M45.7348 10.1738L50.2922 8.00045L52.4095 12.4391C52.6304 12.9016 53.0969 13.1966 53.6095 13.1978C53.8082 13.1972 54.0042 13.1516 54.1828 13.0645C54.8446 12.7485 55.127 11.9574 54.8148 11.2938L52.6975 6.85645C52.0368 5.55176 50.4662 4.99826 49.1335 5.60045L44.5868 7.76845C43.9742 8.11257 43.7338 8.87309 44.0373 9.50685C44.3408 10.1406 45.084 10.43 45.7362 10.1685L45.7348 10.1738Z" fill="#D5B471"/>
<path d="M5.72376 39.6099C6.24442 40.1304 7.08842 40.1304 7.60909 39.6099L14.2758 32.9432C14.7811 32.42 14.7738 31.5884 14.2595 31.0741C13.7452 30.5598 12.9136 30.5526 12.3904 31.0579L5.72376 37.7245C5.20325 38.2452 5.20325 39.0892 5.72376 39.6099Z" fill="#D5B471"/>
<path d="M5.71958 45.7245C5.37298 46.0593 5.23397 46.555 5.35599 47.0212C5.47801 47.4874 5.84207 47.8515 6.30824 47.9735C6.77441 48.0955 7.27015 47.9565 7.60492 47.6099L22.2716 32.9432C22.7769 32.42 22.7697 31.5884 22.2553 31.0741C21.741 30.5598 20.9094 30.5526 20.3863 31.0579L5.71958 45.7245Z" fill="#D5B471"/>
</g>
<defs>
<clipPath id="clip0_701_6986">
<rect width="80" height="80" fill="white"/>
</clipPath>
</defs>
</svg>
