<svg width="30" height="30" viewBox="0 0 30 30" fill="none" xmlns="http://www.w3.org/2000/svg">
<g clip-path="url(#clip0_611_83)">
<path d="M16.0072 14.7856C15.6893 14.9237 15.3465 14.9949 15 14.9949C14.6535 14.9949 14.3107 14.9237 13.9929 14.7856L1.77861 9.12851C1.58027 9.02847 1.41359 8.87534 1.29714 8.68617C1.18068 8.497 1.11902 8.27922 1.11902 8.05708C1.11902 7.83493 1.18068 7.61715 1.29714 7.42798C1.41359 7.23882 1.58027 7.08569 1.77861 6.98565L13.9929 1.28565C14.3107 1.14763 14.6535 1.07642 15 1.07642C15.3465 1.07642 15.6893 1.14763 16.0072 1.28565L28.2215 6.94279C28.4198 7.04283 28.5865 7.19596 28.7029 7.38513C28.8194 7.5743 28.8811 7.79208 28.8811 8.01422C28.8811 8.23636 28.8194 8.45414 28.7029 8.64331C28.5865 8.83248 28.4198 8.98561 28.2215 9.08565L16.0072 14.7856Z" stroke="#D5B471" stroke-width="1.5" stroke-linecap="round" stroke-linejoin="round"/>
<path d="M28.9286 15.75L15.8571 21.7714C15.578 21.8988 15.2747 21.9647 14.9678 21.9647C14.661 21.9647 14.3577 21.8988 14.0786 21.7714L1.07141 15.75" stroke="#D5B471" stroke-width="1.5" stroke-linecap="round" stroke-linejoin="round"/>
<path d="M28.9286 22.7141L15.8571 28.7355C15.578 28.8629 15.2747 28.9288 14.9678 28.9288C14.661 28.9288 14.3577 28.8629 14.0786 28.7355L1.07141 22.7141" stroke="#D5B471" stroke-width="1.5" stroke-linecap="round" stroke-linejoin="round"/>
</g>
<defs>
<clipPath id="clip0_611_83">
<rect width="30" height="30" fill="white"/>
</clipPath>
</defs>
</svg>
