<svg width="20" height="20" viewBox="0 0 20 20" fill="none" xmlns="http://www.w3.org/2000/svg">
<g clip-path="url(#clip0_507_1283)">
<path d="M16.4284 7.14342C16.4284 10.7006 9.99986 19.2863 9.99986 19.2863C9.99986 19.2863 3.57129 10.7006 3.57129 7.14342C3.57129 5.43845 4.24858 3.80332 5.45417 2.59773C6.65976 1.39214 8.2949 0.714844 9.99986 0.714844C11.7048 0.714844 13.34 1.39214 14.5455 2.59773C15.7511 3.80332 16.4284 5.43845 16.4284 7.14342V7.14342Z" stroke="#C4A36D" stroke-width="1.5" stroke-linecap="round" stroke-linejoin="round"/>
<path d="M9.99979 9.28571C11.1833 9.28571 12.1426 8.32632 12.1426 7.14286C12.1426 5.95939 11.1833 5 9.99979 5C8.81632 5 7.85693 5.95939 7.85693 7.14286C7.85693 8.32632 8.81632 9.28571 9.99979 9.28571Z" stroke="#C4A36D" stroke-width="1.5" stroke-linecap="round" stroke-linejoin="round"/>
</g>
<defs>
<clipPath id="clip0_507_1283">
<rect width="20" height="20" fill="white"/>
</clipPath>
</defs>
</svg>
