<svg width="50" height="50" viewBox="0 0 50 50" fill="none" xmlns="http://www.w3.org/2000/svg">
<path d="M45 6.875C44.9995 6.37789 44.8017 5.90129 44.4502 5.54977C44.0987 5.19826 43.6221 5.00054 43.125 5H6.875C6.37789 5.00054 5.90129 5.19826 5.54977 5.54977C5.19826 5.90129 5.00054 6.37789 5 6.875V43.125C5.00054 43.6221 5.19826 44.0987 5.54977 44.4502C5.90129 44.8017 6.37789 44.9995 6.875 45H43.125C43.6221 44.9995 44.0987 44.8017 44.4502 44.4502C44.8017 44.0987 44.9995 43.6221 45 43.125V6.875ZM33.9795 43.75H22.7786C23.8961 42.8517 25.0892 42.0518 26.3446 41.3593C29.5474 39.5325 32.3871 38.389 35.0259 37.8638L36.2277 37.6263C38.7023 37.1394 41.256 36.6342 43.75 35.8994V39.0395C41.8729 39.0445 40.0208 39.4703 38.33 40.2855C36.6392 41.1007 35.1526 42.2846 33.9795 43.75ZM17.1791 43.75C18.0582 42.6869 19.8852 40.8304 23.2117 38.7976C23.2817 38.7548 23.3427 38.6986 23.391 38.6323C23.4393 38.5659 23.4741 38.4907 23.4934 38.4109C23.5127 38.3311 23.516 38.2483 23.5033 38.1672C23.4906 38.0861 23.462 38.0083 23.4192 37.9382C23.3764 37.8682 23.3202 37.8072 23.2538 37.7589C23.1875 37.7106 23.1123 37.6758 23.0325 37.6565C22.9527 37.6372 22.8699 37.6339 22.7888 37.6466C22.7077 37.6593 22.6299 37.6879 22.5598 37.7307C18.1152 40.4472 16.193 42.8954 15.6105 43.75H11.7131C17.391 36.4981 27.7141 32.2326 28.1924 32.0383C29.6051 31.5701 30.5585 30.5972 30.7446 29.4324C30.8458 28.8384 30.7316 28.2279 30.4227 27.7106C30.1137 27.1933 29.6303 26.8033 29.0595 26.6107C28.3088 26.3892 27.5244 26.3043 26.7438 26.3602C26.2813 26.3803 25.8179 26.3612 25.3586 26.3031C22.4069 25.8258 18.6072 27.1484 18.1866 27.2995C14.2212 28.2677 10.0538 27.9926 6.25 26.5116V18.6946C6.93656 18.7721 7.62695 18.8106 8.31787 18.8101C11.5549 18.7575 14.75 18.0689 17.7213 16.7834C17.9913 16.6708 18.2652 16.5558 18.5428 16.4383C21.2814 15.2817 24.3848 13.9706 27.2849 14.4595C28.3081 14.6805 29.3015 15.0218 30.2444 15.4764C32.012 16.2378 33.8397 17.0264 35.9036 16.5027C38.7283 15.7877 41.0425 13.5239 43.0844 11.5268C43.3109 11.3053 43.5315 11.0903 43.75 10.8791V13.6252C43.4979 13.9826 42.6197 15.0811 40.6116 16.308C40.4702 16.3945 40.3689 16.5336 40.33 16.6947C40.2911 16.8558 40.3177 17.0258 40.404 17.1673C40.4926 17.3063 40.6316 17.4056 40.7919 17.4443C40.9521 17.483 41.1211 17.4581 41.2634 17.3749C42.1568 16.8397 42.9904 16.2105 43.75 15.498V19.9838C42.2891 20.9905 40.8376 21.9815 39.4317 22.9312C39.0274 23.2043 38.5077 23.5031 37.9571 23.8196C35.9506 24.9722 33.4534 26.4072 33.1613 28.5025C33.0846 28.9882 33.1177 29.4849 33.2582 29.9562C33.3987 30.4274 33.643 30.8612 33.9731 31.2256C34.8529 32.2119 36.3913 32.8125 38.0179 32.8125C38.071 32.8125 38.1247 32.8119 38.1784 32.8104C40.1374 32.7578 42.0524 32.2176 43.75 31.2385V34.5973C41.194 35.3283 38.6029 35.9299 35.9863 36.3998L34.7818 36.6376C32.009 37.1899 29.0466 38.3792 25.7251 40.2734C23.9808 41.2165 22.3685 42.3854 20.9298 43.75H17.1791ZM6.25 33.6414C10.3429 34.2938 16.1031 32.4393 18.4961 31.568C18.5459 31.5592 18.5973 31.5663 18.6429 31.5883C18.6884 31.6103 18.7259 31.6462 18.75 31.6907C18.7697 31.7357 18.7732 31.7862 18.7597 31.8334C18.7463 31.8807 18.7169 31.9218 18.6765 31.9498C18.0065 32.257 10.7187 35.648 6.25 39.5498V33.6414ZM43.75 26.5145C43.1283 26.7274 42.4725 26.9755 41.8372 27.2165C41.5802 27.3138 41.3266 27.41 41.087 27.5C41.0582 27.497 41.0306 27.4868 41.0068 27.4702C40.983 27.4537 40.9638 27.4314 40.9509 27.4054C40.9061 27.32 40.9946 27.1948 41.0513 27.128C41.5722 26.5138 42.5191 25.8507 43.75 25.2311V26.5145ZM43.75 23.8429C42.5653 24.3922 41.0001 25.256 40.098 26.3193C39.8648 26.5575 39.7215 26.8691 39.6923 27.2012C39.6632 27.5332 39.75 27.865 39.938 28.1402C40.0676 28.3258 40.2394 28.4778 40.4394 28.5837C40.6394 28.6897 40.8617 28.7464 41.0879 28.7494C41.5035 28.6986 41.9069 28.5753 42.28 28.3853C42.7696 28.1997 43.2662 28.0148 43.75 27.8421V29.7374C42.0998 30.8772 40.1529 31.511 38.1479 31.561C36.8158 31.5857 35.5774 31.1459 34.906 30.3934C34.6969 30.164 34.5426 29.8902 34.4548 29.5925C34.367 29.2948 34.348 28.9811 34.3991 28.6749C34.6066 27.186 36.8097 25.9204 38.5797 24.9033C39.1507 24.5755 39.6896 24.2658 40.1318 23.967C41.3128 23.1691 42.5261 22.3421 43.75 21.5013L43.75 23.8429ZM43.75 6.875V9.16429C43.2436 9.62751 42.7398 10.115 42.2104 10.6332C40.1871 12.612 38.0951 14.6585 35.5969 15.2911C33.9441 15.7092 32.3874 15.0385 30.7388 14.3283C29.7044 13.8331 28.6145 13.4632 27.4924 13.2266C24.2343 12.6785 20.9525 14.0637 18.0566 15.2866C17.7814 15.4028 17.5095 15.5171 17.2409 15.6293C13.3974 17.2279 9.61134 17.8463 6.25 17.4344V13.3349C12.6512 12.6127 16.9057 7.49735 17.8545 6.25H19.6915C19.4924 6.81469 19.386 7.40789 19.3765 8.00659C19.3393 9.51874 20.0272 10.2942 20.6104 10.6784C21.5555 11.301 22.9526 11.3425 24.1696 10.7834C25.4712 10.1862 27.3016 10.4257 28.7509 10.701C29.3894 10.8221 30.0424 10.9888 30.6741 11.1499C31.819 11.4786 32.9918 11.7009 34.1776 11.814C34.6005 11.842 35.0922 11.8747 35.6055 11.8747C36.7001 11.8747 37.8937 11.7261 38.7265 11.0672C38.9656 10.9 39.1513 10.6673 39.2611 10.3969C39.3709 10.1266 39.4002 9.83033 39.3454 9.54376C39.1403 8.51898 37.9529 7.75085 37.1756 7.53234C37.1494 7.52509 37.1228 7.51948 37.096 7.51556C35.6549 7.30021 34.2533 6.87378 32.9365 6.25H43.125C43.2907 6.25022 43.4495 6.31613 43.5667 6.4333C43.6839 6.55046 43.7498 6.70931 43.75 6.875ZM30.8648 6.25C32.4366 8.01332 36.2403 8.65108 36.8723 8.74603C37.4164 8.91327 38.0496 9.4397 38.1198 9.78912C38.1296 9.83887 38.1482 9.93103 37.9511 10.087C37.1054 10.7559 35.3925 10.6424 34.2478 10.5658C33.1426 10.4571 32.0497 10.2472 30.983 9.93866C30.333 9.77264 29.6607 9.60144 28.9841 9.47296C27.2504 9.14368 25.2615 8.90717 23.6481 9.64752C22.8271 10.0241 21.882 10.0192 21.2979 9.6344C20.8338 9.32861 20.6076 8.7912 20.6259 8.03711C20.6309 7.41559 20.7804 6.80375 21.0626 6.25H30.8648ZM6.875 6.25H16.2308C14.7128 7.98515 11.1159 11.4648 6.25 12.0774V6.875C6.25022 6.70931 6.31613 6.55046 6.4333 6.4333C6.55046 6.31613 6.70931 6.25022 6.875 6.25ZM6.25 43.125V41.2505C10.5091 37.0748 19.1443 33.1101 19.2322 33.0701C19.2508 33.0615 19.2688 33.0521 19.2865 33.042C19.6157 32.8523 19.8579 32.5418 19.9619 32.1764C20.0659 31.811 20.0234 31.4195 19.8435 31.0849C19.6768 30.7786 19.4071 30.5412 19.0822 30.4147C18.7573 30.2882 18.3981 30.2808 18.0683 30.3937C15.7267 31.2461 10.0316 33.0855 6.25 32.3722V27.8594C10.1846 29.2926 14.4576 29.5173 18.5208 28.5047C18.5423 28.4992 18.5635 28.4927 18.5843 28.4851C18.6224 28.4711 22.4213 27.0932 25.159 27.5372C25.6898 27.6084 26.2258 27.6327 26.7609 27.6099C27.3948 27.5613 28.0324 27.6223 28.6456 27.7899C28.9382 27.8884 29.1861 28.088 29.3446 28.3529C29.5031 28.6178 29.562 28.9305 29.5105 29.2349C29.3451 30.2704 28.1467 30.7382 27.7835 30.8569C27.771 30.8612 27.7588 30.8655 27.7466 30.8704C27.2642 31.0623 15.9923 35.6184 10.1508 43.75H6.875C6.70931 43.7498 6.55046 43.6839 6.4333 43.5667C6.31613 43.4495 6.25022 43.2907 6.25 43.125ZM43.125 43.75H35.6276C36.6809 42.6589 37.9426 41.7904 39.3378 41.1959C40.733 40.6014 42.2334 40.293 43.75 40.2891V43.125C43.7498 43.2907 43.6839 43.4495 43.5667 43.5667C43.4495 43.6839 43.2907 43.7498 43.125 43.75Z" fill="#D5B471"/>
<path d="M25.8262 18.1546C24.1317 16.8592 21.6216 16.7093 19.8363 17.0006C17.6988 17.3499 15.9928 17.9946 14.7661 18.9166C13.1255 20.1494 9.33153 21.2375 9.32285 21.2402C8.16024 21.5219 6.89813 22.2569 6.87533 23.2049C6.86448 23.6622 7.11415 24.2825 8.36577 24.6423C9.30362 24.8951 10.2767 25.0151 11.2526 24.9985C11.5771 24.9985 11.9157 24.9883 12.2683 24.968C13.4773 24.8681 14.6751 24.6716 15.8484 24.3809C16.4928 24.2388 17.159 24.0924 17.8099 23.9855C19.2852 23.744 21.1472 23.5326 22.4629 24.0548C23.7912 24.5811 25.2911 24.5131 26.2822 23.882C26.6936 23.6139 27.0219 23.2489 27.2337 22.824C27.4456 22.399 27.5335 21.9293 27.4885 21.4624C27.4902 20.8305 27.3419 20.2061 27.0545 19.6341C26.7671 19.0621 26.3476 18.5568 25.8262 18.1546ZM25.4474 22.7371C24.8804 23.0987 23.8904 23.1159 23.0415 22.7794C21.3773 22.1199 19.3333 22.3296 17.5537 22.6211C16.8608 22.7348 16.1733 22.8859 15.5082 23.0324C14.4169 23.3048 13.3027 23.4898 12.1778 23.5854C11.0444 23.6821 9.90169 23.5917 8.80178 23.3185C8.67515 23.2844 8.55248 23.2385 8.4356 23.1815C8.80756 22.8862 9.24935 22.6777 9.72449 22.5734C9.8913 22.5261 13.8307 21.3971 15.6946 19.9962C16.7095 19.2335 18.23 18.6693 20.0917 18.3649C21.4859 18.1373 23.5792 18.2263 24.888 19.2267C25.2444 19.5031 25.53 19.8508 25.7236 20.244C25.9173 20.6372 26.0142 21.066 26.0071 21.4989C26.0398 21.7331 26.0051 21.9713 25.9067 22.1889C25.8084 22.4065 25.6498 22.5957 25.4474 22.7371Z" fill="#D5B471"/>
<path d="M33.5745 23.7466C34.6785 23.789 35.7584 23.4338 36.5962 22.7527C36.7885 22.6479 36.988 22.5553 37.1932 22.4754C38.4246 21.9527 40.7174 20.9802 40.6221 18.5356C40.6165 18.3793 40.577 18.2258 40.5059 18.0846C40.4349 17.9434 40.3339 17.8175 40.2091 17.7149C39.3357 16.9898 37.958 17.3611 36.9158 17.3735C35.5949 17.367 34.2788 17.2214 32.9919 16.9394C32.6207 16.8426 32.227 16.8552 31.8635 16.9755C31.5001 17.0959 31.1841 17.3183 30.9579 17.613C30.7464 17.8979 30.6305 18.2364 30.6252 18.5844C30.6199 18.9325 30.7254 19.274 30.9281 19.5645C31.1955 19.9506 31.23 20.1154 31.1039 20.4035C30.6434 21.4553 30.8839 22.1988 31.1671 22.6375C31.6765 23.4266 32.6402 23.7391 33.5745 23.7466ZM32.4237 21.9126C32.3524 21.7574 32.319 21.5891 32.326 21.42C32.3329 21.2509 32.3801 21.0855 32.4639 20.936C32.6195 20.587 32.6733 20.2049 32.6198 19.8296C32.5663 19.4542 32.4073 19.0992 32.1595 18.8016C32.12 18.7413 32.1003 18.6713 32.1029 18.6004C32.1056 18.5295 32.1304 18.461 32.1743 18.4034C32.3028 18.2348 32.494 18.2602 32.6853 18.3007C34.3039 18.6613 35.9674 18.8092 37.6288 18.7401C37.7149 18.7348 39.1547 18.6219 39.1517 18.7323C39.1172 20.0243 37.9218 20.6407 36.5905 21.2055C36.2294 21.3307 35.8919 21.5099 35.5909 21.7363C34.94 22.2105 34.12 22.4278 33.3032 22.3425C33.1317 22.3385 32.9634 22.2977 32.8111 22.2233C32.6587 22.1488 32.5263 22.0426 32.4237 21.9126Z" fill="#D5B471"/>
<path d="M27.8461 39.375C28.3096 39.3252 28.7603 39.196 29.1769 38.9935C30.6523 38.4524 32.3245 37.8395 33.289 37.7345C33.6044 37.6937 33.9048 37.5798 34.1647 37.4025C34.4246 37.2252 34.6363 36.9898 34.7817 36.7163C34.9272 36.4429 35.0021 36.1395 35 35.8321C34.9979 35.5246 34.9189 35.2222 34.7697 34.9506C33.9799 33.5922 31.9546 33.5447 30.8562 34.0325C29.5346 34.6183 27.7447 35.5615 26.7221 36.728C26.4976 36.944 26.3443 37.2194 26.2817 37.5195C26.219 37.8196 26.2498 38.1309 26.37 38.4141C26.4903 38.6973 26.6947 38.9397 26.9574 39.1107C27.2201 39.2817 27.5294 39.3737 27.8461 39.375ZM27.8347 37.6389C28.4971 36.8828 29.7863 36.0569 31.4645 35.3128C31.7219 35.207 31.9993 35.1545 32.2789 35.1587C32.7946 35.1587 33.3118 35.3194 33.4991 35.6415C33.5303 35.7101 33.5452 35.7846 33.5426 35.8595C33.5401 35.9344 33.5201 36.0079 33.4843 36.0743C33.4485 36.1408 33.3978 36.1987 33.3358 36.2437C33.2737 36.2888 33.2021 36.3198 33.126 36.3345C31.9792 36.459 30.2914 37.0778 28.6594 37.6764C28.3757 37.7803 28.096 37.8831 27.8428 37.977C27.7773 38.0012 27.7181 37.8885 27.7191 37.8408C27.7198 37.8088 27.7941 37.6389 27.8347 37.6389Z" fill="#D5B471"/>
<path d="M15.4504 8.19289C15.1516 8.10743 14.8374 8.10257 14.5364 8.17878C14.2354 8.25499 13.9573 8.40982 13.7275 8.6291C13.0548 9.28228 11.5698 10.1196 10.2597 10.8586C10.0055 11.0024 9.75423 11.1438 9.51124 11.2826C9.22261 11.4629 8.99707 11.7374 8.86849 12.0648C8.7399 12.3922 8.71522 12.7549 8.79814 13.0984C8.88587 13.4738 9.0934 13.8057 9.38569 14.038C9.67798 14.2703 10.0371 14.3888 10.4024 14.3735C10.4421 14.3746 10.4825 14.375 10.5229 14.375C11.9945 14.375 13.7426 13.6951 14.9651 13.1159C16.1826 12.5383 17.2213 10.8975 16.7656 9.46608C16.6645 9.1545 16.4911 8.87471 16.2613 8.65229C16.0316 8.42987 15.7528 8.27192 15.4504 8.19289ZM14.3609 11.6906C12.7829 12.4383 11.3877 12.8334 10.4389 12.8124C10.3206 12.8089 10.2532 12.7796 10.2406 12.7537C10.2272 12.7177 10.2269 12.6777 10.2398 12.6415C10.472 12.5089 10.7118 12.3739 10.9547 12.2366C12.4101 11.4157 13.9153 10.5669 14.7261 9.77985C14.7773 9.73945 14.8366 9.71192 14.8994 9.69934C14.9622 9.68677 15.0269 9.68947 15.0886 9.70726C15.1502 9.72504 15.2073 9.75744 15.2553 9.80199C15.3034 9.84654 15.3413 9.90209 15.366 9.96441C15.5441 10.5234 14.9507 11.4111 14.3609 11.6906Z" fill="#D5B471"/>
</svg>
