<svg width="24" height="24" viewBox="0 0 24 24" fill="none" xmlns="http://www.w3.org/2000/svg">
<g clip-path="url(#clip0_307_273)">
<path d="M11.9999 16.2863C14.3669 16.2863 16.2857 14.3675 16.2857 12.0006C16.2857 9.63362 14.3669 7.71484 11.9999 7.71484C9.63301 7.71484 7.71423 9.63362 7.71423 12.0006C7.71423 14.3675 9.63301 16.2863 11.9999 16.2863Z" stroke="white" stroke-width="1.5" stroke-linecap="round" stroke-linejoin="round"/>
<path d="M23.1428 12.0003L19.1314 14.9489L19.8857 19.886L14.9485 19.1317L12 23.1431L9.0514 19.1317L4.11426 19.886L4.86855 14.9489L0.857117 12.0003L4.86855 9.05171L4.11426 4.11456L9.0514 4.86885L12 0.857422L14.9485 4.86885L19.8857 4.11456L19.1314 9.05171L23.1428 12.0003Z" stroke="white" stroke-width="1.5" stroke-linecap="round" stroke-linejoin="round"/>
</g>
<defs>
<clipPath id="clip0_307_273">
<rect width="24" height="24" fill="white"/>
</clipPath>
</defs>
</svg>
