<svg width="126" height="50" viewBox="0 0 126 50" fill="none" xmlns="http://www.w3.org/2000/svg">
<path d="M71.568 34H67.668V20.09H62.052V16.58H77.184V20.09H71.568V34ZM82.0964 19.44H78.2744L78.2224 16.58H82.0964V19.44ZM82.1744 34H78.2744V20.922H82.1744V34ZM88.2204 34H84.3464V16.58H88.2204V34ZM95.4019 34.26C91.9699 34.26 90.5399 31.998 90.5399 29.216V20.922H94.4139V28.436C94.4139 30.256 95.0379 30.906 96.9879 30.906C98.8599 30.906 99.6659 30.308 99.6659 28.332V20.922H103.54V34H99.9259V31.712H99.7959C99.0679 33.22 97.6899 34.26 95.4019 34.26ZM108.745 34H104.377L108.719 27.5V27.266L104.377 20.922H108.875L111.683 25.29H111.917L114.647 20.922H119.015L114.673 27.422V27.682L119.015 34H114.491L111.709 29.658H111.449L108.745 34Z" fill="white"/>
<path d="M125.001 34H120.113V29.398H125.001V34Z" fill="#6D1731"/>
<circle cx="25" cy="25" r="25" fill="#6D1731"/>
<path d="M30.357 15.3571L26.0713 19.6426L35.7143 29.2852L40 24.9997L30.357 15.3571Z" fill="white"/>
<path fill-rule="evenodd" clip-rule="evenodd" d="M19.6427 23.9282L15.3569 19.6427L19.6427 15.3572L23.9287 19.6427L19.6427 23.9282Z" fill="white"/>
<path fill-rule="evenodd" clip-rule="evenodd" d="M25.0001 29.2862L20.7144 25.0007L25.0001 20.7148L29.2855 25.0007L25.0001 29.2862Z" fill="white"/>
<path d="M30.357 26.0719L26.0713 30.3574L30.357 34.6429L34.6427 30.3574L30.357 26.0719Z" fill="white"/>
<path fill-rule="evenodd" clip-rule="evenodd" d="M29.2855 35.7144L25.0001 31.4277L20.7144 35.7144L25.0001 40L29.2855 35.7144Z" fill="white"/>
<path fill-rule="evenodd" clip-rule="evenodd" d="M23.9288 30.3573L19.6428 34.6429L10 25.0007L14.2856 20.7148L23.9288 30.3573Z" fill="white"/>
<path fill-rule="evenodd" clip-rule="evenodd" d="M29.2855 14.2858L25.0001 10L20.7144 14.2858L25.0001 18.5714L29.2855 14.2858Z" fill="white"/>
</svg>
